SplineFontDB: 3.0
FontName: Bedstead-UltraCondensed
FullName: Bedstead Ultra Condensed
FamilyName: Bedstead
Weight: Medium
OS2_WeightWidthSlopeOnly: 1
Copyright: Dedicated to the public domain
Version: 001.003
ItalicAngle: 0
UnderlinePosition: -50
UnderlineWidth: 100
OS2StrikeYPos: 300
OS2StrikeYSize: 100
Ascent: 800
Descent: 200
OS2SubXSize: 600
OS2SupXSize: 600
OS2SubYSize: 714
OS2SupYSize: 714
OS2SubXOff: 0
OS2SupXOff: 0
OS2SubYOff: 200
OS2SupYOff: 200
FSType: 0
TTFWeight: 500
TTFWidth: 1
Panose: 4 2 4 2 4 11 2 2 3 2
OS2FamilyClass: 2058
LayerCount: 2
Layer: 0 0 "Back" 1
Layer: 1 0 "Fore" 0
Encoding: UnicodeBmp
NameList: Adobe Glyph List
DisplaySize: -24
AntiAlias: 1
FitToEm: 1
BeginPrivate: 2
 StdHW 5 [100]
 StdVW 5 [50]
EndPrivate
GaspTable: 5 9 2 10 0 19 3 20 0 65535 3
Lookup: 1 0 0 "salt: stylistic alternates" {"salt"} ['salt' ('DFLT' <'dflt'> 'latn' <'dflt'>)]
Lookup: 1 0 0 "ss01: SAA5051 forms" {"ss01"} ['ss01' ('DFLT' <'dflt'> 'latn' <'dflt'>)]
OtfFeatName: 'ss01' 1033 "SAA5051"
Lookup: 1 0 0 "ss02: SAA5052 forms" {"ss02"} ['ss02' ('DFLT' <'dflt'> 'latn' <'dflt'>)]
OtfFeatName: 'ss02' 1033 "SAA5052"
Lookup: 1 0 0 "ss04: SAA5054 forms" {"ss04"} ['ss04' ('DFLT' <'dflt'> 'latn' <'dflt'>)]
OtfFeatName: 'ss04' 1033 "SAA5054"
Lookup: 3 0 0 "aalt: all alternates" {"aalt"} ['aalt' ('DFLT' <'dflt'> 'latn' <'dflt'>)]
Lookup: 257 0 0 "palt: proportional metrics" {"palt"} ['palt' ('DFLT' <'dflt'> 'latn' <'dflt'>)]
Lookup: 1 0 0 "smcp: lower-case to small caps" {"smcp"} ['smcp' ('latn' <'dflt'>)]
Lookup: 1 0 0 "c2sc: upper-case to small caps" {"c2sc"} ['c2sc' ('latn' <'dflt'>)]
BeginChars: 65578 989

StartChar: exclam
Encoding: 33 33 1
Width: 300
Flags: W
LayerCount: 2
Position2: "palt" dx=-100 dy=0 dh=-200 dv=0
Fore
SplineSet
 150 700 m 1
 200 700 l 1
 200 200 l 1
 150 200 l 1
 150 700 l 1
 150 0 m 1
 150 100 l 1
 200 100 l 1
 200 0 l 1
 150 0 l 1
EndSplineSet
EndChar

StartChar: quotedbl
Encoding: 34 34 2
Width: 300
Flags: W
LayerCount: 2
Position2: "palt" dx=-50 dy=0 dh=-100 dv=0
Fore
SplineSet
 100 700 m 1
 150 700 l 1
 150 400 l 1
 100 400 l 1
 100 700 l 1
 200 700 m 1
 250 700 l 1
 250 400 l 1
 200 400 l 1
 200 700 l 1
EndSplineSet
EndChar

StartChar: numbersign
Encoding: 35 35 3
Width: 300
Flags: W
LayerCount: 2
Fore
SplineSet
 50 400 m 1
 50 500 l 1
 100 500 l 1
 100 700 l 1
 150 700 l 1
 150 500 l 1
 200 500 l 1
 200 700 l 1
 250 700 l 1
 250 500 l 1
 300 500 l 1
 300 400 l 1
 250 400 l 1
 250 300 l 1
 300 300 l 1
 300 200 l 1
 250 200 l 1
 250 0 l 1
 200 0 l 1
 200 200 l 1
 150 200 l 1
 150 0 l 1
 100 0 l 1
 100 200 l 1
 50 200 l 1
 50 300 l 1
 100 300 l 1
 100 400 l 1
 50 400 l 1
 150 400 m 1
 150 300 l 1
 200 300 l 1
 200 400 l 1
 150 400 l 1
EndSplineSet
EndChar

StartChar: dollar
Encoding: 36 36 4
Width: 300
Flags: W
LayerCount: 2
Fore
SplineSet
 50 575 m 1
 112.5 700 l 1
 237.5 700 l 1
 300 575 l 1
 300 500 l 1
 262.5 500 l 1
 212.5 600 l 1
 200 600 l 1
 200 400 l 1
 237.5 400 l 1
 300 275 l 1
 300 125 l 1
 237.5 0 l 1
 112.5 0 l 1
 50 125 l 1
 50 200 l 1
 87.5 200 l 1
 137.5 100 l 1
 150 100 l 1
 150 300 l 1
 112.5 300 l 1
 50 425 l 1
 50 575 l 1
 137.5 600 m 1
 100 525 l 1
 100 475 l 1
 137.5 400 l 1
 150 400 l 1
 150 600 l 1
 137.5 600 l 1
 200 300 m 1
 200 100 l 1
 212.5 100 l 1
 250 175 l 1
 250 225 l 1
 212.5 300 l 1
 200 300 l 1
EndSplineSet
EndChar

StartChar: percent
Encoding: 37 37 5
Width: 300
Flags: W
LayerCount: 2
Fore
SplineSet
 50 700 m 1
 150 700 l 1
 150 500 l 1
 50 500 l 1
 50 700 l 1
 50 100 m 1
 50 175 l 1
 262.5 600 l 1
 300 600 l 1
 300 525 l 1
 87.5 100 l 1
 50 100 l 1
 200 200 m 1
 300 200 l 1
 300 0 l 1
 200 0 l 1
 200 200 l 1
EndSplineSet
EndChar

StartChar: ampersand
Encoding: 38 38 6
Width: 300
Flags: W
LayerCount: 2
Fore
SplineSet
 50 575 m 1
 112.5 700 l 1
 137.5 700 l 1
 200 575 l 1
 200 425 l 1
 162.5 350 l 1
 225 225 l 1
 262.5 300 l 1
 300 300 l 1
 300 225 l 1
 262.5 150 l 1
 300 75 l 1
 300 0 l 1
 262.5 0 l 1
 225 75 l 1
 187.5 0 l 1
 112.5 0 l 1
 50 125 l 1
 50 275 l 1
 87.5 350 l 1
 50 425 l 1
 50 575 l 1
 100 525 m 1
 100 475 l 1
 125 425 l 1
 150 475 l 1
 150 525 l 1
 125 575 l 1
 100 525 l 1
 100 225 m 1
 100 175 l 1
 137.5 100 l 1
 162.5 100 l 1
 187.5 150 l 1
 125 275 l 1
 100 225 l 1
EndSplineSet
EndChar

StartChar: quoteright
Encoding: 8217 8217 7
Width: 300
Flags: W
LayerCount: 2
Position2: "palt" dx=-50 dy=0 dh=-150 dv=0
Fore
SplineSet
 150 575 m 1
 150 700 l 1
 200 700 l 1
 200 525 l 1
 137.5 400 l 1
 100 400 l 1
 100 475 l 1
 150 575 l 1
EndSplineSet
EndChar

StartChar: parenleft
Encoding: 40 40 8
Width: 300
Flags: W
LayerCount: 2
Position2: "palt" dx=-50 dy=0 dh=-100 dv=0
Fore
SplineSet
 100 475 m 1
 212.5 700 l 1
 250 700 l 1
 250 625 l 1
 150 425 l 1
 150 275 l 1
 250 75 l 1
 250 0 l 1
 212.5 0 l 1
 100 225 l 1
 100 475 l 1
EndSplineSet
EndChar

StartChar: parenright
Encoding: 41 41 9
Width: 300
Flags: W
LayerCount: 2
Position2: "palt" dx=-50 dy=0 dh=-100 dv=0
Fore
SplineSet
 100 625 m 1
 100 700 l 1
 137.5 700 l 1
 250 475 l 1
 250 225 l 1
 137.5 0 l 1
 100 0 l 1
 100 75 l 1
 200 275 l 1
 200 425 l 1
 100 625 l 1
EndSplineSet
EndChar

StartChar: asterisk
Encoding: 42 42 10
Width: 300
Flags: W
LayerCount: 2
Fore
SplineSet
 50 525 m 1
 50 600 l 1
 87.5 600 l 1
 137.5 500 l 1
 150 500 l 1
 150 700 l 1
 200 700 l 1
 200 500 l 1
 212.5 500 l 1
 262.5 600 l 1
 300 600 l 1
 300 525 l 1
 237.5 400 l 1
 200 400 l 1
 200 300 l 1
 237.5 300 l 1
 300 175 l 1
 300 100 l 1
 262.5 100 l 1
 212.5 200 l 1
 200 200 l 1
 200 0 l 1
 150 0 l 1
 150 200 l 1
 137.5 200 l 1
 87.5 100 l 1
 50 100 l 1
 50 175 l 1
 112.5 300 l 1
 150 300 l 1
 150 400 l 1
 112.5 400 l 1
 50 525 l 1
EndSplineSet
EndChar

StartChar: plus
Encoding: 43 43 11
Width: 300
Flags: W
LayerCount: 2
Fore
SplineSet
 50 300 m 1
 50 400 l 1
 150 400 l 1
 150 600 l 1
 200 600 l 1
 200 400 l 1
 300 400 l 1
 300 300 l 1
 200 300 l 1
 200 100 l 1
 150 100 l 1
 150 300 l 1
 50 300 l 1
EndSplineSet
EndChar

StartChar: comma
Encoding: 44 44 12
Width: 300
Flags: W
LayerCount: 2
Substitution2: "ss01" comma.saa5051
AlternateSubs2: "aalt" comma.saa5051
Position2: "palt" dx=-50 dy=0 dh=-150 dv=0
Fore
SplineSet
 150 75 m 1
 150 200 l 1
 200 200 l 1
 200 25 l 1
 137.5 -100 l 1
 100 -100 l 1
 100 -25 l 1
 150 75 l 1
EndSplineSet
EndChar

StartChar: hyphen
Encoding: 45 45 13
Width: 300
Flags: W
LayerCount: 2
Position2: "palt" dx=-50 dy=0 dh=-100 dv=0
Fore
SplineSet
 100 300 m 1
 100 400 l 1
 250 400 l 1
 250 300 l 1
 100 300 l 1
EndSplineSet
EndChar

StartChar: period
Encoding: 46 46 14
Width: 300
Flags: W
LayerCount: 2
Substitution2: "ss01" period.saa5051
AlternateSubs2: "aalt" period.saa5051
Position2: "palt" dx=-100 dy=0 dh=-200 dv=0
Fore
SplineSet
 150 0 m 1
 150 100 l 1
 200 100 l 1
 200 0 l 1
 150 0 l 1
EndSplineSet
EndChar

StartChar: slash
Encoding: 47 47 15
Width: 300
Flags: W
LayerCount: 2
Fore
SplineSet
 50 100 m 1
 50 175 l 1
 262.5 600 l 1
 300 600 l 1
 300 525 l 1
 87.5 100 l 1
 50 100 l 1
EndSplineSet
EndChar

StartChar: zero
Encoding: 48 48 16
Width: 300
Flags: W
LayerCount: 2
Fore
SplineSet
 50 475 m 1
 162.5 700 l 1
 187.5 700 l 1
 300 475 l 1
 300 225 l 1
 187.5 0 l 1
 162.5 0 l 1
 50 225 l 1
 50 475 l 1
 100 425 m 1
 100 275 l 1
 175 125 l 1
 250 275 l 1
 250 425 l 1
 175 575 l 1
 100 425 l 1
EndSplineSet
EndChar

StartChar: one
Encoding: 49 49 17
Width: 300
Flags: W
LayerCount: 2
Position2: "palt" dx=-50 dy=0 dh=-100 dv=0
Fore
SplineSet
 100 500 m 1
 100 600 l 1
 150 600 l 1
 150 700 l 1
 200 700 l 1
 200 100 l 1
 250 100 l 1
 250 0 l 1
 100 0 l 1
 100 100 l 1
 150 100 l 1
 150 500 l 1
 100 500 l 1
EndSplineSet
EndChar

StartChar: two
Encoding: 50 50 18
Width: 300
Flags: W
LayerCount: 2
Fore
SplineSet
 50 500 m 1
 50 575 l 1
 112.5 700 l 1
 237.5 700 l 1
 300 575 l 1
 300 425 l 1
 237.5 300 l 1
 187.5 300 l 1
 100 125 l 1
 100 100 l 1
 300 100 l 1
 300 0 l 1
 50 0 l 1
 50 175 l 1
 162.5 400 l 1
 212.5 400 l 1
 250 475 l 1
 250 525 l 1
 212.5 600 l 1
 137.5 600 l 1
 87.5 500 l 1
 50 500 l 1
EndSplineSet
EndChar

StartChar: three
Encoding: 51 51 19
Width: 300
Flags: W
LayerCount: 2
Fore
SplineSet
 50 600 m 1
 50 700 l 1
 300 700 l 1
 300 525 l 1
 250 425 l 1
 250 375 l 1
 300 275 l 1
 300 125 l 1
 237.5 0 l 1
 112.5 0 l 1
 50 125 l 1
 50 200 l 1
 87.5 200 l 1
 137.5 100 l 1
 212.5 100 l 1
 250 175 l 1
 250 225 l 1
 212.5 300 l 1
 150 300 l 1
 150 400 l 1
 200 400 l 1
 200 475 l 1
 250 575 l 1
 250 600 l 1
 50 600 l 1
EndSplineSet
EndChar

StartChar: four
Encoding: 52 52 20
Width: 300
Flags: W
LayerCount: 2
Fore
SplineSet
 50 375 m 1
 162.5 600 l 1
 200 600 l 1
 200 700 l 1
 250 700 l 1
 250 300 l 1
 300 300 l 1
 300 200 l 1
 250 200 l 1
 250 0 l 1
 200 0 l 1
 200 200 l 1
 50 200 l 1
 50 375 l 1
 100 325 m 1
 100 300 l 1
 200 300 l 1
 200 500 l 1
 187.5 500 l 1
 100 325 l 1
EndSplineSet
EndChar

StartChar: five
Encoding: 53 53 21
Width: 300
Flags: W
LayerCount: 2
Fore
SplineSet
 50 700 m 1
 300 700 l 1
 300 600 l 1
 100 600 l 1
 100 500 l 1
 237.5 500 l 1
 300 375 l 1
 300 125 l 1
 237.5 0 l 1
 112.5 0 l 1
 50 125 l 1
 50 200 l 1
 87.5 200 l 1
 137.5 100 l 1
 212.5 100 l 1
 250 175 l 1
 250 325 l 1
 212.5 400 l 1
 50 400 l 1
 50 700 l 1
EndSplineSet
EndChar

StartChar: six
Encoding: 54 54 22
Width: 300
Flags: W
LayerCount: 2
Fore
SplineSet
 50 475 m 1
 162.5 700 l 1
 250 700 l 1
 250 600 l 1
 187.5 600 l 1
 100 425 l 1
 100 400 l 1
 237.5 400 l 1
 300 275 l 1
 300 125 l 1
 237.5 0 l 1
 112.5 0 l 1
 50 125 l 1
 50 475 l 1
 100 300 m 1
 100 175 l 1
 137.5 100 l 1
 212.5 100 l 1
 250 175 l 1
 250 225 l 1
 212.5 300 l 1
 100 300 l 1
EndSplineSet
EndChar

StartChar: seven
Encoding: 55 55 23
Width: 300
Flags: W
LayerCount: 2
Fore
SplineSet
 50 600 m 1
 50 700 l 1
 300 700 l 1
 300 525 l 1
 150 225 l 1
 150 0 l 1
 100 0 l 1
 100 275 l 1
 250 575 l 1
 250 600 l 1
 50 600 l 1
EndSplineSet
EndChar

StartChar: eight
Encoding: 56 56 24
Width: 300
Flags: W
LayerCount: 2
Fore
SplineSet
 50 575 m 1
 112.5 700 l 1
 237.5 700 l 1
 300 575 l 1
 300 425 l 1
 262.5 350 l 1
 300 275 l 1
 300 125 l 1
 237.5 0 l 1
 112.5 0 l 1
 50 125 l 1
 50 275 l 1
 87.5 350 l 1
 50 425 l 1
 50 575 l 1
 137.5 600 m 1
 100 525 l 1
 100 475 l 1
 137.5 400 l 1
 212.5 400 l 1
 250 475 l 1
 250 525 l 1
 212.5 600 l 1
 137.5 600 l 1
 137.5 300 m 1
 100 225 l 1
 100 175 l 1
 137.5 100 l 1
 212.5 100 l 1
 250 175 l 1
 250 225 l 1
 212.5 300 l 1
 137.5 300 l 1
EndSplineSet
EndChar

StartChar: nine
Encoding: 57 57 25
Width: 300
Flags: W
LayerCount: 2
Fore
SplineSet
 50 575 m 1
 112.5 700 l 1
 237.5 700 l 1
 300 575 l 1
 300 225 l 1
 187.5 0 l 1
 100 0 l 1
 100 100 l 1
 162.5 100 l 1
 250 275 l 1
 250 300 l 1
 112.5 300 l 1
 50 425 l 1
 50 575 l 1
 137.5 600 m 1
 100 525 l 1
 100 475 l 1
 137.5 400 l 1
 250 400 l 1
 250 525 l 1
 212.5 600 l 1
 137.5 600 l 1
EndSplineSet
EndChar

StartChar: colon
Encoding: 58 58 26
Width: 300
Flags: W
LayerCount: 2
Substitution2: "ss01" colon.saa5051
AlternateSubs2: "aalt" colon.saa5051
Position2: "palt" dx=-100 dy=0 dh=-200 dv=0
Fore
SplineSet
 150 400 m 1
 150 500 l 1
 200 500 l 1
 200 400 l 1
 150 400 l 1
 150 0 m 1
 150 100 l 1
 200 100 l 1
 200 0 l 1
 150 0 l 1
EndSplineSet
EndChar

StartChar: semicolon
Encoding: 59 59 27
Width: 300
Flags: W
LayerCount: 2
Substitution2: "ss01" semicolon.saa5051
AlternateSubs2: "aalt" semicolon.saa5051
Position2: "palt" dx=-50 dy=0 dh=-150 dv=0
Fore
SplineSet
 150 75 m 1
 150 200 l 1
 200 200 l 1
 200 25 l 1
 137.5 -100 l 1
 100 -100 l 1
 100 -25 l 1
 150 75 l 1
 150 400 m 1
 150 500 l 1
 200 500 l 1
 200 400 l 1
 150 400 l 1
EndSplineSet
EndChar

StartChar: less
Encoding: 60 60 28
Width: 300
Flags: W
LayerCount: 2
Position2: "palt" dx=0 dy=0 dh=-50 dv=0
Fore
SplineSet
 50 325 m 1
 50 375 l 1
 212.5 700 l 1
 250 700 l 1
 250 625 l 1
 112.5 350 l 1
 250 75 l 1
 250 0 l 1
 212.5 0 l 1
 50 325 l 1
EndSplineSet
EndChar

StartChar: equal
Encoding: 61 61 29
Width: 300
Flags: W
LayerCount: 2
Fore
SplineSet
 50 400 m 1
 50 500 l 1
 300 500 l 1
 300 400 l 1
 50 400 l 1
 50 200 m 1
 50 300 l 1
 300 300 l 1
 300 200 l 1
 50 200 l 1
EndSplineSet
EndChar

StartChar: greater
Encoding: 62 62 30
Width: 300
Flags: W
LayerCount: 2
Position2: "palt" dx=-50 dy=0 dh=-50 dv=0
Fore
SplineSet
 100 625 m 1
 100 700 l 1
 137.5 700 l 1
 300 375 l 1
 300 325 l 1
 137.5 0 l 1
 100 0 l 1
 100 75 l 1
 237.5 350 l 1
 100 625 l 1
EndSplineSet
EndChar

StartChar: question
Encoding: 63 63 31
Width: 300
Flags: W
LayerCount: 2
Fore
SplineSet
 50 500 m 1
 50 575 l 1
 112.5 700 l 1
 237.5 700 l 1
 300 575 l 1
 300 525 l 1
 200 325 l 1
 200 200 l 1
 150 200 l 1
 150 375 l 1
 237.5 550 l 1
 212.5 600 l 1
 137.5 600 l 1
 87.5 500 l 1
 50 500 l 1
 150 0 m 1
 150 100 l 1
 200 100 l 1
 200 0 l 1
 150 0 l 1
EndSplineSet
EndChar

StartChar: at
Encoding: 64 64 32
Width: 300
Flags: W
LayerCount: 2
Fore
SplineSet
 50 575 m 1
 112.5 700 l 1
 237.5 700 l 1
 300 575 l 1
 300 200 l 1
 150 200 l 1
 150 500 l 1
 250 500 l 1
 250 525 l 1
 212.5 600 l 1
 137.5 600 l 1
 100 525 l 1
 100 175 l 1
 137.5 100 l 1
 250 100 l 1
 250 0 l 1
 112.5 0 l 1
 50 125 l 1
 50 575 l 1
 200 400 m 1
 200 300 l 1
 250 300 l 1
 250 400 l 1
 200 400 l 1
EndSplineSet
EndChar

StartChar: A
Encoding: 65 65 33
Width: 300
Flags: W
LayerCount: 2
Substitution2: "c2sc" a.sc
Fore
SplineSet
 50 475 m 1
 162.5 700 l 1
 187.5 700 l 1
 300 475 l 1
 300 0 l 1
 250 0 l 1
 250 200 l 1
 100 200 l 1
 100 0 l 1
 50 0 l 1
 50 475 l 1
 100 425 m 1
 100 300 l 1
 250 300 l 1
 250 425 l 1
 175 575 l 1
 100 425 l 1
EndSplineSet
EndChar

StartChar: B
Encoding: 66 66 34
Width: 300
Flags: W
LayerCount: 2
Substitution2: "c2sc" b.sc
Fore
SplineSet
 50 700 m 1
 237.5 700 l 1
 300 575 l 1
 300 425 l 1
 262.5 350 l 1
 300 275 l 1
 300 125 l 1
 237.5 0 l 1
 50 0 l 1
 50 700 l 1
 100 600 m 1
 100 400 l 1
 212.5 400 l 1
 250 475 l 1
 250 525 l 1
 212.5 600 l 1
 100 600 l 1
 100 300 m 1
 100 100 l 1
 212.5 100 l 1
 250 175 l 1
 250 225 l 1
 212.5 300 l 1
 100 300 l 1
EndSplineSet
EndChar

StartChar: C
Encoding: 67 67 35
Width: 300
Flags: W
LayerCount: 2
Substitution2: "c2sc" c.sc
Fore
SplineSet
 50 575 m 1
 112.5 700 l 1
 237.5 700 l 1
 300 575 l 1
 300 500 l 1
 262.5 500 l 1
 212.5 600 l 1
 137.5 600 l 1
 100 525 l 1
 100 175 l 1
 137.5 100 l 1
 212.5 100 l 1
 262.5 200 l 1
 300 200 l 1
 300 125 l 1
 237.5 0 l 1
 112.5 0 l 1
 50 125 l 1
 50 575 l 1
EndSplineSet
EndChar

StartChar: D
Encoding: 68 68 36
Width: 300
Flags: W
LayerCount: 2
Substitution2: "ss02" D.saa5052
AlternateSubs2: "aalt" D.saa5052
Substitution2: "c2sc" d.sc
Fore
SplineSet
 50 700 m 1
 237.5 700 l 1
 300 575 l 1
 300 125 l 1
 237.5 0 l 1
 50 0 l 1
 50 700 l 1
 100 600 m 1
 100 100 l 1
 212.5 100 l 1
 250 175 l 1
 250 525 l 1
 212.5 600 l 1
 100 600 l 1
EndSplineSet
EndChar

StartChar: E
Encoding: 69 69 37
Width: 300
Flags: W
LayerCount: 2
Substitution2: "c2sc" e.sc
Fore
SplineSet
 50 700 m 1
 300 700 l 1
 300 600 l 1
 100 600 l 1
 100 400 l 1
 250 400 l 1
 250 300 l 1
 100 300 l 1
 100 100 l 1
 300 100 l 1
 300 0 l 1
 50 0 l 1
 50 700 l 1
EndSplineSet
EndChar

StartChar: F
Encoding: 70 70 38
Width: 300
Flags: W
LayerCount: 2
Substitution2: "c2sc" f.sc
Fore
SplineSet
 50 700 m 1
 300 700 l 1
 300 600 l 1
 100 600 l 1
 100 400 l 1
 250 400 l 1
 250 300 l 1
 100 300 l 1
 100 0 l 1
 50 0 l 1
 50 700 l 1
EndSplineSet
EndChar

StartChar: G
Encoding: 71 71 39
Width: 300
Flags: W
LayerCount: 2
Substitution2: "c2sc" g.sc
Fore
SplineSet
 50 575 m 1
 112.5 700 l 1
 237.5 700 l 1
 300 575 l 1
 300 500 l 1
 262.5 500 l 1
 212.5 600 l 1
 137.5 600 l 1
 100 525 l 1
 100 175 l 1
 137.5 100 l 1
 250 100 l 1
 250 200 l 1
 200 200 l 1
 200 300 l 1
 300 300 l 1
 300 0 l 1
 112.5 0 l 1
 50 125 l 1
 50 575 l 1
EndSplineSet
EndChar

StartChar: H
Encoding: 72 72 40
Width: 300
Flags: W
LayerCount: 2
Substitution2: "c2sc" h.sc
Fore
SplineSet
 50 700 m 1
 100 700 l 1
 100 400 l 1
 250 400 l 1
 250 700 l 1
 300 700 l 1
 300 0 l 1
 250 0 l 1
 250 300 l 1
 100 300 l 1
 100 0 l 1
 50 0 l 1
 50 700 l 1
EndSplineSet
EndChar

StartChar: I
Encoding: 73 73 41
Width: 300
Flags: W
LayerCount: 2
Substitution2: "c2sc" i.sc
Position2: "palt" dx=-50 dy=0 dh=-100 dv=0
Fore
SplineSet
 100 600 m 1
 100 700 l 1
 250 700 l 1
 250 600 l 1
 200 600 l 1
 200 100 l 1
 250 100 l 1
 250 0 l 1
 100 0 l 1
 100 100 l 1
 150 100 l 1
 150 600 l 1
 100 600 l 1
EndSplineSet
EndChar

StartChar: J
Encoding: 74 74 42
Width: 300
Flags: W
LayerCount: 2
Substitution2: "c2sc" j.sc
Fore
SplineSet
 50 125 m 1
 50 200 l 1
 87.5 200 l 1
 137.5 100 l 1
 212.5 100 l 1
 250 175 l 1
 250 700 l 1
 300 700 l 1
 300 125 l 1
 237.5 0 l 1
 112.5 0 l 1
 50 125 l 1
EndSplineSet
EndChar

StartChar: K
Encoding: 75 75 43
Width: 300
Flags: W
LayerCount: 2
Substitution2: "c2sc" k.sc
Fore
SplineSet
 50 700 m 1
 100 700 l 1
 100 400 l 1
 112.5 400 l 1
 262.5 700 l 1
 300 700 l 1
 300 625 l 1
 162.5 350 l 1
 300 75 l 1
 300 0 l 1
 262.5 0 l 1
 112.5 300 l 1
 100 300 l 1
 100 0 l 1
 50 0 l 1
 50 700 l 1
EndSplineSet
EndChar

StartChar: L
Encoding: 76 76 44
Width: 300
Flags: W
LayerCount: 2
Substitution2: "ss02" L.saa5052
AlternateSubs2: "aalt" L.saa5052
Substitution2: "c2sc" l.sc
Fore
SplineSet
 50 700 m 1
 100 700 l 1
 100 100 l 1
 300 100 l 1
 300 0 l 1
 50 0 l 1
 50 700 l 1
EndSplineSet
EndChar

StartChar: M
Encoding: 77 77 45
Width: 300
Flags: W
LayerCount: 2
Substitution2: "c2sc" m.sc
Fore
SplineSet
 50 700 m 1
 100 700 l 1
 100 600 l 1
 137.5 600 l 1
 175 525 l 1
 212.5 600 l 1
 250 600 l 1
 250 700 l 1
 300 700 l 1
 300 0 l 1
 250 0 l 1
 250 500 l 1
 237.5 500 l 1
 200 425 l 1
 200 300 l 1
 150 300 l 1
 150 425 l 1
 112.5 500 l 1
 100 500 l 1
 100 0 l 1
 50 0 l 1
 50 700 l 1
EndSplineSet
EndChar

StartChar: N
Encoding: 78 78 46
Width: 300
Flags: W
LayerCount: 2
Substitution2: "c2sc" n.sc
Fore
SplineSet
 50 700 m 1
 100 700 l 1
 100 500 l 1
 137.5 500 l 1
 237.5 300 l 1
 250 300 l 1
 250 700 l 1
 300 700 l 1
 300 0 l 1
 250 0 l 1
 250 200 l 1
 212.5 200 l 1
 112.5 400 l 1
 100 400 l 1
 100 0 l 1
 50 0 l 1
 50 700 l 1
EndSplineSet
EndChar

StartChar: O
Encoding: 79 79 47
Width: 300
Flags: W
LayerCount: 2
Substitution2: "c2sc" o.sc
Fore
SplineSet
 50 575 m 1
 112.5 700 l 1
 237.5 700 l 1
 300 575 l 1
 300 125 l 1
 237.5 0 l 1
 112.5 0 l 1
 50 125 l 1
 50 575 l 1
 137.5 600 m 1
 100 525 l 1
 100 175 l 1
 137.5 100 l 1
 212.5 100 l 1
 250 175 l 1
 250 525 l 1
 212.5 600 l 1
 137.5 600 l 1
EndSplineSet
EndChar

StartChar: P
Encoding: 80 80 48
Width: 300
Flags: W
LayerCount: 2
Substitution2: "c2sc" p.sc
Fore
SplineSet
 50 700 m 1
 237.5 700 l 1
 300 575 l 1
 300 425 l 1
 237.5 300 l 1
 100 300 l 1
 100 0 l 1
 50 0 l 1
 50 700 l 1
 100 600 m 1
 100 400 l 1
 212.5 400 l 1
 250 475 l 1
 250 525 l 1
 212.5 600 l 1
 100 600 l 1
EndSplineSet
EndChar

StartChar: Q
Encoding: 81 81 49
Width: 300
Flags: W
LayerCount: 2
Substitution2: "c2sc" q.sc
Fore
SplineSet
 50 575 m 1
 112.5 700 l 1
 237.5 700 l 1
 300 575 l 1
 300 225 l 1
 262.5 150 l 1
 300 75 l 1
 300 0 l 1
 262.5 0 l 1
 225 75 l 1
 187.5 0 l 1
 112.5 0 l 1
 50 125 l 1
 50 575 l 1
 137.5 600 m 1
 100 525 l 1
 100 175 l 1
 137.5 100 l 1
 162.5 100 l 1
 187.5 150 l 1
 150 225 l 1
 150 300 l 1
 187.5 300 l 1
 225 225 l 1
 250 275 l 1
 250 525 l 1
 212.5 600 l 1
 137.5 600 l 1
EndSplineSet
EndChar

StartChar: R
Encoding: 82 82 50
Width: 300
Flags: W
LayerCount: 2
Substitution2: "c2sc" r.sc
Fore
SplineSet
 50 700 m 1
 237.5 700 l 1
 300 575 l 1
 300 425 l 1
 237.5 300 l 1
 200 300 l 1
 200 275 l 1
 300 75 l 1
 300 0 l 1
 262.5 0 l 1
 150 225 l 1
 150 300 l 1
 100 300 l 1
 100 0 l 1
 50 0 l 1
 50 700 l 1
 100 600 m 1
 100 400 l 1
 212.5 400 l 1
 250 475 l 1
 250 525 l 1
 212.5 600 l 1
 100 600 l 1
EndSplineSet
EndChar

StartChar: S
Encoding: 83 83 51
Width: 300
Flags: W
LayerCount: 2
Substitution2: "c2sc" s.sc
Fore
SplineSet
 50 575 m 1
 112.5 700 l 1
 237.5 700 l 1
 300 575 l 1
 300 500 l 1
 262.5 500 l 1
 212.5 600 l 1
 137.5 600 l 1
 100 525 l 1
 100 475 l 1
 137.5 400 l 1
 237.5 400 l 1
 300 275 l 1
 300 125 l 1
 237.5 0 l 1
 112.5 0 l 1
 50 125 l 1
 50 200 l 1
 87.5 200 l 1
 137.5 100 l 1
 212.5 100 l 1
 250 175 l 1
 250 225 l 1
 212.5 300 l 1
 112.5 300 l 1
 50 425 l 1
 50 575 l 1
EndSplineSet
EndChar

StartChar: T
Encoding: 84 84 52
Width: 300
Flags: W
LayerCount: 2
Substitution2: "c2sc" t.sc
Fore
SplineSet
 50 600 m 1
 50 700 l 1
 300 700 l 1
 300 600 l 1
 200 600 l 1
 200 0 l 1
 150 0 l 1
 150 600 l 1
 50 600 l 1
EndSplineSet
EndChar

StartChar: U
Encoding: 85 85 53
Width: 300
Flags: W
LayerCount: 2
Substitution2: "c2sc" u.sc
Fore
SplineSet
 50 700 m 1
 100 700 l 1
 100 175 l 1
 137.5 100 l 1
 212.5 100 l 1
 250 175 l 1
 250 700 l 1
 300 700 l 1
 300 125 l 1
 237.5 0 l 1
 112.5 0 l 1
 50 125 l 1
 50 700 l 1
EndSplineSet
EndChar

StartChar: V
Encoding: 86 86 54
Width: 300
Flags: W
LayerCount: 2
Substitution2: "c2sc" v.sc
Fore
SplineSet
 50 700 m 1
 100 700 l 1
 100 475 l 1
 150 375 l 1
 150 275 l 1
 175 225 l 1
 200 275 l 1
 200 375 l 1
 250 475 l 1
 250 700 l 1
 300 700 l 1
 300 425 l 1
 250 325 l 1
 250 225 l 1
 200 125 l 1
 200 0 l 1
 150 0 l 1
 150 125 l 1
 100 225 l 1
 100 325 l 1
 50 425 l 1
 50 700 l 1
EndSplineSet
EndChar

StartChar: W
Encoding: 87 87 55
Width: 300
Flags: W
LayerCount: 2
Substitution2: "c2sc" w.sc
Fore
SplineSet
 50 700 m 1
 100 700 l 1
 100 175 l 1
 125 125 l 1
 150 175 l 1
 150 400 l 1
 200 400 l 1
 200 175 l 1
 225 125 l 1
 250 175 l 1
 250 700 l 1
 300 700 l 1
 300 125 l 1
 237.5 0 l 1
 212.5 0 l 1
 175 75 l 1
 137.5 0 l 1
 112.5 0 l 1
 50 125 l 1
 50 700 l 1
EndSplineSet
EndChar

StartChar: X
Encoding: 88 88 56
Width: 300
Flags: W
LayerCount: 2
Substitution2: "c2sc" x.sc
Fore
SplineSet
 50 700 m 1
 100 700 l 1
 100 575 l 1
 175 425 l 1
 250 575 l 1
 250 700 l 1
 300 700 l 1
 300 525 l 1
 212.5 350 l 1
 300 175 l 1
 300 0 l 1
 250 0 l 1
 250 125 l 1
 175 275 l 1
 100 125 l 1
 100 0 l 1
 50 0 l 1
 50 175 l 1
 137.5 350 l 1
 50 525 l 1
 50 700 l 1
EndSplineSet
EndChar

StartChar: Y
Encoding: 89 89 57
Width: 300
Flags: W
LayerCount: 2
Substitution2: "c2sc" y.sc
Fore
SplineSet
 50 700 m 1
 100 700 l 1
 100 575 l 1
 175 425 l 1
 250 575 l 1
 250 700 l 1
 300 700 l 1
 300 525 l 1
 200 325 l 1
 200 0 l 1
 150 0 l 1
 150 325 l 1
 50 525 l 1
 50 700 l 1
EndSplineSet
EndChar

StartChar: Z
Encoding: 90 90 58
Width: 300
Flags: W
LayerCount: 2
Substitution2: "c2sc" z.sc
Fore
SplineSet
 50 600 m 1
 50 700 l 1
 300 700 l 1
 300 525 l 1
 100 125 l 1
 100 100 l 1
 300 100 l 1
 300 0 l 1
 50 0 l 1
 50 175 l 1
 250 575 l 1
 250 600 l 1
 50 600 l 1
EndSplineSet
EndChar

StartChar: bracketleft
Encoding: 91 91 59
Width: 300
Flags: W
LayerCount: 2
Position2: "palt" dx=-50 dy=0 dh=-50 dv=0
Fore
SplineSet
 100 700 m 1
 300 700 l 1
 300 600 l 1
 150 600 l 1
 150 100 l 1
 300 100 l 1
 300 0 l 1
 100 0 l 1
 100 700 l 1
EndSplineSet
EndChar

StartChar: backslash
Encoding: 92 92 60
Width: 300
Flags: W
LayerCount: 2
Fore
SplineSet
 50 525 m 1
 50 600 l 1
 87.5 600 l 1
 300 175 l 1
 300 100 l 1
 262.5 100 l 1
 50 525 l 1
EndSplineSet
EndChar

StartChar: bracketright
Encoding: 93 93 61
Width: 300
Flags: W
LayerCount: 2
Position2: "palt" dx=0 dy=0 dh=-50 dv=0
Fore
SplineSet
 50 600 m 1
 50 700 l 1
 250 700 l 1
 250 0 l 1
 50 0 l 1
 50 100 l 1
 200 100 l 1
 200 600 l 1
 50 600 l 1
EndSplineSet
EndChar

StartChar: asciicircum
Encoding: 94 94 62
Width: 300
Flags: W
LayerCount: 2
Fore
SplineSet
 50 400 m 1
 50 475 l 1
 162.5 700 l 1
 187.5 700 l 1
 300 475 l 1
 300 400 l 1
 262.5 400 l 1
 175 575 l 1
 87.5 400 l 1
 50 400 l 1
EndSplineSet
EndChar

StartChar: underscore
Encoding: 95 95 63
Width: 300
Flags: W
LayerCount: 2
Fore
SplineSet
 50 0 m 1
 50 100 l 1
 300 100 l 1
 300 0 l 1
 50 0 l 1
EndSplineSet
EndChar

StartChar: quotereversed
Encoding: 8219 8219 64
Width: 300
Flags: W
LayerCount: 2
Position2: "palt" dx=-100 dy=0 dh=-150 dv=0
Fore
SplineSet
 150 700 m 1
 200 700 l 1
 200 575 l 1
 250 475 l 1
 250 400 l 1
 212.5 400 l 1
 150 525 l 1
 150 700 l 1
EndSplineSet
EndChar

StartChar: a
Encoding: 97 97 65
Width: 300
Flags: W
LayerCount: 2
AlternateSubs2: "aalt" a.sc
Substitution2: "smcp" a.sc
Fore
SplineSet
 50 125 m 1
 50 175 l 1
 112.5 300 l 1
 250 300 l 1
 250 325 l 1
 212.5 400 l 1
 100 400 l 1
 100 500 l 1
 237.5 500 l 1
 300 375 l 1
 300 0 l 1
 112.5 0 l 1
 50 125 l 1
 137.5 100 m 1
 250 100 l 1
 250 200 l 1
 137.5 200 l 1
 112.5 150 l 1
 137.5 100 l 1
EndSplineSet
EndChar

StartChar: b
Encoding: 98 98 66
Width: 300
Flags: W
LayerCount: 2
AlternateSubs2: "aalt" b.sc
Substitution2: "smcp" b.sc
Fore
SplineSet
 50 700 m 1
 100 700 l 1
 100 500 l 1
 237.5 500 l 1
 300 375 l 1
 300 125 l 1
 237.5 0 l 1
 50 0 l 1
 50 700 l 1
 100 400 m 1
 100 100 l 1
 212.5 100 l 1
 250 175 l 1
 250 325 l 1
 212.5 400 l 1
 100 400 l 1
EndSplineSet
EndChar

StartChar: c
Encoding: 99 99 67
Width: 300
Flags: W
LayerCount: 2
AlternateSubs2: "aalt" c.sc
Substitution2: "smcp" c.sc
Fore
SplineSet
 50 375 m 1
 112.5 500 l 1
 300 500 l 1
 300 400 l 1
 137.5 400 l 1
 100 325 l 1
 100 175 l 1
 137.5 100 l 1
 300 100 l 1
 300 0 l 1
 112.5 0 l 1
 50 125 l 1
 50 375 l 1
EndSplineSet
EndChar

StartChar: d
Encoding: 100 100 68
Width: 300
Flags: W
LayerCount: 2
AlternateSubs2: "aalt" d.sc
Substitution2: "smcp" d.sc
Fore
SplineSet
 50 375 m 1
 112.5 500 l 1
 250 500 l 1
 250 700 l 1
 300 700 l 1
 300 0 l 1
 112.5 0 l 1
 50 125 l 1
 50 375 l 1
 137.5 400 m 1
 100 325 l 1
 100 175 l 1
 137.5 100 l 1
 250 100 l 1
 250 400 l 1
 137.5 400 l 1
EndSplineSet
EndChar

StartChar: e
Encoding: 101 101 69
Width: 300
Flags: W
LayerCount: 2
AlternateSubs2: "aalt" e.sc
Substitution2: "smcp" e.sc
Fore
SplineSet
 50 375 m 1
 112.5 500 l 1
 237.5 500 l 1
 300 375 l 1
 300 200 l 1
 100 200 l 1
 100 175 l 1
 137.5 100 l 1
 250 100 l 1
 250 0 l 1
 112.5 0 l 1
 50 125 l 1
 50 375 l 1
 137.5 400 m 1
 100 325 l 1
 100 300 l 1
 250 300 l 1
 250 325 l 1
 212.5 400 l 1
 137.5 400 l 1
EndSplineSet
EndChar

StartChar: f
Encoding: 102 102 70
Width: 300
Flags: W
LayerCount: 2
AlternateSubs2: "aalt" f.sc
Substitution2: "smcp" f.sc
Position2: "palt" dx=-50 dy=0 dh=-100 dv=0
Fore
SplineSet
 100 300 m 1
 100 400 l 1
 150 400 l 1
 150 575 l 1
 212.5 700 l 1
 250 700 l 1
 250 625 l 1
 200 525 l 1
 200 400 l 1
 250 400 l 1
 250 300 l 1
 200 300 l 1
 200 0 l 1
 150 0 l 1
 150 300 l 1
 100 300 l 1
EndSplineSet
EndChar

StartChar: g
Encoding: 103 103 71
Width: 300
Flags: W
LayerCount: 2
AlternateSubs2: "aalt" g.sc
Substitution2: "smcp" g.sc
Fore
SplineSet
 50 375 m 1
 112.5 500 l 1
 300 500 l 1
 300 -75 l 1
 237.5 -200 l 1
 100 -200 l 1
 100 -100 l 1
 212.5 -100 l 1
 250 -25 l 1
 250 0 l 1
 112.5 0 l 1
 50 125 l 1
 50 375 l 1
 137.5 400 m 1
 100 325 l 1
 100 175 l 1
 137.5 100 l 1
 250 100 l 1
 250 400 l 1
 137.5 400 l 1
EndSplineSet
EndChar

StartChar: h
Encoding: 104 104 72
Width: 300
Flags: W
LayerCount: 2
AlternateSubs2: "aalt" h.sc
Substitution2: "smcp" h.sc
Fore
SplineSet
 50 700 m 1
 100 700 l 1
 100 500 l 1
 237.5 500 l 1
 300 375 l 1
 300 0 l 1
 250 0 l 1
 250 325 l 1
 212.5 400 l 1
 100 400 l 1
 100 0 l 1
 50 0 l 1
 50 700 l 1
EndSplineSet
EndChar

StartChar: i
Encoding: 105 105 73
Width: 300
Flags: W
LayerCount: 2
AlternateSubs2: "aalt" i.sc
Substitution2: "smcp" i.sc
Position2: "palt" dx=-50 dy=0 dh=-100 dv=0
Fore
SplineSet
 100 400 m 1
 100 500 l 1
 200 500 l 1
 200 100 l 1
 250 100 l 1
 250 0 l 1
 100 0 l 1
 100 100 l 1
 150 100 l 1
 150 400 l 1
 100 400 l 1
 150 600 m 1
 150 700 l 1
 200 700 l 1
 200 600 l 1
 150 600 l 1
EndSplineSet
EndChar

StartChar: j
Encoding: 106 106 74
Width: 300
Flags: W
LayerCount: 2
AlternateSubs2: "aalt" j.sc
Substitution2: "smcp" j.sc
Position2: "palt" dx=-50 dy=0 dh=-150 dv=0
Fore
SplineSet
 150 -25 m 1
 150 500 l 1
 200 500 l 1
 200 -75 l 1
 137.5 -200 l 1
 100 -200 l 1
 100 -125 l 1
 150 -25 l 1
 150 600 m 1
 150 700 l 1
 200 700 l 1
 200 600 l 1
 150 600 l 1
EndSplineSet
EndChar

StartChar: k
Encoding: 107 107 75
Width: 300
Flags: W
LayerCount: 2
AlternateSubs2: "aalt" k.sc
Substitution2: "smcp" k.sc
Position2: "palt" dx=-50 dy=0 dh=-50 dv=0
Fore
SplineSet
 100 700 m 1
 150 700 l 1
 150 300 l 1
 162.5 300 l 1
 262.5 500 l 1
 300 500 l 1
 300 425 l 1
 212.5 250 l 1
 300 75 l 1
 300 0 l 1
 262.5 0 l 1
 162.5 200 l 1
 150 200 l 1
 150 0 l 1
 100 0 l 1
 100 700 l 1
EndSplineSet
EndChar

StartChar: l
Encoding: 108 108 76
Width: 300
Flags: W
LayerCount: 2
AlternateSubs2: "aalt" l.sc
Substitution2: "smcp" l.sc
Position2: "palt" dx=-50 dy=0 dh=-100 dv=0
Fore
SplineSet
 100 600 m 1
 100 700 l 1
 200 700 l 1
 200 100 l 1
 250 100 l 1
 250 0 l 1
 100 0 l 1
 100 100 l 1
 150 100 l 1
 150 600 l 1
 100 600 l 1
EndSplineSet
EndChar

StartChar: m
Encoding: 109 109 77
Width: 300
Flags: W
LayerCount: 2
AlternateSubs2: "aalt" m.sc
Substitution2: "smcp" m.sc
Fore
SplineSet
 50 500 m 1
 137.5 500 l 1
 175 425 l 1
 212.5 500 l 1
 237.5 500 l 1
 300 375 l 1
 300 0 l 1
 250 0 l 1
 250 325 l 1
 225 375 l 1
 200 325 l 1
 200 0 l 1
 150 0 l 1
 150 325 l 1
 112.5 400 l 1
 100 400 l 1
 100 0 l 1
 50 0 l 1
 50 500 l 1
EndSplineSet
EndChar

StartChar: n
Encoding: 110 110 78
Width: 300
Flags: W
LayerCount: 2
AlternateSubs2: "aalt" n.sc
Substitution2: "smcp" n.sc
Fore
SplineSet
 50 500 m 1
 237.5 500 l 1
 300 375 l 1
 300 0 l 1
 250 0 l 1
 250 325 l 1
 212.5 400 l 1
 100 400 l 1
 100 0 l 1
 50 0 l 1
 50 500 l 1
EndSplineSet
EndChar

StartChar: o
Encoding: 111 111 79
Width: 300
Flags: W
LayerCount: 2
AlternateSubs2: "aalt" o.sc
Substitution2: "smcp" o.sc
Fore
SplineSet
 50 375 m 1
 112.5 500 l 1
 237.5 500 l 1
 300 375 l 1
 300 125 l 1
 237.5 0 l 1
 112.5 0 l 1
 50 125 l 1
 50 375 l 1
 137.5 400 m 1
 100 325 l 1
 100 175 l 1
 137.5 100 l 1
 212.5 100 l 1
 250 175 l 1
 250 325 l 1
 212.5 400 l 1
 137.5 400 l 1
EndSplineSet
EndChar

StartChar: p
Encoding: 112 112 80
Width: 300
Flags: W
LayerCount: 2
AlternateSubs2: "aalt" p.sc
Substitution2: "smcp" p.sc
Fore
SplineSet
 50 500 m 1
 237.5 500 l 1
 300 375 l 1
 300 125 l 1
 237.5 0 l 1
 100 0 l 1
 100 -200 l 1
 50 -200 l 1
 50 500 l 1
 100 400 m 1
 100 100 l 1
 212.5 100 l 1
 250 175 l 1
 250 325 l 1
 212.5 400 l 1
 100 400 l 1
EndSplineSet
EndChar

StartChar: q
Encoding: 113 113 81
Width: 300
Flags: W
LayerCount: 2
AlternateSubs2: "aalt" q.sc
Substitution2: "smcp" q.sc
Fore
SplineSet
 50 375 m 1
 112.5 500 l 1
 300 500 l 1
 300 -200 l 1
 250 -200 l 1
 250 0 l 1
 112.5 0 l 1
 50 125 l 1
 50 375 l 1
 137.5 400 m 1
 100 325 l 1
 100 175 l 1
 137.5 100 l 1
 250 100 l 1
 250 400 l 1
 137.5 400 l 1
EndSplineSet
EndChar

StartChar: r
Encoding: 114 114 82
Width: 300
Flags: W
LayerCount: 2
AlternateSubs2: "aalt" r.sc
Substitution2: "smcp" r.sc
Position2: "palt" dx=-50 dy=0 dh=-50 dv=0
Fore
SplineSet
 100 500 m 1
 150 500 l 1
 150 400 l 1
 162.5 400 l 1
 212.5 500 l 1
 300 500 l 1
 300 400 l 1
 237.5 400 l 1
 187.5 300 l 1
 150 300 l 1
 150 0 l 1
 100 0 l 1
 100 500 l 1
EndSplineSet
EndChar

StartChar: s
Encoding: 115 115 83
Width: 300
Flags: W
LayerCount: 2
AlternateSubs2: "aalt" s.sc
Substitution2: "smcp" s.sc
Fore
SplineSet
 50 325 m 1
 50 375 l 1
 112.5 500 l 1
 300 500 l 1
 300 400 l 1
 137.5 400 l 1
 112.5 350 l 1
 137.5 300 l 1
 237.5 300 l 1
 300 175 l 1
 300 125 l 1
 237.5 0 l 1
 50 0 l 1
 50 100 l 1
 212.5 100 l 1
 237.5 150 l 1
 212.5 200 l 1
 112.5 200 l 1
 50 325 l 1
EndSplineSet
EndChar

StartChar: t
Encoding: 116 116 84
Width: 300
Flags: W
LayerCount: 2
AlternateSubs2: "aalt" t.sc
Substitution2: "smcp" t.sc
Position2: "palt" dx=-50 dy=0 dh=-100 dv=0
Fore
SplineSet
 100 400 m 1
 100 500 l 1
 150 500 l 1
 150 700 l 1
 200 700 l 1
 200 500 l 1
 250 500 l 1
 250 400 l 1
 200 400 l 1
 200 175 l 1
 250 75 l 1
 250 0 l 1
 212.5 0 l 1
 150 125 l 1
 150 400 l 1
 100 400 l 1
EndSplineSet
EndChar

StartChar: u
Encoding: 117 117 85
Width: 300
Flags: W
LayerCount: 2
AlternateSubs2: "aalt" u.sc
Substitution2: "smcp" u.sc
Fore
SplineSet
 50 500 m 1
 100 500 l 1
 100 175 l 1
 137.5 100 l 1
 250 100 l 1
 250 500 l 1
 300 500 l 1
 300 0 l 1
 112.5 0 l 1
 50 125 l 1
 50 500 l 1
EndSplineSet
EndChar

StartChar: v
Encoding: 118 118 86
Width: 300
Flags: W
LayerCount: 2
AlternateSubs2: "aalt" v.sc
Substitution2: "smcp" v.sc
Fore
SplineSet
 50 500 m 1
 100 500 l 1
 100 375 l 1
 150 275 l 1
 150 175 l 1
 175 125 l 1
 200 175 l 1
 200 275 l 1
 250 375 l 1
 250 500 l 1
 300 500 l 1
 300 325 l 1
 250 225 l 1
 250 125 l 1
 187.5 0 l 1
 162.5 0 l 1
 100 125 l 1
 100 225 l 1
 50 325 l 1
 50 500 l 1
EndSplineSet
EndChar

StartChar: w
Encoding: 119 119 87
Width: 300
Flags: W
LayerCount: 2
AlternateSubs2: "aalt" w.sc
Substitution2: "smcp" w.sc
Fore
SplineSet
 50 500 m 1
 100 500 l 1
 100 175 l 1
 125 125 l 1
 150 175 l 1
 150 300 l 1
 200 300 l 1
 200 175 l 1
 225 125 l 1
 250 175 l 1
 250 500 l 1
 300 500 l 1
 300 125 l 1
 237.5 0 l 1
 212.5 0 l 1
 175 75 l 1
 137.5 0 l 1
 112.5 0 l 1
 50 125 l 1
 50 500 l 1
EndSplineSet
EndChar

StartChar: x
Encoding: 120 120 88
Width: 300
Flags: W
LayerCount: 2
AlternateSubs2: "aalt" x.sc
Substitution2: "smcp" x.sc
Fore
SplineSet
 50 425 m 1
 50 500 l 1
 87.5 500 l 1
 175 325 l 1
 262.5 500 l 1
 300 500 l 1
 300 425 l 1
 212.5 250 l 1
 300 75 l 1
 300 0 l 1
 262.5 0 l 1
 175 175 l 1
 87.5 0 l 1
 50 0 l 1
 50 75 l 1
 137.5 250 l 1
 50 425 l 1
EndSplineSet
EndChar

StartChar: y
Encoding: 121 121 89
Width: 300
Flags: W
LayerCount: 2
AlternateSubs2: "aalt" y.sc
Substitution2: "smcp" y.sc
Fore
SplineSet
 50 500 m 1
 100 500 l 1
 100 175 l 1
 137.5 100 l 1
 250 100 l 1
 250 500 l 1
 300 500 l 1
 300 -75 l 1
 237.5 -200 l 1
 100 -200 l 1
 100 -100 l 1
 212.5 -100 l 1
 250 -25 l 1
 250 0 l 1
 112.5 0 l 1
 50 125 l 1
 50 500 l 1
EndSplineSet
EndChar

StartChar: z
Encoding: 122 122 90
Width: 300
Flags: W
LayerCount: 2
AlternateSubs2: "aalt" z.sc
Substitution2: "smcp" z.sc
Fore
SplineSet
 50 400 m 1
 50 500 l 1
 300 500 l 1
 300 400 l 1
 250 400 l 1
 250 325 l 1
 150 125 l 1
 150 100 l 1
 300 100 l 1
 300 0 l 1
 50 0 l 1
 50 100 l 1
 100 100 l 1
 100 175 l 1
 200 375 l 1
 200 400 l 1
 50 400 l 1
EndSplineSet
EndChar

StartChar: braceleft
Encoding: 123 123 91
Width: 300
Flags: W
LayerCount: 2
Position2: "palt" dx=-50 dy=0 dh=-50 dv=0
Fore
SplineSet
 150 475 m 1
 150 575 l 1
 212.5 700 l 1
 300 700 l 1
 300 600 l 1
 237.5 600 l 1
 200 525 l 1
 200 425 l 1
 162.5 350 l 1
 200 275 l 1
 200 175 l 1
 237.5 100 l 1
 300 100 l 1
 300 0 l 1
 212.5 0 l 1
 150 125 l 1
 150 225 l 1
 100 325 l 1
 100 375 l 1
 150 475 l 1
EndSplineSet
EndChar

StartChar: brokenbar
Encoding: 166 166 92
Width: 300
Flags: W
LayerCount: 2
Position2: "palt" dx=-100 dy=0 dh=-200 dv=0
Fore
SplineSet
 150 700 m 1
 200 700 l 1
 200 400 l 1
 150 400 l 1
 150 700 l 1
 150 300 m 1
 200 300 l 1
 200 0 l 1
 150 0 l 1
 150 300 l 1
EndSplineSet
EndChar

StartChar: braceright
Encoding: 125 125 93
Width: 300
Flags: W
LayerCount: 2
Position2: "palt" dx=0 dy=0 dh=-50 dv=0
Fore
SplineSet
 50 600 m 1
 50 700 l 1
 137.5 700 l 1
 200 575 l 1
 200 475 l 1
 250 375 l 1
 250 325 l 1
 200 225 l 1
 200 125 l 1
 137.5 0 l 1
 50 0 l 1
 50 100 l 1
 112.5 100 l 1
 150 175 l 1
 150 275 l 1
 187.5 350 l 1
 150 425 l 1
 150 525 l 1
 112.5 600 l 1
 50 600 l 1
EndSplineSet
EndChar

StartChar: asciitilde
Encoding: 126 126 94
Width: 300
Flags: W
LayerCount: 2
Fore
SplineSet
 50 500 m 1
 50 575 l 1
 112.5 700 l 1
 137.5 700 l 1
 225 525 l 1
 262.5 600 l 1
 300 600 l 1
 300 525 l 1
 237.5 400 l 1
 212.5 400 l 1
 125 575 l 1
 87.5 500 l 1
 50 500 l 1
EndSplineSet
EndChar

StartChar: filledbox
Encoding: 9632 9632 95
Width: 300
Flags: W
LayerCount: 2
Fore
SplineSet
 50 700 m 1
 300 700 l 1
 300 0 l 1
 50 0 l 1
 50 700 l 1
EndSplineSet
EndChar

StartChar: sterling
Encoding: 163 163 96
Width: 300
Flags: W
LayerCount: 2
Fore
SplineSet
 50 300 m 1
 50 400 l 1
 100 400 l 1
 100 575 l 1
 162.5 700 l 1
 237.5 700 l 1
 300 575 l 1
 300 500 l 1
 262.5 500 l 1
 212.5 600 l 1
 187.5 600 l 1
 150 525 l 1
 150 400 l 1
 200 400 l 1
 200 300 l 1
 150 300 l 1
 150 100 l 1
 300 100 l 1
 300 0 l 1
 50 0 l 1
 50 100 l 1
 100 100 l 1
 100 300 l 1
 50 300 l 1
EndSplineSet
EndChar

StartChar: quotesingle
Encoding: 39 39 97
Width: 300
Flags: W
LayerCount: 2
Position2: "palt" dx=-100 dy=0 dh=-200 dv=0
Fore
SplineSet
 150 700 m 1
 200 700 l 1
 200 400 l 1
 150 400 l 1
 150 700 l 1
EndSplineSet
EndChar

StartChar: arrowleft
Encoding: 8592 8592 98
Width: 300
Flags: W
LayerCount: 2
Substitution2: "salt" arrowleft.alt
AlternateSubs2: "aalt" arrowleft.alt
Fore
SplineSet
 50 300 m 1
 50 400 l 1
 100 400 l 1
 100 475 l 1
 162.5 600 l 1
 200 600 l 1
 200 525 l 1
 150 425 l 1
 150 400 l 1
 300 400 l 1
 300 300 l 1
 150 300 l 1
 150 275 l 1
 200 175 l 1
 200 100 l 1
 162.5 100 l 1
 100 225 l 1
 100 300 l 1
 50 300 l 1
EndSplineSet
EndChar

StartChar: onehalf
Encoding: 189 189 99
Width: 300
Flags: W
LayerCount: 2
Fore
SplineSet
 50 700 m 1
 100 700 l 1
 100 200 l 1
 50 200 l 1
 50 700 l 1
 150 200 m 1
 150 300 l 1
 237.5 300 l 1
 300 175 l 1
 300 125 l 1
 200 -75 l 1
 200 -100 l 1
 300 -100 l 1
 300 -200 l 1
 150 -200 l 1
 150 -25 l 1
 237.5 150 l 1
 212.5 200 l 1
 150 200 l 1
EndSplineSet
EndChar

StartChar: arrowright
Encoding: 8594 8594 100
Width: 300
Flags: W
LayerCount: 2
Substitution2: "salt" arrowright.alt
AlternateSubs2: "aalt" arrowright.alt
Fore
SplineSet
 50 300 m 1
 50 400 l 1
 200 400 l 1
 200 425 l 1
 150 525 l 1
 150 600 l 1
 187.5 600 l 1
 250 475 l 1
 250 400 l 1
 300 400 l 1
 300 300 l 1
 250 300 l 1
 250 225 l 1
 187.5 100 l 1
 150 100 l 1
 150 175 l 1
 200 275 l 1
 200 300 l 1
 50 300 l 1
EndSplineSet
EndChar

StartChar: arrowup
Encoding: 8593 8593 101
Width: 300
Flags: W
LayerCount: 2
Substitution2: "salt" arrowup.alt
AlternateSubs2: "aalt" arrowup.alt
Fore
SplineSet
 50 300 m 1
 50 375 l 1
 112.5 500 l 1
 150 500 l 1
 150 600 l 1
 200 600 l 1
 200 500 l 1
 237.5 500 l 1
 300 375 l 1
 300 300 l 1
 262.5 300 l 1
 212.5 400 l 1
 200 400 l 1
 200 100 l 1
 150 100 l 1
 150 400 l 1
 137.5 400 l 1
 87.5 300 l 1
 50 300 l 1
EndSplineSet
EndChar

StartChar: emdash
Encoding: 8212 8212 102
Width: 300
Flags: W
LayerCount: 2
Fore
SplineSet
 50 300 m 1
 50 400 l 1
 300 400 l 1
 300 300 l 1
 50 300 l 1
EndSplineSet
EndChar

StartChar: onequarter
Encoding: 188 188 103
Width: 300
Flags: W
LayerCount: 2
Position2: "palt" dx=-50 dy=0 dh=-50 dv=0
Fore
SplineSet
 100 700 m 1
 150 700 l 1
 150 200 l 1
 100 200 l 1
 100 700 l 1
 150 75 m 1
 212.5 200 l 1
 250 200 l 1
 250 300 l 1
 300 300 l 1
 300 -200 l 1
 250 -200 l 1
 250 -100 l 1
 150 -100 l 1
 150 75 l 1
 237.5 100 m 1
 200 25 l 1
 200 0 l 1
 250 0 l 1
 250 100 l 1
 237.5 100 l 1
EndSplineSet
EndChar

StartChar: dblverticalbar
Encoding: 8214 8214 104
Width: 300
Flags: W
LayerCount: 2
Position2: "palt" dx=-50 dy=0 dh=-100 dv=0
Fore
SplineSet
 100 700 m 1
 150 700 l 1
 150 0 l 1
 100 0 l 1
 100 700 l 1
 200 700 m 1
 250 700 l 1
 250 0 l 1
 200 0 l 1
 200 700 l 1
EndSplineSet
EndChar

StartChar: threequarters
Encoding: 190 190 105
Width: 300
Flags: W
LayerCount: 2
Fore
SplineSet
 50 600 m 1
 50 700 l 1
 137.5 700 l 1
 200 575 l 1
 200 525 l 1
 162.5 450 l 1
 200 375 l 1
 200 325 l 1
 137.5 200 l 1
 50 200 l 1
 50 300 l 1
 112.5 300 l 1
 137.5 350 l 1
 112.5 400 l 1
 50 400 l 1
 50 500 l 1
 112.5 500 l 1
 137.5 550 l 1
 112.5 600 l 1
 50 600 l 1
 150 75 m 1
 212.5 200 l 1
 250 200 l 1
 250 300 l 1
 300 300 l 1
 300 -200 l 1
 250 -200 l 1
 250 -100 l 1
 150 -100 l 1
 150 75 l 1
 237.5 100 m 1
 200 25 l 1
 200 0 l 1
 250 0 l 1
 250 100 l 1
 237.5 100 l 1
EndSplineSet
EndChar

StartChar: divide
Encoding: 247 247 106
Width: 300
Flags: W
LayerCount: 2
Fore
SplineSet
 50 300 m 1
 50 400 l 1
 300 400 l 1
 300 300 l 1
 50 300 l 1
 150 500 m 1
 150 600 l 1
 200 600 l 1
 200 500 l 1
 150 500 l 1
 150 100 m 1
 150 200 l 1
 200 200 l 1
 200 100 l 1
 150 100 l 1
EndSplineSet
EndChar

StartChar: comma.saa5051
Encoding: 65536 -1 107
Width: 300
Flags: W
LayerCount: 2
Position2: "palt" dx=0 dy=0 dh=-150 dv=0
Fore
SplineSet
 100 75 m 1
 100 200 l 1
 150 200 l 1
 150 25 l 1
 87.5 -100 l 1
 50 -100 l 1
 50 -25 l 1
 100 75 l 1
EndSplineSet
EndChar

StartChar: period.saa5051
Encoding: 65537 -1 108
Width: 300
Flags: W
LayerCount: 2
Position2: "palt" dx=-50 dy=0 dh=-150 dv=0
Fore
SplineSet
 100 200 m 1
 200 200 l 1
 200 0 l 1
 100 0 l 1
 100 200 l 1
EndSplineSet
EndChar

StartChar: colon.saa5051
Encoding: 65538 -1 109
Width: 300
Flags: W
LayerCount: 2
Position2: "palt" dx=-50 dy=0 dh=-200 dv=0
Fore
SplineSet
 100 300 m 1
 100 400 l 1
 150 400 l 1
 150 300 l 1
 100 300 l 1
 100 0 m 1
 100 100 l 1
 150 100 l 1
 150 0 l 1
 100 0 l 1
EndSplineSet
EndChar

StartChar: semicolon.saa5051
Encoding: 65539 -1 110
Width: 300
Flags: W
LayerCount: 2
Position2: "palt" dx=0 dy=0 dh=-150 dv=0
Fore
SplineSet
 100 75 m 1
 100 200 l 1
 150 200 l 1
 150 25 l 1
 87.5 -100 l 1
 50 -100 l 1
 50 -25 l 1
 100 75 l 1
 100 400 m 1
 100 500 l 1
 150 500 l 1
 150 400 l 1
 100 400 l 1
EndSplineSet
EndChar

StartChar: section
Encoding: 167 167 111
Width: 300
Flags: W
LayerCount: 2
Fore
SplineSet
 50 575 m 1
 112.5 700 l 1
 237.5 700 l 1
 300 575 l 1
 300 500 l 1
 262.5 500 l 1
 212.5 600 l 1
 137.5 600 l 1
 100 525 l 1
 100 475 l 1
 137.5 400 l 1
 237.5 400 l 1
 300 275 l 1
 300 225 l 1
 262.5 150 l 1
 300 75 l 1
 300 -75 l 1
 237.5 -200 l 1
 112.5 -200 l 1
 50 -75 l 1
 50 0 l 1
 87.5 0 l 1
 137.5 -100 l 1
 212.5 -100 l 1
 250 -25 l 1
 250 25 l 1
 212.5 100 l 1
 112.5 100 l 1
 50 225 l 1
 50 275 l 1
 87.5 350 l 1
 50 425 l 1
 50 575 l 1
 137.5 200 m 1
 212.5 200 l 1
 237.5 250 l 1
 212.5 300 l 1
 137.5 300 l 1
 112.5 250 l 1
 137.5 200 l 1
EndSplineSet
EndChar

StartChar: Adieresis
Encoding: 196 196 112
Width: 300
Flags: W
LayerCount: 2
Fore
SplineSet
 50 375 m 1
 112.5 500 l 1
 237.5 500 l 1
 300 375 l 1
 300 0 l 1
 250 0 l 1
 250 200 l 1
 100 200 l 1
 100 0 l 1
 50 0 l 1
 50 375 l 1
 100 600 m 1
 100 700 l 1
 150 700 l 1
 150 600 l 1
 100 600 l 1
 137.5 400 m 1
 100 325 l 1
 100 300 l 1
 250 300 l 1
 250 325 l 1
 212.5 400 l 1
 137.5 400 l 1
 200 600 m 1
 200 700 l 1
 250 700 l 1
 250 600 l 1
 200 600 l 1
EndSplineSet
EndChar

StartChar: Odieresis
Encoding: 214 214 113
Width: 300
Flags: W
LayerCount: 2
Fore
SplineSet
 50 375 m 1
 112.5 500 l 1
 237.5 500 l 1
 300 375 l 1
 300 125 l 1
 237.5 0 l 1
 112.5 0 l 1
 50 125 l 1
 50 375 l 1
 100 600 m 1
 100 700 l 1
 150 700 l 1
 150 600 l 1
 100 600 l 1
 137.5 400 m 1
 100 325 l 1
 100 175 l 1
 137.5 100 l 1
 212.5 100 l 1
 250 175 l 1
 250 325 l 1
 212.5 400 l 1
 137.5 400 l 1
 200 600 m 1
 200 700 l 1
 250 700 l 1
 250 600 l 1
 200 600 l 1
EndSplineSet
EndChar

StartChar: Udieresis
Encoding: 220 220 114
Width: 300
Flags: W
LayerCount: 2
Fore
SplineSet
 50 500 m 1
 100 500 l 1
 100 175 l 1
 137.5 100 l 1
 212.5 100 l 1
 250 175 l 1
 250 500 l 1
 300 500 l 1
 300 125 l 1
 237.5 0 l 1
 112.5 0 l 1
 50 125 l 1
 50 500 l 1
 100 600 m 1
 100 700 l 1
 150 700 l 1
 150 600 l 1
 100 600 l 1
 200 600 m 1
 200 700 l 1
 250 700 l 1
 250 600 l 1
 200 600 l 1
EndSplineSet
EndChar

StartChar: degree
Encoding: 176 176 115
Width: 300
Flags: W
LayerCount: 2
Position2: "palt" dx=-50 dy=0 dh=-50 dv=0
Fore
SplineSet
 100 525 m 1
 100 575 l 1
 162.5 700 l 1
 237.5 700 l 1
 300 575 l 1
 300 525 l 1
 237.5 400 l 1
 162.5 400 l 1
 100 525 l 1
 187.5 500 m 1
 212.5 500 l 1
 237.5 550 l 1
 212.5 600 l 1
 187.5 600 l 1
 162.5 550 l 1
 187.5 500 l 1
EndSplineSet
EndChar

StartChar: adieresis
Encoding: 228 228 116
Width: 300
Flags: W
LayerCount: 2
Fore
SplineSet
 50 125 m 1
 50 175 l 1
 112.5 300 l 1
 250 300 l 1
 250 325 l 1
 212.5 400 l 1
 100 400 l 1
 100 500 l 1
 237.5 500 l 1
 300 375 l 1
 300 0 l 1
 112.5 0 l 1
 50 125 l 1
 100 600 m 1
 100 700 l 1
 150 700 l 1
 150 600 l 1
 100 600 l 1
 137.5 100 m 1
 250 100 l 1
 250 200 l 1
 137.5 200 l 1
 112.5 150 l 1
 137.5 100 l 1
 200 600 m 1
 200 700 l 1
 250 700 l 1
 250 600 l 1
 200 600 l 1
EndSplineSet
EndChar

StartChar: odieresis
Encoding: 246 246 117
Width: 300
Flags: W
LayerCount: 2
Fore
SplineSet
 50 275 m 1
 112.5 400 l 1
 237.5 400 l 1
 300 275 l 1
 300 125 l 1
 237.5 0 l 1
 112.5 0 l 1
 50 125 l 1
 50 275 l 1
 100 500 m 1
 100 600 l 1
 150 600 l 1
 150 500 l 1
 100 500 l 1
 137.5 300 m 1
 100 225 l 1
 100 175 l 1
 137.5 100 l 1
 212.5 100 l 1
 250 175 l 1
 250 225 l 1
 212.5 300 l 1
 137.5 300 l 1
 200 500 m 1
 200 600 l 1
 250 600 l 1
 250 500 l 1
 200 500 l 1
EndSplineSet
EndChar

StartChar: udieresis
Encoding: 252 252 118
Width: 300
Flags: W
LayerCount: 2
Fore
SplineSet
 50 400 m 1
 100 400 l 1
 100 175 l 1
 137.5 100 l 1
 250 100 l 1
 250 400 l 1
 300 400 l 1
 300 0 l 1
 112.5 0 l 1
 50 125 l 1
 50 400 l 1
 100 500 m 1
 100 600 l 1
 150 600 l 1
 150 500 l 1
 100 500 l 1
 200 500 m 1
 200 600 l 1
 250 600 l 1
 250 500 l 1
 200 500 l 1
EndSplineSet
EndChar

StartChar: germandbls
Encoding: 223 223 119
Width: 300
Flags: W
LayerCount: 2
AlternateSubs2: "aalt" germandbls.sc
Substitution2: "smcp" germandbls.sc
Fore
SplineSet
 50 575 m 1
 112.5 700 l 1
 187.5 700 l 1
 250 575 l 1
 250 375 l 1
 300 275 l 1
 300 125 l 1
 237.5 0 l 1
 150 0 l 1
 150 100 l 1
 212.5 100 l 1
 250 175 l 1
 250 225 l 1
 212.5 300 l 1
 150 300 l 1
 150 400 l 1
 200 400 l 1
 200 525 l 1
 162.5 600 l 1
 137.5 600 l 1
 100 525 l 1
 100 -200 l 1
 50 -200 l 1
 50 575 l 1
EndSplineSet
EndChar

StartChar: currency
Encoding: 164 164 120
Width: 300
Flags: W
LayerCount: 2
Fore
SplineSet
 50 425 m 1
 50 500 l 1
 87.5 500 l 1
 137.5 400 l 1
 212.5 400 l 1
 262.5 500 l 1
 300 500 l 1
 300 425 l 1
 250 325 l 1
 250 175 l 1
 300 75 l 1
 300 0 l 1
 262.5 0 l 1
 212.5 100 l 1
 137.5 100 l 1
 87.5 0 l 1
 50 0 l 1
 50 75 l 1
 100 175 l 1
 100 325 l 1
 50 425 l 1
 150 300 m 1
 150 200 l 1
 200 200 l 1
 200 300 l 1
 150 300 l 1
EndSplineSet
EndChar

StartChar: Eacute
Encoding: 201 201 121
Width: 300
Flags: W
LayerCount: 2
Fore
SplineSet
 50 500 m 1
 150 500 l 1
 150 575 l 1
 212.5 700 l 1
 250 700 l 1
 250 625 l 1
 200 525 l 1
 200 500 l 1
 300 500 l 1
 300 400 l 1
 100 400 l 1
 100 300 l 1
 250 300 l 1
 250 200 l 1
 100 200 l 1
 100 100 l 1
 300 100 l 1
 300 0 l 1
 50 0 l 1
 50 500 l 1
EndSplineSet
EndChar

StartChar: D.saa5052
Encoding: 65540 -1 122
Width: 300
Flags: W
LayerCount: 2
Substitution2: "c2sc" d.saa5052.sc
Position2: "palt" dx=-50 dy=0 dh=-50 dv=0
Fore
SplineSet
 100 700 m 1
 237.5 700 l 1
 300 575 l 1
 300 125 l 1
 237.5 0 l 1
 100 0 l 1
 100 700 l 1
 150 600 m 1
 150 100 l 1
 212.5 100 l 1
 250 175 l 1
 250 525 l 1
 212.5 600 l 1
 150 600 l 1
EndSplineSet
EndChar

StartChar: L.saa5052
Encoding: 65541 -1 123
Width: 300
Flags: W
LayerCount: 2
Substitution2: "c2sc" l.saa5052.sc
Position2: "palt" dx=-50 dy=0 dh=-50 dv=0
Fore
SplineSet
 100 700 m 1
 150 700 l 1
 150 100 l 1
 300 100 l 1
 300 0 l 1
 100 0 l 1
 100 700 l 1
EndSplineSet
EndChar

StartChar: Aring
Encoding: 197 197 124
Width: 300
Flags: W
LayerCount: 2
Fore
SplineSet
 50 375 m 1
 112.5 500 l 1
 237.5 500 l 1
 300 375 l 1
 300 0 l 1
 250 0 l 1
 250 200 l 1
 100 200 l 1
 100 0 l 1
 50 0 l 1
 50 375 l 1
 137.5 400 m 1
 100 325 l 1
 100 300 l 1
 250 300 l 1
 250 325 l 1
 212.5 400 l 1
 137.5 400 l 1
 150 600 m 1
 150 700 l 1
 200 700 l 1
 200 600 l 1
 150 600 l 1
EndSplineSet
EndChar

StartChar: eacute
Encoding: 233 233 125
Width: 300
Flags: W
LayerCount: 2
Fore
SplineSet
 50 375 m 1
 112.5 500 l 1
 150 500 l 1
 150 575 l 1
 212.5 700 l 1
 250 700 l 1
 250 625 l 1
 200 525 l 1
 200 500 l 1
 237.5 500 l 1
 300 375 l 1
 300 200 l 1
 100 200 l 1
 100 175 l 1
 137.5 100 l 1
 250 100 l 1
 250 0 l 1
 112.5 0 l 1
 50 125 l 1
 50 375 l 1
 137.5 400 m 1
 100 325 l 1
 100 300 l 1
 250 300 l 1
 250 325 l 1
 212.5 400 l 1
 137.5 400 l 1
EndSplineSet
EndChar

StartChar: aring
Encoding: 229 229 126
Width: 300
Flags: W
LayerCount: 2
Fore
SplineSet
 50 125 m 1
 50 175 l 1
 112.5 300 l 1
 250 300 l 1
 250 325 l 1
 212.5 400 l 1
 100 400 l 1
 100 500 l 1
 237.5 500 l 1
 300 375 l 1
 300 0 l 1
 112.5 0 l 1
 50 125 l 1
 137.5 100 m 1
 250 100 l 1
 250 200 l 1
 137.5 200 l 1
 112.5 150 l 1
 137.5 100 l 1
 150 600 m 1
 150 700 l 1
 200 700 l 1
 200 600 l 1
 150 600 l 1
EndSplineSet
EndChar

StartChar: ccedilla
Encoding: 231 231 127
Width: 300
Flags: W
LayerCount: 2
Substitution2: "ss04" ccedilla.saa5054
AlternateSubs2: "aalt" ccedilla.saa5054
Fore
SplineSet
 50 375 m 1
 112.5 500 l 1
 300 500 l 1
 300 400 l 1
 137.5 400 l 1
 100 325 l 1
 100 175 l 1
 137.5 100 l 1
 300 100 l 1
 300 0 l 1
 250 0 l 1
 250 -75 l 1
 187.5 -200 l 1
 150 -200 l 1
 150 -125 l 1
 200 -25 l 1
 200 0 l 1
 112.5 0 l 1
 50 125 l 1
 50 375 l 1
EndSplineSet
EndChar

StartChar: ugrave
Encoding: 249 249 128
Width: 300
Flags: W
LayerCount: 2
Substitution2: "ss04" ugrave.saa5054
AlternateSubs2: "aalt" ugrave.saa5054
Fore
SplineSet
 50 500 m 1
 100 500 l 1
 100 175 l 1
 137.5 100 l 1
 250 100 l 1
 250 500 l 1
 300 500 l 1
 300 0 l 1
 112.5 0 l 1
 50 125 l 1
 50 500 l 1
 100 625 m 1
 100 700 l 1
 137.5 700 l 1
 200 575 l 1
 200 500 l 1
 162.5 500 l 1
 100 625 l 1
EndSplineSet
EndChar

StartChar: agrave
Encoding: 224 224 129
Width: 300
Flags: W
LayerCount: 2
Fore
SplineSet
 50 125 m 1
 50 175 l 1
 112.5 300 l 1
 250 300 l 1
 250 325 l 1
 212.5 400 l 1
 100 400 l 1
 100 500 l 1
 150 500 l 1
 150 525 l 1
 100 625 l 1
 100 700 l 1
 137.5 700 l 1
 200 575 l 1
 200 500 l 1
 237.5 500 l 1
 300 375 l 1
 300 0 l 1
 112.5 0 l 1
 50 125 l 1
 137.5 100 m 1
 250 100 l 1
 250 200 l 1
 137.5 200 l 1
 112.5 150 l 1
 137.5 100 l 1
EndSplineSet
EndChar

StartChar: ograve
Encoding: 242 242 130
Width: 300
Flags: W
LayerCount: 2
Fore
SplineSet
 50 275 m 1
 112.5 400 l 1
 237.5 400 l 1
 300 275 l 1
 300 125 l 1
 237.5 0 l 1
 112.5 0 l 1
 50 125 l 1
 50 275 l 1
 100 625 m 1
 100 700 l 1
 137.5 700 l 1
 200 575 l 1
 200 500 l 1
 162.5 500 l 1
 100 625 l 1
 137.5 300 m 1
 100 225 l 1
 100 175 l 1
 137.5 100 l 1
 212.5 100 l 1
 250 175 l 1
 250 225 l 1
 212.5 300 l 1
 137.5 300 l 1
EndSplineSet
EndChar

StartChar: egrave
Encoding: 232 232 131
Width: 300
Flags: W
LayerCount: 2
Fore
SplineSet
 50 375 m 1
 112.5 500 l 1
 150 500 l 1
 150 525 l 1
 100 625 l 1
 100 700 l 1
 137.5 700 l 1
 200 575 l 1
 200 500 l 1
 237.5 500 l 1
 300 375 l 1
 300 200 l 1
 100 200 l 1
 100 175 l 1
 137.5 100 l 1
 250 100 l 1
 250 0 l 1
 112.5 0 l 1
 50 125 l 1
 50 375 l 1
 137.5 400 m 1
 100 325 l 1
 100 300 l 1
 250 300 l 1
 250 325 l 1
 212.5 400 l 1
 137.5 400 l 1
EndSplineSet
EndChar

StartChar: igrave
Encoding: 236 236 132
Width: 300
Flags: W
LayerCount: 2
Position2: "palt" dx=-50 dy=0 dh=-100 dv=0
Fore
SplineSet
 100 625 m 1
 100 700 l 1
 137.5 700 l 1
 200 575 l 1
 200 500 l 1
 162.5 500 l 1
 100 625 l 1
 100 300 m 1
 100 400 l 1
 200 400 l 1
 200 100 l 1
 250 100 l 1
 250 0 l 1
 100 0 l 1
 100 100 l 1
 150 100 l 1
 150 300 l 1
 100 300 l 1
EndSplineSet
EndChar

StartChar: idieresis
Encoding: 239 239 133
Width: 300
Flags: W
LayerCount: 2
Position2: "palt" dx=-50 dy=0 dh=-100 dv=0
Fore
SplineSet
 100 600 m 1
 100 700 l 1
 150 700 l 1
 150 600 l 1
 100 600 l 1
 100 400 m 1
 100 500 l 1
 200 500 l 1
 200 100 l 1
 250 100 l 1
 250 0 l 1
 100 0 l 1
 100 100 l 1
 150 100 l 1
 150 400 l 1
 100 400 l 1
 200 600 m 1
 200 700 l 1
 250 700 l 1
 250 600 l 1
 200 600 l 1
EndSplineSet
EndChar

StartChar: edieresis
Encoding: 235 235 134
Width: 300
Flags: W
LayerCount: 2
Fore
SplineSet
 50 375 m 1
 112.5 500 l 1
 237.5 500 l 1
 300 375 l 1
 300 200 l 1
 100 200 l 1
 100 175 l 1
 137.5 100 l 1
 250 100 l 1
 250 0 l 1
 112.5 0 l 1
 50 125 l 1
 50 375 l 1
 100 600 m 1
 100 700 l 1
 150 700 l 1
 150 600 l 1
 100 600 l 1
 137.5 400 m 1
 100 325 l 1
 100 300 l 1
 250 300 l 1
 250 325 l 1
 212.5 400 l 1
 137.5 400 l 1
 200 600 m 1
 200 700 l 1
 250 700 l 1
 250 600 l 1
 200 600 l 1
EndSplineSet
EndChar

StartChar: ecircumflex
Encoding: 234 234 135
Width: 300
Flags: W
LayerCount: 2
Fore
SplineSet
 100 475 m 1
 100 575 l 1
 162.5 700 l 1
 187.5 700 l 1
 250 575 l 1
 250 475 l 1
 300 375 l 1
 300 200 l 1
 100 200 l 1
 100 175 l 1
 137.5 100 l 1
 250 100 l 1
 250 0 l 1
 112.5 0 l 1
 50 125 l 1
 50 375 l 1
 100 475 l 1
 137.5 400 m 1
 100 325 l 1
 100 300 l 1
 250 300 l 1
 250 325 l 1
 212.5 400 l 1
 137.5 400 l 1
 150 525 m 1
 150 500 l 1
 200 500 l 1
 200 525 l 1
 175 575 l 1
 150 525 l 1
EndSplineSet
EndChar

StartChar: ugrave.saa5054
Encoding: 65542 -1 136
Width: 300
Flags: W
LayerCount: 2
Fore
SplineSet
 50 500 m 1
 100 500 l 1
 100 175 l 1
 137.5 100 l 1
 250 100 l 1
 250 425 l 1
 150 625 l 1
 150 700 l 1
 187.5 700 l 1
 300 475 l 1
 300 0 l 1
 112.5 0 l 1
 50 125 l 1
 50 500 l 1
EndSplineSet
EndChar

StartChar: icircumflex
Encoding: 238 238 137
Width: 300
Flags: W
LayerCount: 2
Position2: "palt" dx=-50 dy=0 dh=-100 dv=0
Fore
SplineSet
 100 500 m 1
 100 575 l 1
 162.5 700 l 1
 187.5 700 l 1
 250 575 l 1
 250 500 l 1
 212.5 500 l 1
 175 575 l 1
 137.5 500 l 1
 100 500 l 1
 100 300 m 1
 100 400 l 1
 200 400 l 1
 200 100 l 1
 250 100 l 1
 250 0 l 1
 100 0 l 1
 100 100 l 1
 150 100 l 1
 150 300 l 1
 100 300 l 1
EndSplineSet
EndChar

StartChar: acircumflex
Encoding: 226 226 138
Width: 300
Flags: W
LayerCount: 2
Fore
SplineSet
 50 125 m 1
 50 175 l 1
 112.5 300 l 1
 250 300 l 1
 250 325 l 1
 212.5 400 l 1
 100 400 l 1
 100 575 l 1
 162.5 700 l 1
 187.5 700 l 1
 250 575 l 1
 250 475 l 1
 300 375 l 1
 300 0 l 1
 112.5 0 l 1
 50 125 l 1
 137.5 100 m 1
 250 100 l 1
 250 200 l 1
 137.5 200 l 1
 112.5 150 l 1
 137.5 100 l 1
 150 525 m 1
 150 500 l 1
 200 500 l 1
 200 525 l 1
 175 575 l 1
 150 525 l 1
EndSplineSet
EndChar

StartChar: ocircumflex.saa5054
Encoding: 65543 -1 139
Width: 300
Flags: W
LayerCount: 2
Fore
SplineSet
 100 475 m 1
 100 575 l 1
 162.5 700 l 1
 187.5 700 l 1
 250 575 l 1
 250 475 l 1
 300 375 l 1
 300 125 l 1
 237.5 0 l 1
 112.5 0 l 1
 50 125 l 1
 50 375 l 1
 100 475 l 1
 137.5 400 m 1
 100 325 l 1
 100 175 l 1
 137.5 100 l 1
 212.5 100 l 1
 250 175 l 1
 250 325 l 1
 212.5 400 l 1
 137.5 400 l 1
 150 525 m 1
 150 500 l 1
 200 500 l 1
 200 525 l 1
 175 575 l 1
 150 525 l 1
EndSplineSet
EndChar

StartChar: ucircumflex
Encoding: 251 251 140
Width: 300
Flags: W
LayerCount: 2
Fore
SplineSet
 50 400 m 1
 100 400 l 1
 100 175 l 1
 137.5 100 l 1
 250 100 l 1
 250 400 l 1
 300 400 l 1
 300 0 l 1
 112.5 0 l 1
 50 125 l 1
 50 400 l 1
 100 500 m 1
 100 575 l 1
 162.5 700 l 1
 187.5 700 l 1
 250 575 l 1
 250 500 l 1
 212.5 500 l 1
 175 575 l 1
 137.5 500 l 1
 100 500 l 1
EndSplineSet
EndChar

StartChar: ccedilla.saa5054
Encoding: 65544 -1 141
Width: 300
Flags: W
LayerCount: 2
Fore
SplineSet
 50 375 m 1
 112.5 500 l 1
 300 500 l 1
 300 400 l 1
 137.5 400 l 1
 100 325 l 1
 100 175 l 1
 137.5 100 l 1
 300 100 l 1
 300 0 l 1
 250 0 l 1
 250 -200 l 1
 150 -200 l 1
 150 -100 l 1
 200 -100 l 1
 200 0 l 1
 112.5 0 l 1
 50 125 l 1
 50 375 l 1
EndSplineSet
EndChar

StartChar: uni05D0
Encoding: 1488 1488 142
Width: 300
Flags: W
LayerCount: 2
Fore
SplineSet
 50 525 m 1
 50 600 l 1
 87.5 600 l 1
 225 325 l 1
 250 375 l 1
 250 600 l 1
 300 600 l 1
 300 325 l 1
 262.5 250 l 1
 300 175 l 1
 300 0 l 1
 250 0 l 1
 250 125 l 1
 125 375 l 1
 100 325 l 1
 100 0 l 1
 50 0 l 1
 50 375 l 1
 87.5 450 l 1
 50 525 l 1
EndSplineSet
EndChar

StartChar: uni05D1
Encoding: 1489 1489 143
Width: 300
Flags: W
LayerCount: 2
Fore
SplineSet
 50 0 m 1
 50 100 l 1
 200 100 l 1
 200 500 l 1
 100 500 l 1
 100 600 l 1
 250 600 l 1
 250 100 l 1
 300 100 l 1
 300 0 l 1
 50 0 l 1
EndSplineSet
EndChar

StartChar: uni05D2
Encoding: 1490 1490 144
Width: 300
Flags: W
LayerCount: 2
Position2: "palt" dx=-50 dy=0 dh=-50 dv=0
Fore
SplineSet
 100 0 m 1
 100 75 l 1
 212.5 300 l 1
 250 300 l 1
 250 500 l 1
 200 500 l 1
 200 600 l 1
 300 600 l 1
 300 0 l 1
 250 0 l 1
 250 200 l 1
 237.5 200 l 1
 137.5 0 l 1
 100 0 l 1
EndSplineSet
EndChar

StartChar: uni05D3
Encoding: 1491 1491 145
Width: 300
Flags: W
LayerCount: 2
Fore
SplineSet
 50 500 m 1
 50 600 l 1
 300 600 l 1
 300 500 l 1
 250 500 l 1
 250 0 l 1
 200 0 l 1
 200 500 l 1
 50 500 l 1
EndSplineSet
EndChar

StartChar: uni05D4
Encoding: 1492 1492 146
Width: 300
Flags: W
LayerCount: 2
Fore
SplineSet
 50 500 m 1
 50 600 l 1
 300 600 l 1
 300 0 l 1
 250 0 l 1
 250 500 l 1
 50 500 l 1
 50 300 m 1
 100 300 l 1
 100 0 l 1
 50 0 l 1
 50 300 l 1
EndSplineSet
EndChar

StartChar: uni05D5
Encoding: 1493 1493 147
Width: 300
Flags: W
LayerCount: 2
Position2: "palt" dx=-50 dy=0 dh=-150 dv=0
Fore
SplineSet
 100 500 m 1
 100 600 l 1
 200 600 l 1
 200 0 l 1
 150 0 l 1
 150 500 l 1
 100 500 l 1
EndSplineSet
EndChar

StartChar: uni05D6
Encoding: 1494 1494 148
Width: 300
Flags: W
LayerCount: 2
Position2: "palt" dx=-50 dy=0 dh=-100 dv=0
Fore
SplineSet
 100 500 m 1
 100 600 l 1
 250 600 l 1
 250 500 l 1
 200 500 l 1
 200 425 l 1
 162.5 350 l 1
 200 275 l 1
 200 0 l 1
 150 0 l 1
 150 225 l 1
 100 325 l 1
 100 375 l 1
 150 475 l 1
 150 500 l 1
 100 500 l 1
EndSplineSet
EndChar

StartChar: uni05D7
Encoding: 1495 1495 149
Width: 300
Flags: W
LayerCount: 2
Fore
SplineSet
 50 600 m 1
 300 600 l 1
 300 0 l 1
 250 0 l 1
 250 500 l 1
 100 500 l 1
 100 0 l 1
 50 0 l 1
 50 600 l 1
EndSplineSet
EndChar

StartChar: uni05D8
Encoding: 1496 1496 150
Width: 300
Flags: W
LayerCount: 2
Fore
SplineSet
 50 600 m 1
 100 600 l 1
 100 100 l 1
 250 100 l 1
 250 400 l 1
 237.5 400 l 1
 187.5 300 l 1
 150 300 l 1
 150 375 l 1
 212.5 500 l 1
 250 500 l 1
 250 600 l 1
 300 600 l 1
 300 0 l 1
 50 0 l 1
 50 600 l 1
EndSplineSet
EndChar

StartChar: uni05D9
Encoding: 1497 1497 151
Width: 300
Flags: W
LayerCount: 2
Position2: "palt" dx=-50 dy=0 dh=-150 dv=0
Fore
SplineSet
 100 500 m 1
 100 600 l 1
 200 600 l 1
 200 400 l 1
 150 400 l 1
 150 500 l 1
 100 500 l 1
EndSplineSet
EndChar

StartChar: uni05DA
Encoding: 1498 1498 152
Width: 300
Flags: W
LayerCount: 2
Fore
SplineSet
 50 500 m 1
 50 600 l 1
 300 600 l 1
 300 -100 l 1
 250 -100 l 1
 250 500 l 1
 50 500 l 1
EndSplineSet
EndChar

StartChar: uni05DB
Encoding: 1499 1499 153
Width: 300
Flags: W
LayerCount: 2
Fore
SplineSet
 50 500 m 1
 50 600 l 1
 300 600 l 1
 300 0 l 1
 50 0 l 1
 50 100 l 1
 250 100 l 1
 250 500 l 1
 50 500 l 1
EndSplineSet
EndChar

StartChar: uni05DC
Encoding: 1500 1500 154
Width: 300
Flags: W
LayerCount: 2
Fore
SplineSet
 50 700 m 1
 100 700 l 1
 100 600 l 1
 300 600 l 1
 300 225 l 1
 187.5 0 l 1
 100 0 l 1
 100 100 l 1
 162.5 100 l 1
 250 275 l 1
 250 500 l 1
 50 500 l 1
 50 700 l 1
EndSplineSet
EndChar

StartChar: uni05DD
Encoding: 1501 1501 155
Width: 300
Flags: W
LayerCount: 2
Fore
SplineSet
 50 600 m 1
 300 600 l 1
 300 0 l 1
 50 0 l 1
 50 600 l 1
 100 500 m 1
 100 100 l 1
 250 100 l 1
 250 500 l 1
 100 500 l 1
EndSplineSet
EndChar

StartChar: uni05DE
Encoding: 1502 1502 156
Width: 300
Flags: W
LayerCount: 2
Fore
SplineSet
 50 525 m 1
 50 600 l 1
 87.5 600 l 1
 125 525 l 1
 162.5 600 l 1
 237.5 600 l 1
 300 475 l 1
 300 0 l 1
 150 0 l 1
 150 100 l 1
 250 100 l 1
 250 425 l 1
 212.5 500 l 1
 187.5 500 l 1
 100 325 l 1
 100 0 l 1
 50 0 l 1
 50 375 l 1
 87.5 450 l 1
 50 525 l 1
EndSplineSet
EndChar

StartChar: uni05DF
Encoding: 1503 1503 157
Width: 300
Flags: W
LayerCount: 2
Position2: "palt" dx=-50 dy=0 dh=-150 dv=0
Fore
SplineSet
 100 500 m 1
 100 600 l 1
 200 600 l 1
 200 -200 l 1
 150 -200 l 1
 150 500 l 1
 100 500 l 1
EndSplineSet
EndChar

StartChar: uni05E0
Encoding: 1504 1504 158
Width: 300
Flags: W
LayerCount: 2
Position2: "palt" dx=-50 dy=0 dh=-100 dv=0
Fore
SplineSet
 100 0 m 1
 100 100 l 1
 200 100 l 1
 200 500 l 1
 150 500 l 1
 150 600 l 1
 250 600 l 1
 250 0 l 1
 100 0 l 1
EndSplineSet
EndChar

StartChar: uni05E1
Encoding: 1505 1505 159
Width: 300
Flags: W
LayerCount: 2
Fore
SplineSet
 50 500 m 1
 50 600 l 1
 300 600 l 1
 300 125 l 1
 237.5 0 l 1
 112.5 0 l 1
 50 125 l 1
 50 375 l 1
 100 475 l 1
 100 500 l 1
 50 500 l 1
 150 500 m 1
 150 425 l 1
 100 325 l 1
 100 175 l 1
 137.5 100 l 1
 212.5 100 l 1
 250 175 l 1
 250 500 l 1
 150 500 l 1
EndSplineSet
EndChar

StartChar: uni05E2
Encoding: 1506 1506 160
Width: 300
Flags: W
LayerCount: 2
Fore
SplineSet
 50 0 m 1
 50 100 l 1
 100 100 l 1
 100 600 l 1
 150 600 l 1
 150 100 l 1
 162.5 100 l 1
 250 275 l 1
 250 600 l 1
 300 600 l 1
 300 225 l 1
 187.5 0 l 1
 50 0 l 1
EndSplineSet
EndChar

StartChar: uni05E3
Encoding: 1507 1507 161
Width: 300
Flags: W
LayerCount: 2
Fore
SplineSet
 50 500 m 1
 50 600 l 1
 300 600 l 1
 300 -100 l 1
 250 -100 l 1
 250 500 l 1
 150 500 l 1
 150 400 l 1
 200 400 l 1
 200 300 l 1
 100 300 l 1
 100 500 l 1
 50 500 l 1
EndSplineSet
EndChar

StartChar: uni05E4
Encoding: 1508 1508 162
Width: 300
Flags: W
LayerCount: 2
Fore
SplineSet
 50 500 m 1
 50 600 l 1
 300 600 l 1
 300 0 l 1
 50 0 l 1
 50 100 l 1
 250 100 l 1
 250 500 l 1
 150 500 l 1
 150 400 l 1
 200 400 l 1
 200 300 l 1
 100 300 l 1
 100 500 l 1
 50 500 l 1
EndSplineSet
EndChar

StartChar: uni05E5
Encoding: 1509 1509 163
Width: 300
Flags: W
LayerCount: 2
Fore
SplineSet
 50 500 m 1
 50 600 l 1
 150 600 l 1
 150 400 l 1
 162.5 400 l 1
 262.5 600 l 1
 300 600 l 1
 300 525 l 1
 187.5 300 l 1
 150 300 l 1
 150 -100 l 1
 100 -100 l 1
 100 500 l 1
 50 500 l 1
EndSplineSet
EndChar

StartChar: uni05E6
Encoding: 1510 1510 164
Width: 300
Flags: W
LayerCount: 2
Fore
SplineSet
 50 600 m 1
 100 600 l 1
 100 475 l 1
 175 325 l 1
 250 475 l 1
 250 600 l 1
 300 600 l 1
 300 425 l 1
 212.5 250 l 1
 250 175 l 1
 250 100 l 1
 300 100 l 1
 300 0 l 1
 50 0 l 1
 50 100 l 1
 200 100 l 1
 200 125 l 1
 50 425 l 1
 50 600 l 1
EndSplineSet
EndChar

StartChar: uni05E7
Encoding: 1511 1511 165
Width: 300
Flags: W
LayerCount: 2
Fore
SplineSet
 50 500 m 1
 50 600 l 1
 300 600 l 1
 300 225 l 1
 237.5 100 l 1
 200 100 l 1
 200 175 l 1
 250 275 l 1
 250 500 l 1
 50 500 l 1
 100 400 m 1
 150 400 l 1
 150 -100 l 1
 100 -100 l 1
 100 400 l 1
EndSplineSet
EndChar

StartChar: uni05E8
Encoding: 1512 1512 166
Width: 300
Flags: W
LayerCount: 2
Fore
SplineSet
 50 500 m 1
 50 600 l 1
 300 600 l 1
 300 0 l 1
 250 0 l 1
 250 500 l 1
 50 500 l 1
EndSplineSet
EndChar

StartChar: uni05E9
Encoding: 1513 1513 167
Width: 300
Flags: W
LayerCount: 2
Fore
SplineSet
 50 600 m 1
 100 600 l 1
 100 300 l 1
 112.5 300 l 1
 150 375 l 1
 150 600 l 1
 200 600 l 1
 200 325 l 1
 137.5 200 l 1
 100 200 l 1
 100 100 l 1
 212.5 100 l 1
 250 175 l 1
 250 600 l 1
 300 600 l 1
 300 125 l 1
 237.5 0 l 1
 50 0 l 1
 50 600 l 1
EndSplineSet
EndChar

StartChar: uni05EA
Encoding: 1514 1514 168
Width: 300
Flags: W
LayerCount: 2
Fore
SplineSet
 50 0 m 1
 50 100 l 1
 100 100 l 1
 100 600 l 1
 300 600 l 1
 300 0 l 1
 250 0 l 1
 250 500 l 1
 150 500 l 1
 150 0 l 1
 50 0 l 1
EndSplineSet
EndChar

StartChar: oldsheqel
Encoding: 65545 -1 169
Width: 300
Flags: W
LayerCount: 2
Fore
SplineSet
 50 500 m 1
 100 500 l 1
 100 375 l 1
 137.5 300 l 1
 150 300 l 1
 150 500 l 1
 200 500 l 1
 200 300 l 1
 212.5 300 l 1
 250 375 l 1
 250 500 l 1
 300 500 l 1
 300 325 l 1
 237.5 200 l 1
 112.5 200 l 1
 50 325 l 1
 50 500 l 1
EndSplineSet
EndChar

StartChar: uni044B
Encoding: 1099 1099 170
Width: 300
Flags: W
LayerCount: 2
Fore
SplineSet
 50 500 m 1
 100 500 l 1
 100 300 l 1
 200 300 l 1
 200 0 l 1
 50 0 l 1
 50 500 l 1
 100 200 m 1
 100 100 l 1
 150 100 l 1
 150 200 l 1
 100 200 l 1
 250 500 m 1
 300 500 l 1
 300 0 l 1
 250 0 l 1
 250 500 l 1
EndSplineSet
EndChar

StartChar: uni042E
Encoding: 1070 1070 171
Width: 300
Flags: W
LayerCount: 2
Fore
SplineSet
 50 700 m 1
 100 700 l 1
 100 400 l 1
 150 400 l 1
 150 575 l 1
 212.5 700 l 1
 237.5 700 l 1
 300 575 l 1
 300 125 l 1
 237.5 0 l 1
 212.5 0 l 1
 150 125 l 1
 150 300 l 1
 100 300 l 1
 100 0 l 1
 50 0 l 1
 50 700 l 1
 200 525 m 1
 200 175 l 1
 225 125 l 1
 250 175 l 1
 250 525 l 1
 225 575 l 1
 200 525 l 1
EndSplineSet
EndChar

StartChar: uni0410
Encoding: 1040 1040 172
Width: 300
Flags: W
LayerCount: 2
Fore
SplineSet
 50 575 m 1
 112.5 700 l 1
 237.5 700 l 1
 300 575 l 1
 300 0 l 1
 250 0 l 1
 250 200 l 1
 100 200 l 1
 100 0 l 1
 50 0 l 1
 50 575 l 1
 137.5 600 m 1
 100 525 l 1
 100 300 l 1
 250 300 l 1
 250 525 l 1
 212.5 600 l 1
 137.5 600 l 1
EndSplineSet
EndChar

StartChar: uni0411
Encoding: 1041 1041 173
Width: 300
Flags: W
LayerCount: 2
Fore
SplineSet
 50 700 m 1
 300 700 l 1
 300 600 l 1
 100 600 l 1
 100 400 l 1
 300 400 l 1
 300 0 l 1
 50 0 l 1
 50 700 l 1
 100 300 m 1
 100 100 l 1
 250 100 l 1
 250 300 l 1
 100 300 l 1
EndSplineSet
EndChar

StartChar: uni0426
Encoding: 1062 1062 174
Width: 300
Flags: W
LayerCount: 2
Fore
SplineSet
 50 700 m 1
 100 700 l 1
 100 100 l 1
 200 100 l 1
 200 700 l 1
 250 700 l 1
 250 100 l 1
 300 100 l 1
 300 -100 l 1
 250 -100 l 1
 250 0 l 1
 50 0 l 1
 50 700 l 1
EndSplineSet
EndChar

StartChar: uni0414
Encoding: 1044 1044 175
Width: 300
Flags: W
LayerCount: 2
Fore
SplineSet
 50 100 m 1
 100 100 l 1
 100 575 l 1
 162.5 700 l 1
 250 700 l 1
 250 100 l 1
 300 100 l 1
 300 -100 l 1
 250 -100 l 1
 250 0 l 1
 100 0 l 1
 100 -100 l 1
 50 -100 l 1
 50 100 l 1
 150 100 m 1
 200 100 l 1
 200 600 l 1
 187.5 600 l 1
 150 525 l 1
 150 100 l 1
EndSplineSet
EndChar

StartChar: uni0415
Encoding: 1045 1045 176
Width: 300
Flags: W
LayerCount: 2
Fore
SplineSet
 50 700 m 1
 300 700 l 1
 300 600 l 1
 100 600 l 1
 100 400 l 1
 250 400 l 1
 250 300 l 1
 100 300 l 1
 100 100 l 1
 300 100 l 1
 300 0 l 1
 50 0 l 1
 50 700 l 1
EndSplineSet
EndChar

StartChar: uni0424
Encoding: 1060 1060 177
Width: 300
Flags: W
LayerCount: 2
Fore
SplineSet
 50 600 m 1
 150 600 l 1
 150 700 l 1
 200 700 l 1
 200 600 l 1
 300 600 l 1
 300 100 l 1
 200 100 l 1
 200 0 l 1
 150 0 l 1
 150 100 l 1
 50 100 l 1
 50 600 l 1
 100 500 m 1
 100 200 l 1
 150 200 l 1
 150 500 l 1
 100 500 l 1
 200 500 m 1
 200 200 l 1
 250 200 l 1
 250 500 l 1
 200 500 l 1
EndSplineSet
EndChar

StartChar: uni0413
Encoding: 1043 1043 178
Width: 300
Flags: W
LayerCount: 2
Fore
SplineSet
 50 700 m 1
 300 700 l 1
 300 600 l 1
 100 600 l 1
 100 0 l 1
 50 0 l 1
 50 700 l 1
EndSplineSet
EndChar

StartChar: uni0425
Encoding: 1061 1061 179
Width: 300
Flags: W
LayerCount: 2
Fore
SplineSet
 50 700 m 1
 100 700 l 1
 100 575 l 1
 175 425 l 1
 250 575 l 1
 250 700 l 1
 300 700 l 1
 300 525 l 1
 212.5 350 l 1
 300 175 l 1
 300 0 l 1
 250 0 l 1
 250 125 l 1
 175 275 l 1
 100 125 l 1
 100 0 l 1
 50 0 l 1
 50 175 l 1
 137.5 350 l 1
 50 525 l 1
 50 700 l 1
EndSplineSet
EndChar

StartChar: uni0418
Encoding: 1048 1048 180
Width: 300
Flags: W
LayerCount: 2
Fore
SplineSet
 50 700 m 1
 100 700 l 1
 100 300 l 1
 112.5 300 l 1
 212.5 500 l 1
 250 500 l 1
 250 700 l 1
 300 700 l 1
 300 0 l 1
 250 0 l 1
 250 400 l 1
 237.5 400 l 1
 137.5 200 l 1
 100 200 l 1
 100 0 l 1
 50 0 l 1
 50 700 l 1
EndSplineSet
EndChar

StartChar: uni0419
Encoding: 1049 1049 181
Width: 300
Flags: W
LayerCount: 2
Fore
SplineSet
 50 700 m 1
 100 700 l 1
 100 300 l 1
 112.5 300 l 1
 212.5 500 l 1
 250 500 l 1
 250 700 l 1
 300 700 l 1
 300 0 l 1
 250 0 l 1
 250 400 l 1
 237.5 400 l 1
 137.5 200 l 1
 100 200 l 1
 100 0 l 1
 50 0 l 1
 50 700 l 1
 150 600 m 1
 150 700 l 1
 200 700 l 1
 200 600 l 1
 150 600 l 1
EndSplineSet
EndChar

StartChar: uni041A
Encoding: 1050 1050 182
Width: 300
Flags: W
LayerCount: 2
Fore
SplineSet
 50 700 m 1
 100 700 l 1
 100 400 l 1
 112.5 400 l 1
 262.5 700 l 1
 300 700 l 1
 300 625 l 1
 162.5 350 l 1
 300 75 l 1
 300 0 l 1
 262.5 0 l 1
 112.5 300 l 1
 100 300 l 1
 100 0 l 1
 50 0 l 1
 50 700 l 1
EndSplineSet
EndChar

StartChar: uni041B
Encoding: 1051 1051 183
Width: 300
Flags: W
LayerCount: 2
Fore
SplineSet
 50 0 m 1
 50 100 l 1
 100 100 l 1
 100 575 l 1
 162.5 700 l 1
 300 700 l 1
 300 0 l 1
 250 0 l 1
 250 600 l 1
 187.5 600 l 1
 150 525 l 1
 150 0 l 1
 50 0 l 1
EndSplineSet
EndChar

StartChar: uni041C
Encoding: 1052 1052 184
Width: 300
Flags: W
LayerCount: 2
Fore
SplineSet
 50 700 m 1
 100 700 l 1
 100 600 l 1
 137.5 600 l 1
 175 525 l 1
 212.5 600 l 1
 250 600 l 1
 250 700 l 1
 300 700 l 1
 300 0 l 1
 250 0 l 1
 250 500 l 1
 237.5 500 l 1
 200 425 l 1
 200 300 l 1
 150 300 l 1
 150 425 l 1
 112.5 500 l 1
 100 500 l 1
 100 0 l 1
 50 0 l 1
 50 700 l 1
EndSplineSet
EndChar

StartChar: uni041D
Encoding: 1053 1053 185
Width: 300
Flags: W
LayerCount: 2
Fore
SplineSet
 50 700 m 1
 100 700 l 1
 100 400 l 1
 250 400 l 1
 250 700 l 1
 300 700 l 1
 300 0 l 1
 250 0 l 1
 250 300 l 1
 100 300 l 1
 100 0 l 1
 50 0 l 1
 50 700 l 1
EndSplineSet
EndChar

StartChar: uni041E
Encoding: 1054 1054 186
Width: 300
Flags: W
LayerCount: 2
Fore
SplineSet
 50 575 m 1
 112.5 700 l 1
 237.5 700 l 1
 300 575 l 1
 300 125 l 1
 237.5 0 l 1
 112.5 0 l 1
 50 125 l 1
 50 575 l 1
 137.5 600 m 1
 100 525 l 1
 100 175 l 1
 137.5 100 l 1
 212.5 100 l 1
 250 175 l 1
 250 525 l 1
 212.5 600 l 1
 137.5 600 l 1
EndSplineSet
EndChar

StartChar: uni041F
Encoding: 1055 1055 187
Width: 300
Flags: W
LayerCount: 2
Fore
SplineSet
 50 700 m 1
 300 700 l 1
 300 0 l 1
 250 0 l 1
 250 600 l 1
 100 600 l 1
 100 0 l 1
 50 0 l 1
 50 700 l 1
EndSplineSet
EndChar

StartChar: uni042F
Encoding: 1071 1071 188
Width: 300
Flags: W
LayerCount: 2
Fore
SplineSet
 50 575 m 1
 112.5 700 l 1
 300 700 l 1
 300 0 l 1
 250 0 l 1
 250 300 l 1
 200 300 l 1
 200 225 l 1
 87.5 0 l 1
 50 0 l 1
 50 75 l 1
 150 275 l 1
 150 300 l 1
 112.5 300 l 1
 50 425 l 1
 50 575 l 1
 137.5 600 m 1
 100 525 l 1
 100 475 l 1
 137.5 400 l 1
 250 400 l 1
 250 600 l 1
 137.5 600 l 1
EndSplineSet
EndChar

StartChar: uni0420
Encoding: 1056 1056 189
Width: 300
Flags: W
LayerCount: 2
Fore
SplineSet
 50 700 m 1
 237.5 700 l 1
 300 575 l 1
 300 425 l 1
 237.5 300 l 1
 100 300 l 1
 100 0 l 1
 50 0 l 1
 50 700 l 1
 100 600 m 1
 100 400 l 1
 212.5 400 l 1
 250 475 l 1
 250 525 l 1
 212.5 600 l 1
 100 600 l 1
EndSplineSet
EndChar

StartChar: uni0421
Encoding: 1057 1057 190
Width: 300
Flags: W
LayerCount: 2
Fore
SplineSet
 50 575 m 1
 112.5 700 l 1
 237.5 700 l 1
 300 575 l 1
 300 500 l 1
 262.5 500 l 1
 212.5 600 l 1
 137.5 600 l 1
 100 525 l 1
 100 175 l 1
 137.5 100 l 1
 212.5 100 l 1
 262.5 200 l 1
 300 200 l 1
 300 125 l 1
 237.5 0 l 1
 112.5 0 l 1
 50 125 l 1
 50 575 l 1
EndSplineSet
EndChar

StartChar: uni0422
Encoding: 1058 1058 191
Width: 300
Flags: W
LayerCount: 2
Fore
SplineSet
 50 600 m 1
 50 700 l 1
 300 700 l 1
 300 600 l 1
 200 600 l 1
 200 0 l 1
 150 0 l 1
 150 600 l 1
 50 600 l 1
EndSplineSet
EndChar

StartChar: uni0423
Encoding: 1059 1059 192
Width: 300
Flags: W
LayerCount: 2
Fore
SplineSet
 50 700 m 1
 100 700 l 1
 100 400 l 1
 250 400 l 1
 250 700 l 1
 300 700 l 1
 300 0 l 1
 50 0 l 1
 50 100 l 1
 250 100 l 1
 250 300 l 1
 50 300 l 1
 50 700 l 1
EndSplineSet
EndChar

StartChar: uni0416
Encoding: 1046 1046 193
Width: 300
Flags: W
LayerCount: 2
Fore
SplineSet
 50 700 m 1
 100 700 l 1
 100 475 l 1
 137.5 400 l 1
 150 400 l 1
 150 700 l 1
 200 700 l 1
 200 400 l 1
 212.5 400 l 1
 250 475 l 1
 250 700 l 1
 300 700 l 1
 300 425 l 1
 262.5 350 l 1
 300 275 l 1
 300 0 l 1
 250 0 l 1
 250 225 l 1
 212.5 300 l 1
 200 300 l 1
 200 0 l 1
 150 0 l 1
 150 300 l 1
 137.5 300 l 1
 100 225 l 1
 100 0 l 1
 50 0 l 1
 50 275 l 1
 87.5 350 l 1
 50 425 l 1
 50 700 l 1
EndSplineSet
EndChar

StartChar: uni0412
Encoding: 1042 1042 194
Width: 300
Flags: W
LayerCount: 2
Fore
SplineSet
 50 700 m 1
 237.5 700 l 1
 300 575 l 1
 300 425 l 1
 262.5 350 l 1
 300 275 l 1
 300 125 l 1
 237.5 0 l 1
 50 0 l 1
 50 700 l 1
 100 600 m 1
 100 400 l 1
 212.5 400 l 1
 250 475 l 1
 250 525 l 1
 212.5 600 l 1
 100 600 l 1
 100 300 m 1
 100 100 l 1
 212.5 100 l 1
 250 175 l 1
 250 225 l 1
 212.5 300 l 1
 100 300 l 1
EndSplineSet
EndChar

StartChar: uni042C
Encoding: 1068 1068 195
Width: 300
Flags: W
LayerCount: 2
Fore
SplineSet
 50 700 m 1
 100 700 l 1
 100 400 l 1
 300 400 l 1
 300 0 l 1
 50 0 l 1
 50 700 l 1
 100 300 m 1
 100 100 l 1
 250 100 l 1
 250 300 l 1
 100 300 l 1
EndSplineSet
EndChar

StartChar: uni042A
Encoding: 1066 1066 196
Width: 300
Flags: W
LayerCount: 2
Fore
SplineSet
 50 600 m 1
 50 700 l 1
 150 700 l 1
 150 400 l 1
 300 400 l 1
 300 0 l 1
 100 0 l 1
 100 600 l 1
 50 600 l 1
 150 300 m 1
 150 100 l 1
 250 100 l 1
 250 300 l 1
 150 300 l 1
EndSplineSet
EndChar

StartChar: uni0417
Encoding: 1047 1047 197
Width: 300
Flags: W
LayerCount: 2
Fore
SplineSet
 50 500 m 1
 50 575 l 1
 112.5 700 l 1
 237.5 700 l 1
 300 575 l 1
 300 425 l 1
 262.5 350 l 1
 300 275 l 1
 300 125 l 1
 237.5 0 l 1
 112.5 0 l 1
 50 125 l 1
 50 200 l 1
 87.5 200 l 1
 137.5 100 l 1
 212.5 100 l 1
 250 175 l 1
 250 225 l 1
 212.5 300 l 1
 150 300 l 1
 150 400 l 1
 212.5 400 l 1
 250 475 l 1
 250 525 l 1
 212.5 600 l 1
 137.5 600 l 1
 87.5 500 l 1
 50 500 l 1
EndSplineSet
EndChar

StartChar: uni0428
Encoding: 1064 1064 198
Width: 300
Flags: W
LayerCount: 2
Fore
SplineSet
 50 700 m 1
 100 700 l 1
 100 100 l 1
 150 100 l 1
 150 700 l 1
 200 700 l 1
 200 100 l 1
 250 100 l 1
 250 700 l 1
 300 700 l 1
 300 0 l 1
 50 0 l 1
 50 700 l 1
EndSplineSet
EndChar

StartChar: uni042D
Encoding: 1069 1069 199
Width: 300
Flags: W
LayerCount: 2
Fore
SplineSet
 50 500 m 1
 50 575 l 1
 112.5 700 l 1
 187.5 700 l 1
 300 475 l 1
 300 225 l 1
 187.5 0 l 1
 112.5 0 l 1
 50 125 l 1
 50 200 l 1
 87.5 200 l 1
 137.5 100 l 1
 162.5 100 l 1
 250 275 l 1
 250 300 l 1
 150 300 l 1
 150 400 l 1
 250 400 l 1
 250 425 l 1
 162.5 600 l 1
 137.5 600 l 1
 87.5 500 l 1
 50 500 l 1
EndSplineSet
EndChar

StartChar: uni0429
Encoding: 1065 1065 200
Width: 300
Flags: W
LayerCount: 2
Fore
SplineSet
 50 700 m 1
 100 700 l 1
 100 100 l 1
 150 100 l 1
 150 700 l 1
 200 700 l 1
 200 100 l 1
 250 100 l 1
 250 700 l 1
 300 700 l 1
 300 -100 l 1
 250 -100 l 1
 250 0 l 1
 50 0 l 1
 50 700 l 1
EndSplineSet
EndChar

StartChar: uni0427
Encoding: 1063 1063 201
Width: 300
Flags: W
LayerCount: 2
Fore
SplineSet
 50 700 m 1
 100 700 l 1
 100 400 l 1
 250 400 l 1
 250 700 l 1
 300 700 l 1
 300 0 l 1
 250 0 l 1
 250 300 l 1
 50 300 l 1
 50 700 l 1
EndSplineSet
EndChar

StartChar: uni042B
Encoding: 1067 1067 202
Width: 300
Flags: W
LayerCount: 2
Fore
SplineSet
 50 700 m 1
 100 700 l 1
 100 400 l 1
 200 400 l 1
 200 0 l 1
 50 0 l 1
 50 700 l 1
 100 300 m 1
 100 100 l 1
 150 100 l 1
 150 300 l 1
 100 300 l 1
 250 700 m 1
 300 700 l 1
 300 0 l 1
 250 0 l 1
 250 700 l 1
EndSplineSet
EndChar

StartChar: uni044E
Encoding: 1102 1102 203
Width: 300
Flags: W
LayerCount: 2
Fore
SplineSet
 50 500 m 1
 100 500 l 1
 100 300 l 1
 150 300 l 1
 150 375 l 1
 212.5 500 l 1
 237.5 500 l 1
 300 375 l 1
 300 125 l 1
 237.5 0 l 1
 212.5 0 l 1
 150 125 l 1
 150 200 l 1
 100 200 l 1
 100 0 l 1
 50 0 l 1
 50 500 l 1
 200 325 m 1
 200 175 l 1
 225 125 l 1
 250 175 l 1
 250 325 l 1
 225 375 l 1
 200 325 l 1
EndSplineSet
EndChar

StartChar: uni0430
Encoding: 1072 1072 204
Width: 300
Flags: W
LayerCount: 2
Fore
SplineSet
 50 125 m 1
 50 175 l 1
 112.5 300 l 1
 250 300 l 1
 250 325 l 1
 212.5 400 l 1
 100 400 l 1
 100 500 l 1
 237.5 500 l 1
 300 375 l 1
 300 0 l 1
 112.5 0 l 1
 50 125 l 1
 137.5 100 m 1
 250 100 l 1
 250 200 l 1
 137.5 200 l 1
 112.5 150 l 1
 137.5 100 l 1
EndSplineSet
EndChar

StartChar: uni0431
Encoding: 1073 1073 205
Width: 300
Flags: W
LayerCount: 2
Fore
SplineSet
 50 575 m 1
 112.5 700 l 1
 250 700 l 1
 250 600 l 1
 137.5 600 l 1
 100 525 l 1
 100 500 l 1
 237.5 500 l 1
 300 375 l 1
 300 125 l 1
 237.5 0 l 1
 50 0 l 1
 50 575 l 1
 100 400 m 1
 100 100 l 1
 212.5 100 l 1
 250 175 l 1
 250 325 l 1
 212.5 400 l 1
 100 400 l 1
EndSplineSet
EndChar

StartChar: uni0446
Encoding: 1094 1094 206
Width: 300
Flags: W
LayerCount: 2
Fore
SplineSet
 50 500 m 1
 100 500 l 1
 100 100 l 1
 200 100 l 1
 200 500 l 1
 250 500 l 1
 250 100 l 1
 300 100 l 1
 300 -100 l 1
 250 -100 l 1
 250 0 l 1
 50 0 l 1
 50 500 l 1
EndSplineSet
EndChar

StartChar: uni0434
Encoding: 1076 1076 207
Width: 300
Flags: W
LayerCount: 2
Fore
SplineSet
 50 100 m 1
 100 100 l 1
 100 375 l 1
 162.5 500 l 1
 250 500 l 1
 250 100 l 1
 300 100 l 1
 300 -100 l 1
 250 -100 l 1
 250 0 l 1
 100 0 l 1
 100 -100 l 1
 50 -100 l 1
 50 100 l 1
 150 100 m 1
 200 100 l 1
 200 400 l 1
 187.5 400 l 1
 150 325 l 1
 150 100 l 1
EndSplineSet
EndChar

StartChar: uni0435
Encoding: 1077 1077 208
Width: 300
Flags: W
LayerCount: 2
Fore
SplineSet
 50 375 m 1
 112.5 500 l 1
 237.5 500 l 1
 300 375 l 1
 300 200 l 1
 100 200 l 1
 100 175 l 1
 137.5 100 l 1
 250 100 l 1
 250 0 l 1
 112.5 0 l 1
 50 125 l 1
 50 375 l 1
 137.5 400 m 1
 100 325 l 1
 100 300 l 1
 250 300 l 1
 250 325 l 1
 212.5 400 l 1
 137.5 400 l 1
EndSplineSet
EndChar

StartChar: uni0444
Encoding: 1092 1092 209
Width: 300
Flags: W
LayerCount: 2
Fore
SplineSet
 50 375 m 1
 112.5 500 l 1
 150 500 l 1
 150 600 l 1
 200 600 l 1
 200 500 l 1
 237.5 500 l 1
 300 375 l 1
 300 125 l 1
 237.5 0 l 1
 200 0 l 1
 200 -100 l 1
 150 -100 l 1
 150 0 l 1
 112.5 0 l 1
 50 125 l 1
 50 375 l 1
 137.5 400 m 1
 100 325 l 1
 100 175 l 1
 137.5 100 l 1
 150 100 l 1
 150 400 l 1
 137.5 400 l 1
 200 400 m 1
 200 100 l 1
 212.5 100 l 1
 250 175 l 1
 250 325 l 1
 212.5 400 l 1
 200 400 l 1
EndSplineSet
EndChar

StartChar: uni0433
Encoding: 1075 1075 210
Width: 300
Flags: W
LayerCount: 2
Fore
SplineSet
 50 500 m 1
 300 500 l 1
 300 400 l 1
 100 400 l 1
 100 0 l 1
 50 0 l 1
 50 500 l 1
EndSplineSet
EndChar

StartChar: uni0445
Encoding: 1093 1093 211
Width: 300
Flags: W
LayerCount: 2
Fore
SplineSet
 50 425 m 1
 50 500 l 1
 87.5 500 l 1
 175 325 l 1
 262.5 500 l 1
 300 500 l 1
 300 425 l 1
 212.5 250 l 1
 300 75 l 1
 300 0 l 1
 262.5 0 l 1
 175 175 l 1
 87.5 0 l 1
 50 0 l 1
 50 75 l 1
 137.5 250 l 1
 50 425 l 1
EndSplineSet
EndChar

StartChar: uni0438
Encoding: 1080 1080 212
Width: 300
Flags: W
LayerCount: 2
Fore
SplineSet
 50 500 m 1
 100 500 l 1
 100 200 l 1
 112.5 200 l 1
 212.5 400 l 1
 250 400 l 1
 250 500 l 1
 300 500 l 1
 300 0 l 1
 250 0 l 1
 250 300 l 1
 237.5 300 l 1
 137.5 100 l 1
 100 100 l 1
 100 0 l 1
 50 0 l 1
 50 500 l 1
EndSplineSet
EndChar

StartChar: uni0439
Encoding: 1081 1081 213
Width: 300
Flags: W
LayerCount: 2
Fore
SplineSet
 50 500 m 1
 100 500 l 1
 100 200 l 1
 112.5 200 l 1
 212.5 400 l 1
 250 400 l 1
 250 500 l 1
 300 500 l 1
 300 0 l 1
 250 0 l 1
 250 300 l 1
 237.5 300 l 1
 137.5 100 l 1
 100 100 l 1
 100 0 l 1
 50 0 l 1
 50 500 l 1
 150 500 m 1
 150 600 l 1
 200 600 l 1
 200 500 l 1
 150 500 l 1
EndSplineSet
EndChar

StartChar: uni043A
Encoding: 1082 1082 214
Width: 300
Flags: W
LayerCount: 2
Fore
SplineSet
 50 500 m 1
 100 500 l 1
 100 300 l 1
 162.5 300 l 1
 262.5 500 l 1
 300 500 l 1
 300 425 l 1
 212.5 250 l 1
 300 75 l 1
 300 0 l 1
 262.5 0 l 1
 162.5 200 l 1
 100 200 l 1
 100 0 l 1
 50 0 l 1
 50 500 l 1
EndSplineSet
EndChar

StartChar: uni043B
Encoding: 1083 1083 215
Width: 300
Flags: W
LayerCount: 2
Fore
SplineSet
 50 0 m 1
 50 100 l 1
 100 100 l 1
 100 375 l 1
 162.5 500 l 1
 300 500 l 1
 300 0 l 1
 250 0 l 1
 250 400 l 1
 187.5 400 l 1
 150 325 l 1
 150 0 l 1
 50 0 l 1
EndSplineSet
EndChar

StartChar: uni043C
Encoding: 1084 1084 216
Width: 300
Flags: W
LayerCount: 2
Fore
SplineSet
 50 500 m 1
 100 500 l 1
 100 400 l 1
 137.5 400 l 1
 175 325 l 1
 212.5 400 l 1
 250 400 l 1
 250 500 l 1
 300 500 l 1
 300 0 l 1
 250 0 l 1
 250 300 l 1
 237.5 300 l 1
 187.5 200 l 1
 162.5 200 l 1
 112.5 300 l 1
 100 300 l 1
 100 0 l 1
 50 0 l 1
 50 500 l 1
EndSplineSet
EndChar

StartChar: uni043D
Encoding: 1085 1085 217
Width: 300
Flags: W
LayerCount: 2
Fore
SplineSet
 50 500 m 1
 100 500 l 1
 100 300 l 1
 250 300 l 1
 250 500 l 1
 300 500 l 1
 300 0 l 1
 250 0 l 1
 250 200 l 1
 100 200 l 1
 100 0 l 1
 50 0 l 1
 50 500 l 1
EndSplineSet
EndChar

StartChar: uni043E
Encoding: 1086 1086 218
Width: 300
Flags: W
LayerCount: 2
Fore
SplineSet
 50 375 m 1
 112.5 500 l 1
 237.5 500 l 1
 300 375 l 1
 300 125 l 1
 237.5 0 l 1
 112.5 0 l 1
 50 125 l 1
 50 375 l 1
 137.5 400 m 1
 100 325 l 1
 100 175 l 1
 137.5 100 l 1
 212.5 100 l 1
 250 175 l 1
 250 325 l 1
 212.5 400 l 1
 137.5 400 l 1
EndSplineSet
EndChar

StartChar: uni043F
Encoding: 1087 1087 219
Width: 300
Flags: W
LayerCount: 2
Fore
SplineSet
 50 500 m 1
 300 500 l 1
 300 0 l 1
 250 0 l 1
 250 400 l 1
 100 400 l 1
 100 0 l 1
 50 0 l 1
 50 500 l 1
EndSplineSet
EndChar

StartChar: uni044F
Encoding: 1103 1103 220
Width: 300
Flags: W
LayerCount: 2
Fore
SplineSet
 50 325 m 1
 50 375 l 1
 112.5 500 l 1
 300 500 l 1
 300 0 l 1
 250 0 l 1
 250 200 l 1
 200 200 l 1
 200 125 l 1
 137.5 0 l 1
 50 0 l 1
 50 100 l 1
 112.5 100 l 1
 150 175 l 1
 150 200 l 1
 112.5 200 l 1
 50 325 l 1
 137.5 300 m 1
 250 300 l 1
 250 400 l 1
 137.5 400 l 1
 112.5 350 l 1
 137.5 300 l 1
EndSplineSet
EndChar

StartChar: uni0440
Encoding: 1088 1088 221
Width: 300
Flags: W
LayerCount: 2
Fore
SplineSet
 50 500 m 1
 237.5 500 l 1
 300 375 l 1
 300 125 l 1
 237.5 0 l 1
 100 0 l 1
 100 -200 l 1
 50 -200 l 1
 50 500 l 1
 100 400 m 1
 100 100 l 1
 212.5 100 l 1
 250 175 l 1
 250 325 l 1
 212.5 400 l 1
 100 400 l 1
EndSplineSet
EndChar

StartChar: uni0441
Encoding: 1089 1089 222
Width: 300
Flags: W
LayerCount: 2
Fore
SplineSet
 50 375 m 1
 112.5 500 l 1
 237.5 500 l 1
 300 375 l 1
 300 300 l 1
 262.5 300 l 1
 212.5 400 l 1
 137.5 400 l 1
 100 325 l 1
 100 175 l 1
 137.5 100 l 1
 212.5 100 l 1
 262.5 200 l 1
 300 200 l 1
 300 125 l 1
 237.5 0 l 1
 112.5 0 l 1
 50 125 l 1
 50 375 l 1
EndSplineSet
EndChar

StartChar: uni0442
Encoding: 1090 1090 223
Width: 300
Flags: W
LayerCount: 2
Fore
SplineSet
 50 400 m 1
 50 500 l 1
 300 500 l 1
 300 400 l 1
 200 400 l 1
 200 0 l 1
 150 0 l 1
 150 400 l 1
 50 400 l 1
EndSplineSet
EndChar

StartChar: uni0443
Encoding: 1091 1091 224
Width: 300
Flags: W
LayerCount: 2
Fore
SplineSet
 50 500 m 1
 100 500 l 1
 100 175 l 1
 137.5 100 l 1
 250 100 l 1
 250 500 l 1
 300 500 l 1
 300 -75 l 1
 237.5 -200 l 1
 100 -200 l 1
 100 -100 l 1
 212.5 -100 l 1
 250 -25 l 1
 250 0 l 1
 112.5 0 l 1
 50 125 l 1
 50 500 l 1
EndSplineSet
EndChar

StartChar: uni0436
Encoding: 1078 1078 225
Width: 300
Flags: W
LayerCount: 2
Fore
SplineSet
 50 500 m 1
 100 500 l 1
 100 375 l 1
 137.5 300 l 1
 150 300 l 1
 150 500 l 1
 200 500 l 1
 200 300 l 1
 212.5 300 l 1
 250 375 l 1
 250 500 l 1
 300 500 l 1
 300 325 l 1
 262.5 250 l 1
 300 175 l 1
 300 0 l 1
 250 0 l 1
 250 125 l 1
 212.5 200 l 1
 200 200 l 1
 200 0 l 1
 150 0 l 1
 150 200 l 1
 137.5 200 l 1
 100 125 l 1
 100 0 l 1
 50 0 l 1
 50 175 l 1
 87.5 250 l 1
 50 325 l 1
 50 500 l 1
EndSplineSet
EndChar

StartChar: uni0432
Encoding: 1074 1074 226
Width: 300
Flags: W
LayerCount: 2
Fore
SplineSet
 50 500 m 1
 237.5 500 l 1
 300 375 l 1
 300 325 l 1
 262.5 250 l 1
 300 175 l 1
 300 125 l 1
 237.5 0 l 1
 50 0 l 1
 50 500 l 1
 100 400 m 1
 100 300 l 1
 212.5 300 l 1
 237.5 350 l 1
 212.5 400 l 1
 100 400 l 1
 100 200 m 1
 100 100 l 1
 212.5 100 l 1
 237.5 150 l 1
 212.5 200 l 1
 100 200 l 1
EndSplineSet
EndChar

StartChar: uni044C
Encoding: 1100 1100 227
Width: 300
Flags: W
LayerCount: 2
Fore
SplineSet
 50 500 m 1
 100 500 l 1
 100 300 l 1
 237.5 300 l 1
 300 175 l 1
 300 125 l 1
 237.5 0 l 1
 50 0 l 1
 50 500 l 1
 100 200 m 1
 100 100 l 1
 212.5 100 l 1
 237.5 150 l 1
 212.5 200 l 1
 100 200 l 1
EndSplineSet
EndChar

StartChar: uni044A
Encoding: 1098 1098 228
Width: 300
Flags: W
LayerCount: 2
Fore
SplineSet
 50 400 m 1
 50 500 l 1
 150 500 l 1
 150 300 l 1
 237.5 300 l 1
 300 175 l 1
 300 125 l 1
 237.5 0 l 1
 100 0 l 1
 100 400 l 1
 50 400 l 1
 150 200 m 1
 150 100 l 1
 212.5 100 l 1
 237.5 150 l 1
 212.5 200 l 1
 150 200 l 1
EndSplineSet
EndChar

StartChar: uni0437
Encoding: 1079 1079 229
Width: 300
Flags: W
LayerCount: 2
Fore
SplineSet
 50 300 m 1
 50 375 l 1
 112.5 500 l 1
 237.5 500 l 1
 300 375 l 1
 300 325 l 1
 262.5 250 l 1
 300 175 l 1
 300 125 l 1
 237.5 0 l 1
 112.5 0 l 1
 50 125 l 1
 50 200 l 1
 87.5 200 l 1
 137.5 100 l 1
 212.5 100 l 1
 237.5 150 l 1
 212.5 200 l 1
 150 200 l 1
 150 300 l 1
 212.5 300 l 1
 237.5 350 l 1
 212.5 400 l 1
 137.5 400 l 1
 87.5 300 l 1
 50 300 l 1
EndSplineSet
EndChar

StartChar: uni0448
Encoding: 1096 1096 230
Width: 300
Flags: W
LayerCount: 2
Fore
SplineSet
 50 500 m 1
 100 500 l 1
 100 100 l 1
 150 100 l 1
 150 500 l 1
 200 500 l 1
 200 100 l 1
 250 100 l 1
 250 500 l 1
 300 500 l 1
 300 0 l 1
 50 0 l 1
 50 500 l 1
EndSplineSet
EndChar

StartChar: uni044D
Encoding: 1101 1101 231
Width: 300
Flags: W
LayerCount: 2
Position2: "palt" dx=0 dy=0 dh=-50 dv=0
Fore
SplineSet
 50 300 m 1
 50 375 l 1
 112.5 500 l 1
 187.5 500 l 1
 250 375 l 1
 250 125 l 1
 187.5 0 l 1
 112.5 0 l 1
 50 125 l 1
 50 200 l 1
 87.5 200 l 1
 137.5 100 l 1
 162.5 100 l 1
 200 175 l 1
 200 200 l 1
 150 200 l 1
 150 300 l 1
 200 300 l 1
 200 325 l 1
 162.5 400 l 1
 137.5 400 l 1
 87.5 300 l 1
 50 300 l 1
EndSplineSet
EndChar

StartChar: uni0449
Encoding: 1097 1097 232
Width: 300
Flags: W
LayerCount: 2
Fore
SplineSet
 50 500 m 1
 100 500 l 1
 100 100 l 1
 150 100 l 1
 150 500 l 1
 200 500 l 1
 200 100 l 1
 250 100 l 1
 250 500 l 1
 300 500 l 1
 300 -100 l 1
 250 -100 l 1
 250 0 l 1
 50 0 l 1
 50 500 l 1
EndSplineSet
EndChar

StartChar: uni0447
Encoding: 1095 1095 233
Width: 300
Flags: W
LayerCount: 2
Fore
SplineSet
 50 500 m 1
 100 500 l 1
 100 275 l 1
 137.5 200 l 1
 250 200 l 1
 250 500 l 1
 300 500 l 1
 300 0 l 1
 250 0 l 1
 250 100 l 1
 112.5 100 l 1
 50 225 l 1
 50 500 l 1
EndSplineSet
EndChar

StartChar: grave
Encoding: 96 96 234
Width: 300
Flags: W
LayerCount: 2
Position2: "palt" dx=-50 dy=0 dh=-100 dv=0
Fore
SplineSet
 100 625 m 1
 100 700 l 1
 137.5 700 l 1
 250 475 l 1
 250 400 l 1
 212.5 400 l 1
 100 625 l 1
EndSplineSet
EndChar

StartChar: bar
Encoding: 124 124 235
Width: 300
Flags: W
LayerCount: 2
Position2: "palt" dx=-100 dy=0 dh=-200 dv=0
Fore
SplineSet
 150 700 m 1
 200 700 l 1
 200 0 l 1
 150 0 l 1
 150 700 l 1
EndSplineSet
EndChar

StartChar: exclamdown
Encoding: 161 161 236
Width: 300
Flags: W
LayerCount: 2
Position2: "palt" dx=-100 dy=0 dh=-200 dv=0
Fore
SplineSet
 150 400 m 1
 150 500 l 1
 200 500 l 1
 200 400 l 1
 150 400 l 1
 150 300 m 1
 200 300 l 1
 200 -200 l 1
 150 -200 l 1
 150 300 l 1
EndSplineSet
EndChar

StartChar: cent
Encoding: 162 162 237
Width: 300
Flags: W
LayerCount: 2
Fore
SplineSet
 50 375 m 1
 112.5 500 l 1
 150 500 l 1
 150 600 l 1
 200 600 l 1
 200 500 l 1
 300 500 l 1
 300 400 l 1
 200 400 l 1
 200 100 l 1
 300 100 l 1
 300 0 l 1
 200 0 l 1
 200 -100 l 1
 150 -100 l 1
 150 0 l 1
 112.5 0 l 1
 50 125 l 1
 50 375 l 1
 137.5 400 m 1
 100 325 l 1
 100 175 l 1
 137.5 100 l 1
 150 100 l 1
 150 400 l 1
 137.5 400 l 1
EndSplineSet
EndChar

StartChar: yen
Encoding: 165 165 238
Width: 300
Flags: W
LayerCount: 2
Fore
SplineSet
 50 625 m 1
 50 700 l 1
 87.5 700 l 1
 150 575 l 1
 150 500 l 1
 200 500 l 1
 200 575 l 1
 262.5 700 l 1
 300 700 l 1
 300 625 l 1
 250 525 l 1
 250 500 l 1
 300 500 l 1
 300 400 l 1
 200 400 l 1
 200 300 l 1
 300 300 l 1
 300 200 l 1
 200 200 l 1
 200 0 l 1
 150 0 l 1
 150 200 l 1
 50 200 l 1
 50 300 l 1
 150 300 l 1
 150 400 l 1
 50 400 l 1
 50 500 l 1
 100 500 l 1
 100 525 l 1
 50 625 l 1
EndSplineSet
EndChar

StartChar: dieresis
Encoding: 168 168 239
Width: 300
Flags: W
LayerCount: 2
Position2: "palt" dx=0 dy=0 dh=-50 dv=0
Fore
SplineSet
 50 600 m 1
 50 700 l 1
 100 700 l 1
 100 600 l 1
 50 600 l 1
 200 600 m 1
 200 700 l 1
 250 700 l 1
 250 600 l 1
 200 600 l 1
EndSplineSet
EndChar

StartChar: copyright
Encoding: 169 169 240
Width: 300
Flags: W
LayerCount: 2
Fore
SplineSet
 50 575 m 1
 112.5 700 l 1
 237.5 700 l 1
 300 575 l 1
 300 -75 l 1
 237.5 -200 l 1
 112.5 -200 l 1
 50 -75 l 1
 50 575 l 1
 137.5 600 m 1
 100 525 l 1
 100 400 l 1
 112.5 400 l 1
 162.5 500 l 1
 187.5 500 l 1
 237.5 400 l 1
 250 400 l 1
 250 525 l 1
 212.5 600 l 1
 137.5 600 l 1
 100 100 m 1
 100 -25 l 1
 137.5 -100 l 1
 212.5 -100 l 1
 250 -25 l 1
 250 100 l 1
 237.5 100 l 1
 187.5 0 l 1
 162.5 0 l 1
 112.5 100 l 1
 100 100 l 1
 150 325 m 1
 150 175 l 1
 175 125 l 1
 212.5 200 l 1
 250 200 l 1
 250 300 l 1
 212.5 300 l 1
 175 375 l 1
 150 325 l 1
EndSplineSet
EndChar

StartChar: ordfemenine
Encoding: 170 170 241
Width: 300
Flags: W
LayerCount: 2
Fore
SplineSet
 50 325 m 1
 50 375 l 1
 112.5 500 l 1
 250 500 l 1
 250 525 l 1
 212.5 600 l 1
 100 600 l 1
 100 700 l 1
 237.5 700 l 1
 300 575 l 1
 300 200 l 1
 112.5 200 l 1
 50 325 l 1
 50 0 m 1
 50 100 l 1
 300 100 l 1
 300 0 l 1
 50 0 l 1
 137.5 300 m 1
 250 300 l 1
 250 400 l 1
 137.5 400 l 1
 112.5 350 l 1
 137.5 300 l 1
EndSplineSet
EndChar

StartChar: guillemotleft
Encoding: 171 171 242
Width: 300
Flags: W
LayerCount: 2
Fore
SplineSet
 50 225 m 1
 50 275 l 1
 112.5 400 l 1
 150 400 l 1
 150 325 l 1
 112.5 250 l 1
 150 175 l 1
 150 100 l 1
 112.5 100 l 1
 50 225 l 1
 200 225 m 1
 200 275 l 1
 262.5 400 l 1
 300 400 l 1
 300 325 l 1
 262.5 250 l 1
 300 175 l 1
 300 100 l 1
 262.5 100 l 1
 200 225 l 1
EndSplineSet
EndChar

StartChar: logicalnot
Encoding: 172 172 243
Width: 300
Flags: W
LayerCount: 2
Fore
SplineSet
 50 400 m 1
 50 500 l 1
 300 500 l 1
 300 200 l 1
 250 200 l 1
 250 400 l 1
 50 400 l 1
EndSplineSet
EndChar

StartChar: registered
Encoding: 174 174 244
Width: 300
Flags: W
LayerCount: 2
Fore
SplineSet
 50 575 m 1
 112.5 700 l 1
 237.5 700 l 1
 300 575 l 1
 300 -75 l 1
 237.5 -200 l 1
 112.5 -200 l 1
 50 -75 l 1
 50 575 l 1
 137.5 600 m 1
 100 525 l 1
 100 500 l 1
 187.5 500 l 1
 237.5 400 l 1
 250 400 l 1
 250 525 l 1
 212.5 600 l 1
 137.5 600 l 1
 150 400 m 1
 150 200 l 1
 162.5 200 l 1
 200 275 l 1
 200 325 l 1
 162.5 400 l 1
 150 400 l 1
 100 0 m 1
 100 -25 l 1
 137.5 -100 l 1
 212.5 -100 l 1
 250 -25 l 1
 250 0 l 1
 212.5 0 l 1
 162.5 100 l 1
 150 100 l 1
 150 0 l 1
 100 0 l 1
 237.5 100 m 1
 250 100 l 1
 250 200 l 1
 237.5 200 l 1
 212.5 150 l 1
 237.5 100 l 1
EndSplineSet
EndChar

StartChar: macron
Encoding: 175 175 245
Width: 300
Flags: W
LayerCount: 2
Position2: "palt" dx=-50 dy=0 dh=-100 dv=0
Fore
SplineSet
 100 600 m 1
 100 700 l 1
 250 700 l 1
 250 600 l 1
 100 600 l 1
EndSplineSet
EndChar

StartChar: plusminus
Encoding: 177 177 246
Width: 300
Flags: W
LayerCount: 2
Fore
SplineSet
 50 400 m 1
 50 500 l 1
 150 500 l 1
 150 700 l 1
 200 700 l 1
 200 500 l 1
 300 500 l 1
 300 400 l 1
 200 400 l 1
 200 200 l 1
 150 200 l 1
 150 400 l 1
 50 400 l 1
 50 0 m 1
 50 100 l 1
 300 100 l 1
 300 0 l 1
 50 0 l 1
EndSplineSet
EndChar

StartChar: twosuperior
Encoding: 178 178 247
Width: 300
Flags: W
LayerCount: 2
Position2: "palt" dx=-50 dy=0 dh=-100 dv=0
Fore
SplineSet
 100 600 m 1
 100 700 l 1
 187.5 700 l 1
 250 575 l 1
 250 525 l 1
 150 325 l 1
 150 300 l 1
 250 300 l 1
 250 200 l 1
 100 200 l 1
 100 375 l 1
 187.5 550 l 1
 162.5 600 l 1
 100 600 l 1
EndSplineSet
EndChar

StartChar: threesuperior
Encoding: 179 179 248
Width: 300
Flags: W
LayerCount: 2
Position2: "palt" dx=-50 dy=0 dh=-100 dv=0
Fore
SplineSet
 100 600 m 1
 100 700 l 1
 187.5 700 l 1
 250 575 l 1
 250 525 l 1
 212.5 450 l 1
 250 375 l 1
 250 325 l 1
 187.5 200 l 1
 100 200 l 1
 100 300 l 1
 162.5 300 l 1
 187.5 350 l 1
 162.5 400 l 1
 100 400 l 1
 100 500 l 1
 162.5 500 l 1
 187.5 550 l 1
 162.5 600 l 1
 100 600 l 1
EndSplineSet
EndChar

StartChar: acute
Encoding: 180 180 249
Width: 300
Flags: W
LayerCount: 2
Position2: "palt" dx=-50 dy=0 dh=-100 dv=0
Fore
SplineSet
 100 400 m 1
 100 475 l 1
 212.5 700 l 1
 250 700 l 1
 250 625 l 1
 137.5 400 l 1
 100 400 l 1
EndSplineSet
EndChar

StartChar: mu
Encoding: 181 181 250
Width: 300
Flags: W
LayerCount: 2
Fore
SplineSet
 50 500 m 1
 100 500 l 1
 100 100 l 1
 162.5 100 l 1
 200 175 l 1
 200 500 l 1
 250 500 l 1
 250 175 l 1
 300 75 l 1
 300 0 l 1
 262.5 0 l 1
 225 75 l 1
 187.5 0 l 1
 100 0 l 1
 100 -200 l 1
 50 -200 l 1
 50 500 l 1
EndSplineSet
EndChar

StartChar: paragraph
Encoding: 182 182 251
Width: 300
Flags: W
LayerCount: 2
Fore
SplineSet
 50 575 m 1
 112.5 700 l 1
 200 700 l 1
 200 0 l 1
 150 0 l 1
 150 300 l 1
 112.5 300 l 1
 50 425 l 1
 50 575 l 1
 137.5 600 m 1
 100 525 l 1
 100 475 l 1
 137.5 400 l 1
 150 400 l 1
 150 600 l 1
 137.5 600 l 1
 250 700 m 1
 300 700 l 1
 300 0 l 1
 250 0 l 1
 250 700 l 1
EndSplineSet
EndChar

StartChar: periodcentered
Encoding: 183 183 252
Width: 300
Flags: W
LayerCount: 2
Position2: "palt" dx=-100 dy=0 dh=-200 dv=0
Fore
SplineSet
 150 300 m 1
 150 400 l 1
 200 400 l 1
 200 300 l 1
 150 300 l 1
EndSplineSet
EndChar

StartChar: cedilla
Encoding: 184 184 253
Width: 300
Flags: W
LayerCount: 2
Position2: "palt" dx=-100 dy=0 dh=-150 dv=0
Fore
SplineSet
 150 25 m 1
 150 100 l 1
 187.5 100 l 1
 250 -25 l 1
 250 -75 l 1
 187.5 -200 l 1
 150 -200 l 1
 150 -125 l 1
 187.5 -50 l 1
 150 25 l 1
EndSplineSet
EndChar

StartChar: onesuperior
Encoding: 185 185 254
Width: 300
Flags: W
LayerCount: 2
Position2: "palt" dx=-50 dy=0 dh=-100 dv=0
Fore
SplineSet
 100 500 m 1
 100 600 l 1
 150 600 l 1
 150 700 l 1
 200 700 l 1
 200 300 l 1
 250 300 l 1
 250 200 l 1
 100 200 l 1
 100 300 l 1
 150 300 l 1
 150 500 l 1
 100 500 l 1
EndSplineSet
EndChar

StartChar: ordmasculine
Encoding: 186 186 255
Width: 300
Flags: W
LayerCount: 2
Fore
SplineSet
 50 575 m 1
 112.5 700 l 1
 237.5 700 l 1
 300 575 l 1
 300 325 l 1
 237.5 200 l 1
 112.5 200 l 1
 50 325 l 1
 50 575 l 1
 50 0 m 1
 50 100 l 1
 300 100 l 1
 300 0 l 1
 50 0 l 1
 137.5 600 m 1
 100 525 l 1
 100 375 l 1
 137.5 300 l 1
 212.5 300 l 1
 250 375 l 1
 250 525 l 1
 212.5 600 l 1
 137.5 600 l 1
EndSplineSet
EndChar

StartChar: guillemotright
Encoding: 187 187 256
Width: 300
Flags: W
LayerCount: 2
Fore
SplineSet
 50 325 m 1
 50 400 l 1
 87.5 400 l 1
 150 275 l 1
 150 225 l 1
 87.5 100 l 1
 50 100 l 1
 50 175 l 1
 87.5 250 l 1
 50 325 l 1
 200 325 m 1
 200 400 l 1
 237.5 400 l 1
 300 275 l 1
 300 225 l 1
 237.5 100 l 1
 200 100 l 1
 200 175 l 1
 237.5 250 l 1
 200 325 l 1
EndSplineSet
EndChar

StartChar: questiondown
Encoding: 191 191 257
Width: 300
Flags: W
LayerCount: 2
Fore
SplineSet
 50 -75 m 1
 50 -25 l 1
 150 175 l 1
 150 300 l 1
 200 300 l 1
 200 125 l 1
 112.5 -50 l 1
 137.5 -100 l 1
 212.5 -100 l 1
 262.5 0 l 1
 300 0 l 1
 300 -75 l 1
 237.5 -200 l 1
 112.5 -200 l 1
 50 -75 l 1
 150 400 m 1
 150 500 l 1
 200 500 l 1
 200 400 l 1
 150 400 l 1
EndSplineSet
EndChar

StartChar: Agrave
Encoding: 192 192 258
Width: 300
Flags: W
LayerCount: 2
Fore
SplineSet
 50 375 m 1
 112.5 500 l 1
 150 500 l 1
 150 525 l 1
 100 625 l 1
 100 700 l 1
 137.5 700 l 1
 200 575 l 1
 200 500 l 1
 237.5 500 l 1
 300 375 l 1
 300 0 l 1
 250 0 l 1
 250 200 l 1
 100 200 l 1
 100 0 l 1
 50 0 l 1
 50 375 l 1
 137.5 400 m 1
 100 325 l 1
 100 300 l 1
 250 300 l 1
 250 325 l 1
 212.5 400 l 1
 137.5 400 l 1
EndSplineSet
EndChar

StartChar: Aacute
Encoding: 193 193 259
Width: 300
Flags: W
LayerCount: 2
Fore
SplineSet
 50 375 m 1
 112.5 500 l 1
 150 500 l 1
 150 575 l 1
 212.5 700 l 1
 250 700 l 1
 250 625 l 1
 200 525 l 1
 200 500 l 1
 237.5 500 l 1
 300 375 l 1
 300 0 l 1
 250 0 l 1
 250 200 l 1
 100 200 l 1
 100 0 l 1
 50 0 l 1
 50 375 l 1
 137.5 400 m 1
 100 325 l 1
 100 300 l 1
 250 300 l 1
 250 325 l 1
 212.5 400 l 1
 137.5 400 l 1
EndSplineSet
EndChar

StartChar: Acircumflex
Encoding: 194 194 260
Width: 300
Flags: W
LayerCount: 2
Fore
SplineSet
 100 475 m 1
 100 575 l 1
 162.5 700 l 1
 187.5 700 l 1
 250 575 l 1
 250 475 l 1
 300 375 l 1
 300 0 l 1
 250 0 l 1
 250 200 l 1
 100 200 l 1
 100 0 l 1
 50 0 l 1
 50 375 l 1
 100 475 l 1
 137.5 400 m 1
 100 325 l 1
 100 300 l 1
 250 300 l 1
 250 325 l 1
 212.5 400 l 1
 137.5 400 l 1
 150 525 m 1
 150 500 l 1
 200 500 l 1
 200 525 l 1
 175 575 l 1
 150 525 l 1
EndSplineSet
EndChar

StartChar: Atilde
Encoding: 195 195 261
Width: 300
Flags: W
LayerCount: 2
Fore
SplineSet
 100 475 m 1
 100 575 l 1
 162.5 700 l 1
 187.5 700 l 1
 225 625 l 1
 262.5 700 l 1
 300 700 l 1
 300 625 l 1
 250 525 l 1
 250 475 l 1
 300 375 l 1
 300 0 l 1
 250 0 l 1
 250 200 l 1
 100 200 l 1
 100 0 l 1
 50 0 l 1
 50 375 l 1
 100 475 l 1
 137.5 400 m 1
 100 325 l 1
 100 300 l 1
 250 300 l 1
 250 325 l 1
 212.5 400 l 1
 137.5 400 l 1
 150 525 m 1
 150 500 l 1
 200 500 l 1
 200 525 l 1
 175 575 l 1
 150 525 l 1
EndSplineSet
EndChar

StartChar: AE
Encoding: 198 198 262
Width: 300
Flags: W
LayerCount: 2
Fore
SplineSet
 50 575 m 1
 112.5 700 l 1
 300 700 l 1
 300 600 l 1
 200 600 l 1
 200 400 l 1
 250 400 l 1
 250 300 l 1
 200 300 l 1
 200 100 l 1
 300 100 l 1
 300 0 l 1
 150 0 l 1
 150 300 l 1
 100 300 l 1
 100 0 l 1
 50 0 l 1
 50 575 l 1
 137.5 600 m 1
 100 525 l 1
 100 400 l 1
 150 400 l 1
 150 600 l 1
 137.5 600 l 1
EndSplineSet
EndChar

StartChar: Ccedilla
Encoding: 199 199 263
Width: 300
Flags: W
LayerCount: 2
Fore
SplineSet
 50 575 m 1
 112.5 700 l 1
 237.5 700 l 1
 300 575 l 1
 300 500 l 1
 262.5 500 l 1
 212.5 600 l 1
 137.5 600 l 1
 100 525 l 1
 100 175 l 1
 137.5 100 l 1
 212.5 100 l 1
 262.5 200 l 1
 300 200 l 1
 300 125 l 1
 237.5 0 l 1
 200 0 l 1
 200 -75 l 1
 137.5 -200 l 1
 100 -200 l 1
 100 -125 l 1
 150 -25 l 1
 150 0 l 1
 112.5 0 l 1
 50 125 l 1
 50 575 l 1
EndSplineSet
EndChar

StartChar: Egrave
Encoding: 200 200 264
Width: 300
Flags: W
LayerCount: 2
Fore
SplineSet
 50 500 m 1
 150 500 l 1
 150 525 l 1
 100 625 l 1
 100 700 l 1
 137.5 700 l 1
 200 575 l 1
 200 500 l 1
 300 500 l 1
 300 400 l 1
 100 400 l 1
 100 300 l 1
 250 300 l 1
 250 200 l 1
 100 200 l 1
 100 100 l 1
 300 100 l 1
 300 0 l 1
 50 0 l 1
 50 500 l 1
EndSplineSet
EndChar

StartChar: Ecircumflex
Encoding: 202 202 265
Width: 300
Flags: W
LayerCount: 2
Fore
SplineSet
 50 500 m 1
 100 500 l 1
 100 575 l 1
 162.5 700 l 1
 187.5 700 l 1
 250 575 l 1
 250 500 l 1
 300 500 l 1
 300 400 l 1
 100 400 l 1
 100 300 l 1
 250 300 l 1
 250 200 l 1
 100 200 l 1
 100 100 l 1
 300 100 l 1
 300 0 l 1
 50 0 l 1
 50 500 l 1
 150 500 m 1
 200 500 l 1
 200 525 l 1
 175 575 l 1
 150 525 l 1
 150 500 l 1
EndSplineSet
EndChar

StartChar: Edieresis
Encoding: 203 203 266
Width: 300
Flags: W
LayerCount: 2
Fore
SplineSet
 50 500 m 1
 300 500 l 1
 300 400 l 1
 100 400 l 1
 100 300 l 1
 250 300 l 1
 250 200 l 1
 100 200 l 1
 100 100 l 1
 300 100 l 1
 300 0 l 1
 50 0 l 1
 50 500 l 1
 100 600 m 1
 100 700 l 1
 150 700 l 1
 150 600 l 1
 100 600 l 1
 200 600 m 1
 200 700 l 1
 250 700 l 1
 250 600 l 1
 200 600 l 1
EndSplineSet
EndChar

StartChar: Igrave
Encoding: 204 204 267
Width: 300
Flags: W
LayerCount: 2
Position2: "palt" dx=-50 dy=0 dh=-100 dv=0
Fore
SplineSet
 100 625 m 1
 100 700 l 1
 137.5 700 l 1
 200 575 l 1
 200 500 l 1
 162.5 500 l 1
 100 625 l 1
 100 300 m 1
 100 400 l 1
 250 400 l 1
 250 300 l 1
 200 300 l 1
 200 100 l 1
 250 100 l 1
 250 0 l 1
 100 0 l 1
 100 100 l 1
 150 100 l 1
 150 300 l 1
 100 300 l 1
EndSplineSet
EndChar

StartChar: Iacute
Encoding: 205 205 268
Width: 300
Flags: W
LayerCount: 2
Position2: "palt" dx=-50 dy=0 dh=-100 dv=0
Fore
SplineSet
 100 300 m 1
 100 400 l 1
 250 400 l 1
 250 300 l 1
 200 300 l 1
 200 100 l 1
 250 100 l 1
 250 0 l 1
 100 0 l 1
 100 100 l 1
 150 100 l 1
 150 300 l 1
 100 300 l 1
 150 500 m 1
 150 575 l 1
 212.5 700 l 1
 250 700 l 1
 250 625 l 1
 187.5 500 l 1
 150 500 l 1
EndSplineSet
EndChar

StartChar: Icircumflex
Encoding: 206 206 269
Width: 300
Flags: W
LayerCount: 2
Position2: "palt" dx=-50 dy=0 dh=-100 dv=0
Fore
SplineSet
 100 500 m 1
 100 575 l 1
 162.5 700 l 1
 187.5 700 l 1
 250 575 l 1
 250 500 l 1
 212.5 500 l 1
 175 575 l 1
 137.5 500 l 1
 100 500 l 1
 100 300 m 1
 100 400 l 1
 250 400 l 1
 250 300 l 1
 200 300 l 1
 200 100 l 1
 250 100 l 1
 250 0 l 1
 100 0 l 1
 100 100 l 1
 150 100 l 1
 150 300 l 1
 100 300 l 1
EndSplineSet
EndChar

StartChar: Idieresis
Encoding: 207 207 270
Width: 300
Flags: W
LayerCount: 2
Position2: "palt" dx=-50 dy=0 dh=-100 dv=0
Fore
SplineSet
 100 600 m 1
 100 700 l 1
 150 700 l 1
 150 600 l 1
 100 600 l 1
 100 400 m 1
 100 500 l 1
 250 500 l 1
 250 400 l 1
 200 400 l 1
 200 100 l 1
 250 100 l 1
 250 0 l 1
 100 0 l 1
 100 100 l 1
 150 100 l 1
 150 400 l 1
 100 400 l 1
 200 600 m 1
 200 700 l 1
 250 700 l 1
 250 600 l 1
 200 600 l 1
EndSplineSet
EndChar

StartChar: Eth
Encoding: 208 208 271
Width: 300
Flags: W
LayerCount: 2
Fore
SplineSet
 50 300 m 1
 50 400 l 1
 100 400 l 1
 100 700 l 1
 237.5 700 l 1
 300 575 l 1
 300 125 l 1
 237.5 0 l 1
 100 0 l 1
 100 300 l 1
 50 300 l 1
 150 600 m 1
 150 400 l 1
 200 400 l 1
 200 300 l 1
 150 300 l 1
 150 100 l 1
 212.5 100 l 1
 250 175 l 1
 250 525 l 1
 212.5 600 l 1
 150 600 l 1
EndSplineSet
EndChar

StartChar: Ntilde
Encoding: 209 209 272
Width: 300
Flags: W
LayerCount: 2
Fore
SplineSet
 50 400 m 1
 137.5 400 l 1
 237.5 200 l 1
 250 200 l 1
 250 400 l 1
 300 400 l 1
 300 0 l 1
 250 0 l 1
 250 100 l 1
 212.5 100 l 1
 112.5 300 l 1
 100 300 l 1
 100 0 l 1
 50 0 l 1
 50 400 l 1
 100 500 m 1
 100 575 l 1
 162.5 700 l 1
 187.5 700 l 1
 225 625 l 1
 262.5 700 l 1
 300 700 l 1
 300 625 l 1
 237.5 500 l 1
 212.5 500 l 1
 175 575 l 1
 137.5 500 l 1
 100 500 l 1
EndSplineSet
EndChar

StartChar: Ograve
Encoding: 210 210 273
Width: 300
Flags: W
LayerCount: 2
Fore
SplineSet
 50 375 m 1
 112.5 500 l 1
 150 500 l 1
 150 525 l 1
 100 625 l 1
 100 700 l 1
 137.5 700 l 1
 200 575 l 1
 200 500 l 1
 237.5 500 l 1
 300 375 l 1
 300 125 l 1
 237.5 0 l 1
 112.5 0 l 1
 50 125 l 1
 50 375 l 1
 137.5 400 m 1
 100 325 l 1
 100 175 l 1
 137.5 100 l 1
 212.5 100 l 1
 250 175 l 1
 250 325 l 1
 212.5 400 l 1
 137.5 400 l 1
EndSplineSet
EndChar

StartChar: Oacute
Encoding: 211 211 274
Width: 300
Flags: W
LayerCount: 2
Fore
SplineSet
 50 375 m 1
 112.5 500 l 1
 150 500 l 1
 150 575 l 1
 212.5 700 l 1
 250 700 l 1
 250 625 l 1
 200 525 l 1
 200 500 l 1
 237.5 500 l 1
 300 375 l 1
 300 125 l 1
 237.5 0 l 1
 112.5 0 l 1
 50 125 l 1
 50 375 l 1
 137.5 400 m 1
 100 325 l 1
 100 175 l 1
 137.5 100 l 1
 212.5 100 l 1
 250 175 l 1
 250 325 l 1
 212.5 400 l 1
 137.5 400 l 1
EndSplineSet
EndChar

StartChar: Ocircumflex
Encoding: 212 212 275
Width: 300
Flags: W
LayerCount: 2
Fore
SplineSet
 100 475 m 1
 100 575 l 1
 162.5 700 l 1
 187.5 700 l 1
 250 575 l 1
 250 475 l 1
 300 375 l 1
 300 125 l 1
 237.5 0 l 1
 112.5 0 l 1
 50 125 l 1
 50 375 l 1
 100 475 l 1
 137.5 400 m 1
 100 325 l 1
 100 175 l 1
 137.5 100 l 1
 212.5 100 l 1
 250 175 l 1
 250 325 l 1
 212.5 400 l 1
 137.5 400 l 1
 150 525 m 1
 150 500 l 1
 200 500 l 1
 200 525 l 1
 175 575 l 1
 150 525 l 1
EndSplineSet
EndChar

StartChar: Otilde
Encoding: 213 213 276
Width: 300
Flags: W
LayerCount: 2
Fore
SplineSet
 100 475 m 1
 100 575 l 1
 162.5 700 l 1
 187.5 700 l 1
 225 625 l 1
 262.5 700 l 1
 300 700 l 1
 300 625 l 1
 250 525 l 1
 250 475 l 1
 300 375 l 1
 300 125 l 1
 237.5 0 l 1
 112.5 0 l 1
 50 125 l 1
 50 375 l 1
 100 475 l 1
 137.5 400 m 1
 100 325 l 1
 100 175 l 1
 137.5 100 l 1
 212.5 100 l 1
 250 175 l 1
 250 325 l 1
 212.5 400 l 1
 137.5 400 l 1
 150 525 m 1
 150 500 l 1
 200 500 l 1
 200 525 l 1
 175 575 l 1
 150 525 l 1
EndSplineSet
EndChar

StartChar: multiply
Encoding: 215 215 277
Width: 300
Flags: W
LayerCount: 2
Fore
SplineSet
 50 525 m 1
 50 600 l 1
 87.5 600 l 1
 175 425 l 1
 262.5 600 l 1
 300 600 l 1
 300 525 l 1
 212.5 350 l 1
 300 175 l 1
 300 100 l 1
 262.5 100 l 1
 175 275 l 1
 87.5 100 l 1
 50 100 l 1
 50 175 l 1
 137.5 350 l 1
 50 525 l 1
EndSplineSet
EndChar

StartChar: Oslash
Encoding: 216 216 278
Width: 300
Flags: W
LayerCount: 2
Fore
SplineSet
 50 575 m 1
 112.5 700 l 1
 237.5 700 l 1
 300 575 l 1
 300 125 l 1
 237.5 0 l 1
 112.5 0 l 1
 50 125 l 1
 50 575 l 1
 137.5 600 m 1
 100 525 l 1
 100 300 l 1
 112.5 300 l 1
 212.5 500 l 1
 250 500 l 1
 250 525 l 1
 212.5 600 l 1
 137.5 600 l 1
 100 200 m 1
 100 175 l 1
 137.5 100 l 1
 212.5 100 l 1
 250 175 l 1
 250 400 l 1
 237.5 400 l 1
 137.5 200 l 1
 100 200 l 1
EndSplineSet
EndChar

StartChar: Ugrave
Encoding: 217 217 279
Width: 300
Flags: W
LayerCount: 2
Fore
SplineSet
 50 500 m 1
 100 500 l 1
 100 175 l 1
 137.5 100 l 1
 212.5 100 l 1
 250 175 l 1
 250 500 l 1
 300 500 l 1
 300 125 l 1
 237.5 0 l 1
 112.5 0 l 1
 50 125 l 1
 50 500 l 1
 100 625 m 1
 100 700 l 1
 137.5 700 l 1
 200 575 l 1
 200 500 l 1
 162.5 500 l 1
 100 625 l 1
EndSplineSet
EndChar

StartChar: Uacute
Encoding: 218 218 280
Width: 300
Flags: W
LayerCount: 2
Fore
SplineSet
 50 500 m 1
 100 500 l 1
 100 175 l 1
 137.5 100 l 1
 212.5 100 l 1
 250 175 l 1
 250 500 l 1
 300 500 l 1
 300 125 l 1
 237.5 0 l 1
 112.5 0 l 1
 50 125 l 1
 50 500 l 1
 150 500 m 1
 150 575 l 1
 212.5 700 l 1
 250 700 l 1
 250 625 l 1
 187.5 500 l 1
 150 500 l 1
EndSplineSet
EndChar

StartChar: Ucircumflex
Encoding: 219 219 281
Width: 300
Flags: W
LayerCount: 2
Fore
SplineSet
 50 400 m 1
 100 400 l 1
 100 175 l 1
 137.5 100 l 1
 212.5 100 l 1
 250 175 l 1
 250 400 l 1
 300 400 l 1
 300 125 l 1
 237.5 0 l 1
 112.5 0 l 1
 50 125 l 1
 50 400 l 1
 100 500 m 1
 100 575 l 1
 162.5 700 l 1
 187.5 700 l 1
 250 575 l 1
 250 500 l 1
 212.5 500 l 1
 175 575 l 1
 137.5 500 l 1
 100 500 l 1
EndSplineSet
EndChar

StartChar: Yacute
Encoding: 221 221 282
Width: 300
Flags: W
LayerCount: 2
Fore
SplineSet
 50 425 m 1
 50 500 l 1
 87.5 500 l 1
 175 325 l 1
 262.5 500 l 1
 300 500 l 1
 300 425 l 1
 200 225 l 1
 200 0 l 1
 150 0 l 1
 150 225 l 1
 50 425 l 1
 150 500 m 1
 150 575 l 1
 212.5 700 l 1
 250 700 l 1
 250 625 l 1
 187.5 500 l 1
 150 500 l 1
EndSplineSet
EndChar

StartChar: Thorn
Encoding: 222 222 283
Width: 300
Flags: W
LayerCount: 2
Fore
SplineSet
 50 700 m 1
 100 700 l 1
 100 600 l 1
 237.5 600 l 1
 300 475 l 1
 300 325 l 1
 237.5 200 l 1
 100 200 l 1
 100 0 l 1
 50 0 l 1
 50 700 l 1
 100 500 m 1
 100 300 l 1
 212.5 300 l 1
 250 375 l 1
 250 425 l 1
 212.5 500 l 1
 100 500 l 1
EndSplineSet
EndChar

StartChar: aacute
Encoding: 225 225 284
Width: 300
Flags: W
LayerCount: 2
Fore
SplineSet
 50 125 m 1
 50 175 l 1
 112.5 300 l 1
 250 300 l 1
 250 325 l 1
 212.5 400 l 1
 100 400 l 1
 100 500 l 1
 150 500 l 1
 150 575 l 1
 212.5 700 l 1
 250 700 l 1
 250 625 l 1
 200 525 l 1
 200 500 l 1
 237.5 500 l 1
 300 375 l 1
 300 0 l 1
 112.5 0 l 1
 50 125 l 1
 137.5 100 m 1
 250 100 l 1
 250 200 l 1
 137.5 200 l 1
 112.5 150 l 1
 137.5 100 l 1
EndSplineSet
EndChar

StartChar: atilde
Encoding: 227 227 285
Width: 300
Flags: W
LayerCount: 2
Fore
SplineSet
 50 125 m 1
 50 175 l 1
 112.5 300 l 1
 250 300 l 1
 250 325 l 1
 212.5 400 l 1
 100 400 l 1
 100 575 l 1
 162.5 700 l 1
 187.5 700 l 1
 225 625 l 1
 262.5 700 l 1
 300 700 l 1
 300 625 l 1
 250 525 l 1
 250 475 l 1
 300 375 l 1
 300 0 l 1
 112.5 0 l 1
 50 125 l 1
 137.5 100 m 1
 250 100 l 1
 250 200 l 1
 137.5 200 l 1
 112.5 150 l 1
 137.5 100 l 1
 150 525 m 1
 150 500 l 1
 200 500 l 1
 200 525 l 1
 175 575 l 1
 150 525 l 1
EndSplineSet
EndChar

StartChar: ae
Encoding: 230 230 286
Width: 300
Flags: W
LayerCount: 2
Fore
SplineSet
 50 125 m 1
 50 175 l 1
 112.5 300 l 1
 150 300 l 1
 150 325 l 1
 100 425 l 1
 100 500 l 1
 137.5 500 l 1
 175 425 l 1
 212.5 500 l 1
 237.5 500 l 1
 300 375 l 1
 300 200 l 1
 200 200 l 1
 200 100 l 1
 250 100 l 1
 250 0 l 1
 112.5 0 l 1
 50 125 l 1
 137.5 100 m 1
 150 100 l 1
 150 200 l 1
 137.5 200 l 1
 112.5 150 l 1
 137.5 100 l 1
 200 300 m 1
 250 300 l 1
 250 325 l 1
 225 375 l 1
 200 325 l 1
 200 300 l 1
EndSplineSet
EndChar

StartChar: iacute
Encoding: 237 237 287
Width: 300
Flags: W
LayerCount: 2
Position2: "palt" dx=-50 dy=0 dh=-100 dv=0
Fore
SplineSet
 100 300 m 1
 100 400 l 1
 200 400 l 1
 200 100 l 1
 250 100 l 1
 250 0 l 1
 100 0 l 1
 100 100 l 1
 150 100 l 1
 150 300 l 1
 100 300 l 1
 150 500 m 1
 150 575 l 1
 212.5 700 l 1
 250 700 l 1
 250 625 l 1
 187.5 500 l 1
 150 500 l 1
EndSplineSet
EndChar

StartChar: eth
Encoding: 240 240 288
Width: 300
Flags: W
LayerCount: 2
Fore
SplineSet
 50 600 m 1
 50 700 l 1
 137.5 700 l 1
 175 625 l 1
 212.5 700 l 1
 250 700 l 1
 250 625 l 1
 212.5 550 l 1
 300 375 l 1
 300 125 l 1
 237.5 0 l 1
 112.5 0 l 1
 50 125 l 1
 50 175 l 1
 112.5 300 l 1
 250 300 l 1
 250 325 l 1
 175 475 l 1
 137.5 400 l 1
 100 400 l 1
 100 475 l 1
 137.5 550 l 1
 112.5 600 l 1
 50 600 l 1
 137.5 100 m 1
 212.5 100 l 1
 250 175 l 1
 250 200 l 1
 137.5 200 l 1
 112.5 150 l 1
 137.5 100 l 1
EndSplineSet
EndChar

StartChar: ntilde
Encoding: 241 241 289
Width: 300
Flags: W
LayerCount: 2
Fore
SplineSet
 50 500 m 1
 100 500 l 1
 100 575 l 1
 162.5 700 l 1
 187.5 700 l 1
 225 625 l 1
 262.5 700 l 1
 300 700 l 1
 300 625 l 1
 250 525 l 1
 250 475 l 1
 300 375 l 1
 300 0 l 1
 250 0 l 1
 250 325 l 1
 212.5 400 l 1
 100 400 l 1
 100 0 l 1
 50 0 l 1
 50 500 l 1
 150 500 m 1
 200 500 l 1
 200 525 l 1
 175 575 l 1
 150 525 l 1
 150 500 l 1
EndSplineSet
EndChar

StartChar: oacute
Encoding: 243 243 290
Width: 300
Flags: W
LayerCount: 2
Fore
SplineSet
 50 275 m 1
 112.5 400 l 1
 237.5 400 l 1
 300 275 l 1
 300 125 l 1
 237.5 0 l 1
 112.5 0 l 1
 50 125 l 1
 50 275 l 1
 137.5 300 m 1
 100 225 l 1
 100 175 l 1
 137.5 100 l 1
 212.5 100 l 1
 250 175 l 1
 250 225 l 1
 212.5 300 l 1
 137.5 300 l 1
 150 500 m 1
 150 575 l 1
 212.5 700 l 1
 250 700 l 1
 250 625 l 1
 187.5 500 l 1
 150 500 l 1
EndSplineSet
EndChar

StartChar: ocircumflex
Encoding: 244 244 291
Width: 300
Flags: W
LayerCount: 2
Substitution2: "ss04" ocircumflex.saa5054
AlternateSubs2: "aalt" ocircumflex.saa5054
Fore
SplineSet
 50 275 m 1
 112.5 400 l 1
 237.5 400 l 1
 300 275 l 1
 300 125 l 1
 237.5 0 l 1
 112.5 0 l 1
 50 125 l 1
 50 275 l 1
 100 500 m 1
 100 575 l 1
 162.5 700 l 1
 187.5 700 l 1
 250 575 l 1
 250 500 l 1
 212.5 500 l 1
 175 575 l 1
 137.5 500 l 1
 100 500 l 1
 137.5 300 m 1
 100 225 l 1
 100 175 l 1
 137.5 100 l 1
 212.5 100 l 1
 250 175 l 1
 250 225 l 1
 212.5 300 l 1
 137.5 300 l 1
EndSplineSet
EndChar

StartChar: otilde
Encoding: 245 245 292
Width: 300
Flags: W
LayerCount: 2
Fore
SplineSet
 50 275 m 1
 112.5 400 l 1
 237.5 400 l 1
 300 275 l 1
 300 125 l 1
 237.5 0 l 1
 112.5 0 l 1
 50 125 l 1
 50 275 l 1
 100 500 m 1
 100 575 l 1
 162.5 700 l 1
 187.5 700 l 1
 225 625 l 1
 262.5 700 l 1
 300 700 l 1
 300 625 l 1
 237.5 500 l 1
 212.5 500 l 1
 175 575 l 1
 137.5 500 l 1
 100 500 l 1
 137.5 300 m 1
 100 225 l 1
 100 175 l 1
 137.5 100 l 1
 212.5 100 l 1
 250 175 l 1
 250 225 l 1
 212.5 300 l 1
 137.5 300 l 1
EndSplineSet
EndChar

StartChar: oslash
Encoding: 248 248 293
Width: 300
Flags: W
LayerCount: 2
Fore
SplineSet
 50 375 m 1
 112.5 500 l 1
 187.5 500 l 1
 225 425 l 1
 262.5 500 l 1
 300 500 l 1
 300 425 l 1
 262.5 350 l 1
 300 275 l 1
 300 125 l 1
 237.5 0 l 1
 162.5 0 l 1
 125 75 l 1
 87.5 0 l 1
 50 0 l 1
 50 75 l 1
 87.5 150 l 1
 50 225 l 1
 50 375 l 1
 137.5 400 m 1
 100 325 l 1
 100 275 l 1
 125 225 l 1
 187.5 350 l 1
 162.5 400 l 1
 137.5 400 l 1
 187.5 100 m 1
 212.5 100 l 1
 250 175 l 1
 250 225 l 1
 225 275 l 1
 162.5 150 l 1
 187.5 100 l 1
EndSplineSet
EndChar

StartChar: uacute
Encoding: 250 250 294
Width: 300
Flags: W
LayerCount: 2
Fore
SplineSet
 50 500 m 1
 100 500 l 1
 100 175 l 1
 137.5 100 l 1
 250 100 l 1
 250 500 l 1
 300 500 l 1
 300 0 l 1
 112.5 0 l 1
 50 125 l 1
 50 500 l 1
 150 500 m 1
 150 575 l 1
 212.5 700 l 1
 250 700 l 1
 250 625 l 1
 187.5 500 l 1
 150 500 l 1
EndSplineSet
EndChar

StartChar: yacute
Encoding: 253 253 295
Width: 300
Flags: W
LayerCount: 2
Fore
SplineSet
 50 500 m 1
 100 500 l 1
 100 175 l 1
 137.5 100 l 1
 250 100 l 1
 250 500 l 1
 300 500 l 1
 300 -75 l 1
 237.5 -200 l 1
 100 -200 l 1
 100 -100 l 1
 212.5 -100 l 1
 250 -25 l 1
 250 0 l 1
 112.5 0 l 1
 50 125 l 1
 50 500 l 1
 150 500 m 1
 150 575 l 1
 212.5 700 l 1
 250 700 l 1
 250 625 l 1
 187.5 500 l 1
 150 500 l 1
EndSplineSet
EndChar

StartChar: thorn
Encoding: 254 254 296
Width: 300
Flags: W
LayerCount: 2
Fore
SplineSet
 50 700 m 1
 100 700 l 1
 100 500 l 1
 237.5 500 l 1
 300 375 l 1
 300 125 l 1
 237.5 0 l 1
 100 0 l 1
 100 -200 l 1
 50 -200 l 1
 50 700 l 1
 100 400 m 1
 100 100 l 1
 212.5 100 l 1
 250 175 l 1
 250 325 l 1
 212.5 400 l 1
 100 400 l 1
EndSplineSet
EndChar

StartChar: ydieresis
Encoding: 255 255 297
Width: 300
Flags: W
LayerCount: 2
Fore
SplineSet
 50 500 m 1
 100 500 l 1
 100 175 l 1
 137.5 100 l 1
 250 100 l 1
 250 500 l 1
 300 500 l 1
 300 -75 l 1
 237.5 -200 l 1
 100 -200 l 1
 100 -100 l 1
 212.5 -100 l 1
 250 -25 l 1
 250 0 l 1
 112.5 0 l 1
 50 125 l 1
 50 500 l 1
 100 600 m 1
 100 700 l 1
 150 700 l 1
 150 600 l 1
 100 600 l 1
 200 600 m 1
 200 700 l 1
 250 700 l 1
 250 600 l 1
 200 600 l 1
EndSplineSet
EndChar

StartChar: Amacron
Encoding: 256 256 298
Width: 300
Flags: W
LayerCount: 2
Fore
SplineSet
 50 375 m 1
 112.5 500 l 1
 237.5 500 l 1
 300 375 l 1
 300 0 l 1
 250 0 l 1
 250 200 l 1
 100 200 l 1
 100 0 l 1
 50 0 l 1
 50 375 l 1
 100 600 m 1
 100 700 l 1
 250 700 l 1
 250 600 l 1
 100 600 l 1
 137.5 400 m 1
 100 325 l 1
 100 300 l 1
 250 300 l 1
 250 325 l 1
 212.5 400 l 1
 137.5 400 l 1
EndSplineSet
EndChar

StartChar: amacron
Encoding: 257 257 299
Width: 300
Flags: W
LayerCount: 2
Fore
SplineSet
 50 125 m 1
 50 175 l 1
 112.5 300 l 1
 250 300 l 1
 250 325 l 1
 212.5 400 l 1
 100 400 l 1
 100 500 l 1
 237.5 500 l 1
 300 375 l 1
 300 0 l 1
 112.5 0 l 1
 50 125 l 1
 100 600 m 1
 100 700 l 1
 250 700 l 1
 250 600 l 1
 100 600 l 1
 137.5 100 m 1
 250 100 l 1
 250 200 l 1
 137.5 200 l 1
 112.5 150 l 1
 137.5 100 l 1
EndSplineSet
EndChar

StartChar: Cacute
Encoding: 262 262 300
Width: 300
Flags: W
LayerCount: 2
Fore
SplineSet
 50 375 m 1
 112.5 500 l 1
 150 500 l 1
 150 575 l 1
 212.5 700 l 1
 250 700 l 1
 250 625 l 1
 200 525 l 1
 200 500 l 1
 237.5 500 l 1
 300 375 l 1
 300 300 l 1
 262.5 300 l 1
 212.5 400 l 1
 137.5 400 l 1
 100 325 l 1
 100 175 l 1
 137.5 100 l 1
 212.5 100 l 1
 262.5 200 l 1
 300 200 l 1
 300 125 l 1
 237.5 0 l 1
 112.5 0 l 1
 50 125 l 1
 50 375 l 1
EndSplineSet
EndChar

StartChar: cacute
Encoding: 263 263 301
Width: 300
Flags: W
LayerCount: 2
Fore
SplineSet
 50 375 m 1
 112.5 500 l 1
 150 500 l 1
 150 575 l 1
 212.5 700 l 1
 250 700 l 1
 250 625 l 1
 200 525 l 1
 200 500 l 1
 300 500 l 1
 300 400 l 1
 137.5 400 l 1
 100 325 l 1
 100 175 l 1
 137.5 100 l 1
 300 100 l 1
 300 0 l 1
 112.5 0 l 1
 50 125 l 1
 50 375 l 1
EndSplineSet
EndChar

StartChar: Ccircumflex
Encoding: 264 264 302
Width: 300
Flags: W
LayerCount: 2
Fore
SplineSet
 100 475 m 1
 100 575 l 1
 162.5 700 l 1
 187.5 700 l 1
 250 575 l 1
 250 475 l 1
 300 375 l 1
 300 300 l 1
 262.5 300 l 1
 212.5 400 l 1
 137.5 400 l 1
 100 325 l 1
 100 175 l 1
 137.5 100 l 1
 212.5 100 l 1
 262.5 200 l 1
 300 200 l 1
 300 125 l 1
 237.5 0 l 1
 112.5 0 l 1
 50 125 l 1
 50 375 l 1
 100 475 l 1
 150 525 m 1
 150 500 l 1
 200 500 l 1
 200 525 l 1
 175 575 l 1
 150 525 l 1
EndSplineSet
EndChar

StartChar: ccircumflex
Encoding: 265 265 303
Width: 300
Flags: W
LayerCount: 2
Fore
SplineSet
 100 475 m 1
 100 575 l 1
 162.5 700 l 1
 187.5 700 l 1
 250 575 l 1
 250 500 l 1
 300 500 l 1
 300 400 l 1
 137.5 400 l 1
 100 325 l 1
 100 175 l 1
 137.5 100 l 1
 300 100 l 1
 300 0 l 1
 112.5 0 l 1
 50 125 l 1
 50 375 l 1
 100 475 l 1
 150 525 m 1
 150 500 l 1
 200 500 l 1
 200 525 l 1
 175 575 l 1
 150 525 l 1
EndSplineSet
EndChar

StartChar: Cdotaccent
Encoding: 266 266 304
Width: 300
Flags: W
LayerCount: 2
Fore
SplineSet
 50 375 m 1
 112.5 500 l 1
 237.5 500 l 1
 300 375 l 1
 300 300 l 1
 262.5 300 l 1
 212.5 400 l 1
 137.5 400 l 1
 100 325 l 1
 100 175 l 1
 137.5 100 l 1
 212.5 100 l 1
 262.5 200 l 1
 300 200 l 1
 300 125 l 1
 237.5 0 l 1
 112.5 0 l 1
 50 125 l 1
 50 375 l 1
 150 600 m 1
 150 700 l 1
 200 700 l 1
 200 600 l 1
 150 600 l 1
EndSplineSet
EndChar

StartChar: cdotaccent
Encoding: 267 267 305
Width: 300
Flags: W
LayerCount: 2
Fore
SplineSet
 50 375 m 1
 112.5 500 l 1
 300 500 l 1
 300 400 l 1
 137.5 400 l 1
 100 325 l 1
 100 175 l 1
 137.5 100 l 1
 300 100 l 1
 300 0 l 1
 112.5 0 l 1
 50 125 l 1
 50 375 l 1
 150 600 m 1
 150 700 l 1
 200 700 l 1
 200 600 l 1
 150 600 l 1
EndSplineSet
EndChar

StartChar: Ccaron
Encoding: 268 268 306
Width: 300
Flags: W
LayerCount: 2
Fore
SplineSet
 50 375 m 1
 112.5 500 l 1
 150 500 l 1
 150 525 l 1
 100 625 l 1
 100 700 l 1
 137.5 700 l 1
 175 625 l 1
 212.5 700 l 1
 250 700 l 1
 250 625 l 1
 200 525 l 1
 200 500 l 1
 237.5 500 l 1
 300 375 l 1
 300 300 l 1
 262.5 300 l 1
 212.5 400 l 1
 137.5 400 l 1
 100 325 l 1
 100 175 l 1
 137.5 100 l 1
 212.5 100 l 1
 262.5 200 l 1
 300 200 l 1
 300 125 l 1
 237.5 0 l 1
 112.5 0 l 1
 50 125 l 1
 50 375 l 1
EndSplineSet
EndChar

StartChar: ccaron
Encoding: 269 269 307
Width: 300
Flags: W
LayerCount: 2
Fore
SplineSet
 50 375 m 1
 112.5 500 l 1
 150 500 l 1
 150 525 l 1
 100 625 l 1
 100 700 l 1
 137.5 700 l 1
 175 625 l 1
 212.5 700 l 1
 250 700 l 1
 250 625 l 1
 200 525 l 1
 200 500 l 1
 300 500 l 1
 300 400 l 1
 137.5 400 l 1
 100 325 l 1
 100 175 l 1
 137.5 100 l 1
 300 100 l 1
 300 0 l 1
 112.5 0 l 1
 50 125 l 1
 50 375 l 1
EndSplineSet
EndChar

StartChar: Dcaron
Encoding: 270 270 308
Width: 300
Flags: W
LayerCount: 2
Fore
SplineSet
 50 500 m 1
 150 500 l 1
 150 525 l 1
 100 625 l 1
 100 700 l 1
 137.5 700 l 1
 175 625 l 1
 212.5 700 l 1
 250 700 l 1
 250 625 l 1
 200 525 l 1
 200 500 l 1
 237.5 500 l 1
 300 375 l 1
 300 125 l 1
 237.5 0 l 1
 50 0 l 1
 50 500 l 1
 100 400 m 1
 100 100 l 1
 212.5 100 l 1
 250 175 l 1
 250 325 l 1
 212.5 400 l 1
 100 400 l 1
EndSplineSet
EndChar

StartChar: dcaron
Encoding: 271 271 309
Width: 300
Flags: W
LayerCount: 2
Fore
SplineSet
 50 375 m 1
 112.5 500 l 1
 150 500 l 1
 150 700 l 1
 200 700 l 1
 200 0 l 1
 112.5 0 l 1
 50 125 l 1
 50 375 l 1
 137.5 400 m 1
 100 325 l 1
 100 175 l 1
 137.5 100 l 1
 150 100 l 1
 150 400 l 1
 137.5 400 l 1
 250 700 m 1
 300 700 l 1
 300 500 l 1
 250 500 l 1
 250 700 l 1
EndSplineSet
EndChar

StartChar: Dcroat
Encoding: 272 272 310
Width: 300
Flags: W
LayerCount: 2
Fore
SplineSet
 50 300 m 1
 50 400 l 1
 100 400 l 1
 100 700 l 1
 237.5 700 l 1
 300 575 l 1
 300 125 l 1
 237.5 0 l 1
 100 0 l 1
 100 300 l 1
 50 300 l 1
 150 600 m 1
 150 400 l 1
 200 400 l 1
 200 300 l 1
 150 300 l 1
 150 100 l 1
 212.5 100 l 1
 250 175 l 1
 250 525 l 1
 212.5 600 l 1
 150 600 l 1
EndSplineSet
EndChar

StartChar: dcroat
Encoding: 273 273 311
Width: 300
Flags: W
LayerCount: 2
Fore
SplineSet
 50 275 m 1
 112.5 400 l 1
 200 400 l 1
 200 500 l 1
 150 500 l 1
 150 600 l 1
 200 600 l 1
 200 700 l 1
 250 700 l 1
 250 600 l 1
 300 600 l 1
 300 500 l 1
 250 500 l 1
 250 0 l 1
 112.5 0 l 1
 50 125 l 1
 50 275 l 1
 137.5 300 m 1
 100 225 l 1
 100 175 l 1
 137.5 100 l 1
 200 100 l 1
 200 300 l 1
 137.5 300 l 1
EndSplineSet
EndChar

StartChar: Emacron
Encoding: 274 274 312
Width: 300
Flags: W
LayerCount: 2
Fore
SplineSet
 50 500 m 1
 300 500 l 1
 300 400 l 1
 100 400 l 1
 100 300 l 1
 250 300 l 1
 250 200 l 1
 100 200 l 1
 100 100 l 1
 300 100 l 1
 300 0 l 1
 50 0 l 1
 50 500 l 1
 100 600 m 1
 100 700 l 1
 250 700 l 1
 250 600 l 1
 100 600 l 1
EndSplineSet
EndChar

StartChar: emacron
Encoding: 275 275 313
Width: 300
Flags: W
LayerCount: 2
Fore
SplineSet
 50 375 m 1
 112.5 500 l 1
 237.5 500 l 1
 300 375 l 1
 300 200 l 1
 100 200 l 1
 100 175 l 1
 137.5 100 l 1
 250 100 l 1
 250 0 l 1
 112.5 0 l 1
 50 125 l 1
 50 375 l 1
 100 600 m 1
 100 700 l 1
 250 700 l 1
 250 600 l 1
 100 600 l 1
 137.5 400 m 1
 100 325 l 1
 100 300 l 1
 250 300 l 1
 250 325 l 1
 212.5 400 l 1
 137.5 400 l 1
EndSplineSet
EndChar

StartChar: Edotaccent
Encoding: 278 278 314
Width: 300
Flags: W
LayerCount: 2
Fore
SplineSet
 50 500 m 1
 300 500 l 1
 300 400 l 1
 100 400 l 1
 100 300 l 1
 250 300 l 1
 250 200 l 1
 100 200 l 1
 100 100 l 1
 300 100 l 1
 300 0 l 1
 50 0 l 1
 50 500 l 1
 150 600 m 1
 150 700 l 1
 200 700 l 1
 200 600 l 1
 150 600 l 1
EndSplineSet
EndChar

StartChar: edotaccent
Encoding: 279 279 315
Width: 300
Flags: W
LayerCount: 2
Fore
SplineSet
 50 375 m 1
 112.5 500 l 1
 237.5 500 l 1
 300 375 l 1
 300 200 l 1
 100 200 l 1
 100 175 l 1
 137.5 100 l 1
 250 100 l 1
 250 0 l 1
 112.5 0 l 1
 50 125 l 1
 50 375 l 1
 137.5 400 m 1
 100 325 l 1
 100 300 l 1
 250 300 l 1
 250 325 l 1
 212.5 400 l 1
 137.5 400 l 1
 150 600 m 1
 150 700 l 1
 200 700 l 1
 200 600 l 1
 150 600 l 1
EndSplineSet
EndChar

StartChar: Ecaron
Encoding: 282 282 316
Width: 300
Flags: W
LayerCount: 2
Fore
SplineSet
 50 500 m 1
 150 500 l 1
 150 525 l 1
 100 625 l 1
 100 700 l 1
 137.5 700 l 1
 175 625 l 1
 212.5 700 l 1
 250 700 l 1
 250 625 l 1
 200 525 l 1
 200 500 l 1
 300 500 l 1
 300 400 l 1
 100 400 l 1
 100 300 l 1
 250 300 l 1
 250 200 l 1
 100 200 l 1
 100 100 l 1
 300 100 l 1
 300 0 l 1
 50 0 l 1
 50 500 l 1
EndSplineSet
EndChar

StartChar: ecaron
Encoding: 283 283 317
Width: 300
Flags: W
LayerCount: 2
Fore
SplineSet
 50 375 m 1
 112.5 500 l 1
 150 500 l 1
 150 525 l 1
 100 625 l 1
 100 700 l 1
 137.5 700 l 1
 175 625 l 1
 212.5 700 l 1
 250 700 l 1
 250 625 l 1
 200 525 l 1
 200 500 l 1
 237.5 500 l 1
 300 375 l 1
 300 200 l 1
 100 200 l 1
 100 175 l 1
 137.5 100 l 1
 250 100 l 1
 250 0 l 1
 112.5 0 l 1
 50 125 l 1
 50 375 l 1
 137.5 400 m 1
 100 325 l 1
 100 300 l 1
 250 300 l 1
 250 325 l 1
 212.5 400 l 1
 137.5 400 l 1
EndSplineSet
EndChar

StartChar: Gcircumflex
Encoding: 284 284 318
Width: 300
Flags: W
LayerCount: 2
Fore
SplineSet
 100 475 m 1
 100 575 l 1
 162.5 700 l 1
 187.5 700 l 1
 250 575 l 1
 250 500 l 1
 300 500 l 1
 300 400 l 1
 137.5 400 l 1
 100 325 l 1
 100 175 l 1
 137.5 100 l 1
 250 100 l 1
 250 200 l 1
 200 200 l 1
 200 300 l 1
 300 300 l 1
 300 0 l 1
 112.5 0 l 1
 50 125 l 1
 50 375 l 1
 100 475 l 1
 150 525 m 1
 150 500 l 1
 200 500 l 1
 200 525 l 1
 175 575 l 1
 150 525 l 1
EndSplineSet
EndChar

StartChar: gcircumflex
Encoding: 285 285 319
Width: 300
Flags: W
LayerCount: 2
Fore
SplineSet
 100 475 m 1
 100 575 l 1
 162.5 700 l 1
 187.5 700 l 1
 250 575 l 1
 250 500 l 1
 300 500 l 1
 300 -75 l 1
 237.5 -200 l 1
 100 -200 l 1
 100 -100 l 1
 212.5 -100 l 1
 250 -25 l 1
 250 0 l 1
 112.5 0 l 1
 50 125 l 1
 50 375 l 1
 100 475 l 1
 137.5 400 m 1
 100 325 l 1
 100 175 l 1
 137.5 100 l 1
 250 100 l 1
 250 400 l 1
 137.5 400 l 1
 150 525 m 1
 150 500 l 1
 200 500 l 1
 200 525 l 1
 175 575 l 1
 150 525 l 1
EndSplineSet
EndChar

StartChar: Gdotaccent
Encoding: 288 288 320
Width: 300
Flags: W
LayerCount: 2
Fore
SplineSet
 50 375 m 1
 112.5 500 l 1
 300 500 l 1
 300 400 l 1
 137.5 400 l 1
 100 325 l 1
 100 175 l 1
 137.5 100 l 1
 250 100 l 1
 250 200 l 1
 200 200 l 1
 200 300 l 1
 300 300 l 1
 300 0 l 1
 112.5 0 l 1
 50 125 l 1
 50 375 l 1
 150 600 m 1
 150 700 l 1
 200 700 l 1
 200 600 l 1
 150 600 l 1
EndSplineSet
EndChar

StartChar: gdotaccent
Encoding: 289 289 321
Width: 300
Flags: W
LayerCount: 2
Fore
SplineSet
 50 375 m 1
 112.5 500 l 1
 300 500 l 1
 300 -75 l 1
 237.5 -200 l 1
 100 -200 l 1
 100 -100 l 1
 212.5 -100 l 1
 250 -25 l 1
 250 0 l 1
 112.5 0 l 1
 50 125 l 1
 50 375 l 1
 137.5 400 m 1
 100 325 l 1
 100 175 l 1
 137.5 100 l 1
 250 100 l 1
 250 400 l 1
 137.5 400 l 1
 150 600 m 1
 150 700 l 1
 200 700 l 1
 200 600 l 1
 150 600 l 1
EndSplineSet
EndChar

StartChar: Hbar
Encoding: 294 294 322
Width: 300
Flags: W
LayerCount: 2
Fore
SplineSet
 50 700 m 1
 100 700 l 1
 100 600 l 1
 250 600 l 1
 250 700 l 1
 300 700 l 1
 300 0 l 1
 250 0 l 1
 250 300 l 1
 100 300 l 1
 100 0 l 1
 50 0 l 1
 50 700 l 1
 100 500 m 1
 100 400 l 1
 250 400 l 1
 250 500 l 1
 100 500 l 1
EndSplineSet
EndChar

StartChar: hbar
Encoding: 295 295 323
Width: 300
Flags: W
LayerCount: 2
Fore
SplineSet
 50 500 m 1
 50 600 l 1
 100 600 l 1
 100 700 l 1
 150 700 l 1
 150 600 l 1
 200 600 l 1
 200 500 l 1
 150 500 l 1
 150 400 l 1
 237.5 400 l 1
 300 275 l 1
 300 0 l 1
 250 0 l 1
 250 225 l 1
 212.5 300 l 1
 150 300 l 1
 150 0 l 1
 100 0 l 1
 100 500 l 1
 50 500 l 1
EndSplineSet
EndChar

StartChar: Imacron
Encoding: 298 298 324
Width: 300
Flags: W
LayerCount: 2
Position2: "palt" dx=-50 dy=0 dh=-100 dv=0
Fore
SplineSet
 100 600 m 1
 100 700 l 1
 250 700 l 1
 250 600 l 1
 100 600 l 1
 100 400 m 1
 100 500 l 1
 250 500 l 1
 250 400 l 1
 200 400 l 1
 200 100 l 1
 250 100 l 1
 250 0 l 1
 100 0 l 1
 100 100 l 1
 150 100 l 1
 150 400 l 1
 100 400 l 1
EndSplineSet
EndChar

StartChar: imacron
Encoding: 299 299 325
Width: 300
Flags: W
LayerCount: 2
Position2: "palt" dx=-50 dy=0 dh=-100 dv=0
Fore
SplineSet
 100 600 m 1
 100 700 l 1
 250 700 l 1
 250 600 l 1
 100 600 l 1
 100 400 m 1
 100 500 l 1
 200 500 l 1
 200 100 l 1
 250 100 l 1
 250 0 l 1
 100 0 l 1
 100 100 l 1
 150 100 l 1
 150 400 l 1
 100 400 l 1
EndSplineSet
EndChar

StartChar: Idotaccent
Encoding: 304 304 326
Width: 300
Flags: W
LayerCount: 2
Position2: "palt" dx=-50 dy=0 dh=-100 dv=0
Fore
SplineSet
 100 400 m 1
 100 500 l 1
 250 500 l 1
 250 400 l 1
 200 400 l 1
 200 100 l 1
 250 100 l 1
 250 0 l 1
 100 0 l 1
 100 100 l 1
 150 100 l 1
 150 400 l 1
 100 400 l 1
 150 600 m 1
 150 700 l 1
 200 700 l 1
 200 600 l 1
 150 600 l 1
EndSplineSet
EndChar

StartChar: dotlessi
Encoding: 305 305 327
Width: 300
Flags: W
LayerCount: 2
Position2: "palt" dx=-50 dy=0 dh=-100 dv=0
Fore
SplineSet
 100 400 m 1
 100 500 l 1
 200 500 l 1
 200 100 l 1
 250 100 l 1
 250 0 l 1
 100 0 l 1
 100 100 l 1
 150 100 l 1
 150 400 l 1
 100 400 l 1
EndSplineSet
EndChar

StartChar: IJ
Encoding: 306 306 328
Width: 300
Flags: W
LayerCount: 2
Fore
SplineSet
 50 700 m 1
 100 700 l 1
 100 0 l 1
 50 0 l 1
 50 700 l 1
 150 125 m 1
 150 200 l 1
 187.5 200 l 1
 225 125 l 1
 250 175 l 1
 250 700 l 1
 300 700 l 1
 300 125 l 1
 237.5 0 l 1
 212.5 0 l 1
 150 125 l 1
EndSplineSet
EndChar

StartChar: ij
Encoding: 307 307 329
Width: 300
Flags: W
LayerCount: 2
Fore
SplineSet
 50 400 m 1
 50 500 l 1
 150 500 l 1
 150 100 l 1
 200 100 l 1
 200 0 l 1
 50 0 l 1
 50 100 l 1
 100 100 l 1
 100 400 l 1
 50 400 l 1
 100 600 m 1
 100 700 l 1
 150 700 l 1
 150 600 l 1
 100 600 l 1
 250 -25 m 1
 250 500 l 1
 300 500 l 1
 300 -75 l 1
 237.5 -200 l 1
 200 -200 l 1
 200 -125 l 1
 250 -25 l 1
 250 600 m 1
 250 700 l 1
 300 700 l 1
 300 600 l 1
 250 600 l 1
EndSplineSet
EndChar

StartChar: kgreenlandic
Encoding: 312 312 330
Width: 300
Flags: W
LayerCount: 2
Fore
SplineSet
 50 500 m 1
 100 500 l 1
 100 300 l 1
 162.5 300 l 1
 262.5 500 l 1
 300 500 l 1
 300 425 l 1
 212.5 250 l 1
 300 75 l 1
 300 0 l 1
 262.5 0 l 1
 162.5 200 l 1
 100 200 l 1
 100 0 l 1
 50 0 l 1
 50 500 l 1
EndSplineSet
EndChar

StartChar: Ldot
Encoding: 319 319 331
Width: 300
Flags: W
LayerCount: 2
Fore
SplineSet
 50 700 m 1
 100 700 l 1
 100 100 l 1
 300 100 l 1
 300 0 l 1
 50 0 l 1
 50 700 l 1
 250 300 m 1
 250 400 l 1
 300 400 l 1
 300 300 l 1
 250 300 l 1
EndSplineSet
EndChar

StartChar: ldot
Encoding: 320 320 332
Width: 300
Flags: W
LayerCount: 2
Fore
SplineSet
 50 600 m 1
 50 700 l 1
 150 700 l 1
 150 100 l 1
 200 100 l 1
 200 0 l 1
 50 0 l 1
 50 100 l 1
 100 100 l 1
 100 600 l 1
 50 600 l 1
 250 300 m 1
 250 400 l 1
 300 400 l 1
 300 300 l 1
 250 300 l 1
EndSplineSet
EndChar

StartChar: Ncaron
Encoding: 327 327 333
Width: 300
Flags: W
LayerCount: 2
Fore
SplineSet
 50 500 m 1
 100 500 l 1
 100 400 l 1
 137.5 400 l 1
 237.5 200 l 1
 250 200 l 1
 250 500 l 1
 300 500 l 1
 300 0 l 1
 250 0 l 1
 250 100 l 1
 212.5 100 l 1
 112.5 300 l 1
 100 300 l 1
 100 0 l 1
 50 0 l 1
 50 500 l 1
 100 625 m 1
 100 700 l 1
 137.5 700 l 1
 175 625 l 1
 212.5 700 l 1
 250 700 l 1
 250 625 l 1
 187.5 500 l 1
 162.5 500 l 1
 100 625 l 1
EndSplineSet
EndChar

StartChar: ncaron
Encoding: 328 328 334
Width: 300
Flags: W
LayerCount: 2
Fore
SplineSet
 50 500 m 1
 150 500 l 1
 150 525 l 1
 100 625 l 1
 100 700 l 1
 137.5 700 l 1
 175 625 l 1
 212.5 700 l 1
 250 700 l 1
 250 625 l 1
 200 525 l 1
 200 500 l 1
 237.5 500 l 1
 300 375 l 1
 300 0 l 1
 250 0 l 1
 250 325 l 1
 212.5 400 l 1
 100 400 l 1
 100 0 l 1
 50 0 l 1
 50 500 l 1
EndSplineSet
EndChar

StartChar: Eng
Encoding: 330 330 335
Width: 300
Flags: W
LayerCount: 2
Fore
SplineSet
 50 700 m 1
 100 700 l 1
 100 500 l 1
 137.5 500 l 1
 237.5 300 l 1
 250 300 l 1
 250 700 l 1
 300 700 l 1
 300 -75 l 1
 237.5 -200 l 1
 100 -200 l 1
 100 -100 l 1
 212.5 -100 l 1
 250 -25 l 1
 250 200 l 1
 212.5 200 l 1
 112.5 400 l 1
 100 400 l 1
 100 0 l 1
 50 0 l 1
 50 700 l 1
EndSplineSet
EndChar

StartChar: eng
Encoding: 331 331 336
Width: 300
Flags: W
LayerCount: 2
Fore
SplineSet
 50 500 m 1
 237.5 500 l 1
 300 375 l 1
 300 -75 l 1
 237.5 -200 l 1
 100 -200 l 1
 100 -100 l 1
 212.5 -100 l 1
 250 -25 l 1
 250 325 l 1
 212.5 400 l 1
 100 400 l 1
 100 0 l 1
 50 0 l 1
 50 500 l 1
EndSplineSet
EndChar

StartChar: Omacron
Encoding: 332 332 337
Width: 300
Flags: W
LayerCount: 2
Fore
SplineSet
 50 375 m 1
 112.5 500 l 1
 237.5 500 l 1
 300 375 l 1
 300 125 l 1
 237.5 0 l 1
 112.5 0 l 1
 50 125 l 1
 50 375 l 1
 100 600 m 1
 100 700 l 1
 250 700 l 1
 250 600 l 1
 100 600 l 1
 137.5 400 m 1
 100 325 l 1
 100 175 l 1
 137.5 100 l 1
 212.5 100 l 1
 250 175 l 1
 250 325 l 1
 212.5 400 l 1
 137.5 400 l 1
EndSplineSet
EndChar

StartChar: omacron
Encoding: 333 333 338
Width: 300
Flags: W
LayerCount: 2
Fore
SplineSet
 50 275 m 1
 112.5 400 l 1
 237.5 400 l 1
 300 275 l 1
 300 125 l 1
 237.5 0 l 1
 112.5 0 l 1
 50 125 l 1
 50 275 l 1
 100 500 m 1
 100 600 l 1
 250 600 l 1
 250 500 l 1
 100 500 l 1
 137.5 300 m 1
 100 225 l 1
 100 175 l 1
 137.5 100 l 1
 212.5 100 l 1
 250 175 l 1
 250 225 l 1
 212.5 300 l 1
 137.5 300 l 1
EndSplineSet
EndChar

StartChar: OE
Encoding: 338 338 339
Width: 300
Flags: W
LayerCount: 2
Fore
SplineSet
 50 575 m 1
 112.5 700 l 1
 300 700 l 1
 300 600 l 1
 200 600 l 1
 200 400 l 1
 250 400 l 1
 250 300 l 1
 200 300 l 1
 200 100 l 1
 300 100 l 1
 300 0 l 1
 112.5 0 l 1
 50 125 l 1
 50 575 l 1
 137.5 600 m 1
 100 525 l 1
 100 175 l 1
 137.5 100 l 1
 150 100 l 1
 150 600 l 1
 137.5 600 l 1
EndSplineSet
EndChar

StartChar: oe
Encoding: 339 339 340
Width: 300
Flags: W
LayerCount: 2
Fore
SplineSet
 50 375 m 1
 112.5 500 l 1
 137.5 500 l 1
 175 425 l 1
 212.5 500 l 1
 237.5 500 l 1
 300 375 l 1
 300 200 l 1
 200 200 l 1
 200 175 l 1
 237.5 100 l 1
 300 100 l 1
 300 0 l 1
 212.5 0 l 1
 175 75 l 1
 137.5 0 l 1
 112.5 0 l 1
 50 125 l 1
 50 375 l 1
 100 325 m 1
 100 175 l 1
 125 125 l 1
 150 175 l 1
 150 325 l 1
 125 375 l 1
 100 325 l 1
 200 325 m 1
 200 300 l 1
 250 300 l 1
 250 325 l 1
 225 375 l 1
 200 325 l 1
EndSplineSet
EndChar

StartChar: Rcaron
Encoding: 344 344 341
Width: 300
Flags: W
LayerCount: 2
Fore
SplineSet
 50 500 m 1
 150 500 l 1
 150 525 l 1
 100 625 l 1
 100 700 l 1
 137.5 700 l 1
 175 625 l 1
 212.5 700 l 1
 250 700 l 1
 250 625 l 1
 200 525 l 1
 200 500 l 1
 237.5 500 l 1
 300 375 l 1
 300 325 l 1
 250 225 l 1
 250 175 l 1
 300 75 l 1
 300 0 l 1
 262.5 0 l 1
 200 125 l 1
 200 200 l 1
 100 200 l 1
 100 0 l 1
 50 0 l 1
 50 500 l 1
 100 400 m 1
 100 300 l 1
 212.5 300 l 1
 237.5 350 l 1
 212.5 400 l 1
 100 400 l 1
EndSplineSet
EndChar

StartChar: rcaron
Encoding: 345 345 342
Width: 300
Flags: W
LayerCount: 2
Position2: "palt" dx=-50 dy=0 dh=-50 dv=0
Fore
SplineSet
 100 500 m 1
 150 500 l 1
 150 400 l 1
 162.5 400 l 1
 200 475 l 1
 200 525 l 1
 150 625 l 1
 150 700 l 1
 187.5 700 l 1
 225 625 l 1
 262.5 700 l 1
 300 700 l 1
 300 625 l 1
 250 525 l 1
 250 500 l 1
 300 500 l 1
 300 400 l 1
 237.5 400 l 1
 187.5 300 l 1
 150 300 l 1
 150 0 l 1
 100 0 l 1
 100 500 l 1
EndSplineSet
EndChar

StartChar: scaron
Encoding: 353 353 343
Width: 300
Flags: W
LayerCount: 2
Fore
SplineSet
 50 325 m 1
 50 375 l 1
 112.5 500 l 1
 150 500 l 1
 150 525 l 1
 100 625 l 1
 100 700 l 1
 137.5 700 l 1
 175 625 l 1
 212.5 700 l 1
 250 700 l 1
 250 625 l 1
 200 525 l 1
 200 500 l 1
 300 500 l 1
 300 400 l 1
 137.5 400 l 1
 112.5 350 l 1
 137.5 300 l 1
 237.5 300 l 1
 300 175 l 1
 300 125 l 1
 237.5 0 l 1
 50 0 l 1
 50 100 l 1
 212.5 100 l 1
 237.5 150 l 1
 212.5 200 l 1
 112.5 200 l 1
 50 325 l 1
EndSplineSet
EndChar

StartChar: Tcaron
Encoding: 356 356 344
Width: 300
Flags: W
LayerCount: 2
Fore
SplineSet
 50 400 m 1
 50 500 l 1
 150 500 l 1
 150 525 l 1
 100 625 l 1
 100 700 l 1
 137.5 700 l 1
 175 625 l 1
 212.5 700 l 1
 250 700 l 1
 250 625 l 1
 200 525 l 1
 200 500 l 1
 300 500 l 1
 300 400 l 1
 200 400 l 1
 200 0 l 1
 150 0 l 1
 150 400 l 1
 50 400 l 1
EndSplineSet
EndChar

StartChar: tcaron
Encoding: 357 357 345
Width: 300
Flags: W
LayerCount: 2
Fore
SplineSet
 50 400 m 1
 50 500 l 1
 100 500 l 1
 100 700 l 1
 150 700 l 1
 150 500 l 1
 200 500 l 1
 200 400 l 1
 150 400 l 1
 150 175 l 1
 200 75 l 1
 200 0 l 1
 162.5 0 l 1
 100 125 l 1
 100 400 l 1
 50 400 l 1
 250 700 m 1
 300 700 l 1
 300 500 l 1
 250 500 l 1
 250 700 l 1
EndSplineSet
EndChar

StartChar: Uring
Encoding: 366 366 346
Width: 300
Flags: W
LayerCount: 2
Fore
SplineSet
 50 500 m 1
 100 500 l 1
 100 175 l 1
 137.5 100 l 1
 212.5 100 l 1
 250 175 l 1
 250 500 l 1
 300 500 l 1
 300 125 l 1
 237.5 0 l 1
 112.5 0 l 1
 50 125 l 1
 50 500 l 1
 150 600 m 1
 150 700 l 1
 200 700 l 1
 200 600 l 1
 150 600 l 1
EndSplineSet
EndChar

StartChar: uring
Encoding: 367 367 347
Width: 300
Flags: W
LayerCount: 2
Fore
SplineSet
 50 500 m 1
 100 500 l 1
 100 175 l 1
 137.5 100 l 1
 250 100 l 1
 250 500 l 1
 300 500 l 1
 300 0 l 1
 112.5 0 l 1
 50 125 l 1
 50 500 l 1
 150 600 m 1
 150 700 l 1
 200 700 l 1
 200 600 l 1
 150 600 l 1
EndSplineSet
EndChar

StartChar: Umacron
Encoding: 362 362 348
Width: 300
Flags: W
LayerCount: 2
Fore
SplineSet
 50 500 m 1
 100 500 l 1
 100 175 l 1
 137.5 100 l 1
 212.5 100 l 1
 250 175 l 1
 250 500 l 1
 300 500 l 1
 300 125 l 1
 237.5 0 l 1
 112.5 0 l 1
 50 125 l 1
 50 500 l 1
 100 600 m 1
 100 700 l 1
 250 700 l 1
 250 600 l 1
 100 600 l 1
EndSplineSet
EndChar

StartChar: umacron
Encoding: 363 363 349
Width: 300
Flags: W
LayerCount: 2
Fore
SplineSet
 50 400 m 1
 100 400 l 1
 100 175 l 1
 137.5 100 l 1
 250 100 l 1
 250 400 l 1
 300 400 l 1
 300 0 l 1
 112.5 0 l 1
 50 125 l 1
 50 400 l 1
 100 500 m 1
 100 600 l 1
 250 600 l 1
 250 500 l 1
 100 500 l 1
EndSplineSet
EndChar

StartChar: Ycircumflex
Encoding: 374 374 350
Width: 300
Flags: W
LayerCount: 2
Fore
SplineSet
 50 325 m 1
 50 400 l 1
 87.5 400 l 1
 175 225 l 1
 262.5 400 l 1
 300 400 l 1
 300 325 l 1
 200 125 l 1
 200 0 l 1
 150 0 l 1
 150 125 l 1
 50 325 l 1
 100 500 m 1
 100 575 l 1
 162.5 700 l 1
 187.5 700 l 1
 250 575 l 1
 250 500 l 1
 212.5 500 l 1
 175 575 l 1
 137.5 500 l 1
 100 500 l 1
EndSplineSet
EndChar

StartChar: ycircumflex
Encoding: 375 375 351
Width: 300
Flags: W
LayerCount: 2
Fore
SplineSet
 50 400 m 1
 100 400 l 1
 100 175 l 1
 137.5 100 l 1
 250 100 l 1
 250 400 l 1
 300 400 l 1
 300 -75 l 1
 237.5 -200 l 1
 100 -200 l 1
 100 -100 l 1
 212.5 -100 l 1
 250 -25 l 1
 250 0 l 1
 112.5 0 l 1
 50 125 l 1
 50 400 l 1
 100 500 m 1
 100 575 l 1
 162.5 700 l 1
 187.5 700 l 1
 250 575 l 1
 250 500 l 1
 212.5 500 l 1
 175 575 l 1
 137.5 500 l 1
 100 500 l 1
EndSplineSet
EndChar

StartChar: Ydieresis
Encoding: 376 376 352
Width: 300
Flags: W
LayerCount: 2
Fore
SplineSet
 50 425 m 1
 50 500 l 1
 87.5 500 l 1
 175 325 l 1
 262.5 500 l 1
 300 500 l 1
 300 425 l 1
 200 225 l 1
 200 0 l 1
 150 0 l 1
 150 225 l 1
 50 425 l 1
 100 600 m 1
 100 700 l 1
 150 700 l 1
 150 600 l 1
 100 600 l 1
 200 600 m 1
 200 700 l 1
 250 700 l 1
 250 600 l 1
 200 600 l 1
EndSplineSet
EndChar

StartChar: Zacute
Encoding: 377 377 353
Width: 300
Flags: W
LayerCount: 2
Fore
SplineSet
 50 400 m 1
 50 500 l 1
 150 500 l 1
 150 575 l 1
 212.5 700 l 1
 250 700 l 1
 250 625 l 1
 200 525 l 1
 200 500 l 1
 300 500 l 1
 300 325 l 1
 237.5 200 l 1
 137.5 200 l 1
 100 125 l 1
 100 100 l 1
 300 100 l 1
 300 0 l 1
 50 0 l 1
 50 175 l 1
 112.5 300 l 1
 212.5 300 l 1
 250 375 l 1
 250 400 l 1
 50 400 l 1
EndSplineSet
EndChar

StartChar: zacute
Encoding: 378 378 354
Width: 300
Flags: W
LayerCount: 2
Fore
SplineSet
 50 400 m 1
 50 500 l 1
 150 500 l 1
 150 575 l 1
 212.5 700 l 1
 250 700 l 1
 250 625 l 1
 200 525 l 1
 200 500 l 1
 300 500 l 1
 300 400 l 1
 250 400 l 1
 250 325 l 1
 150 125 l 1
 150 100 l 1
 300 100 l 1
 300 0 l 1
 50 0 l 1
 50 100 l 1
 100 100 l 1
 100 175 l 1
 200 375 l 1
 200 400 l 1
 50 400 l 1
EndSplineSet
EndChar

StartChar: Zdotaccent
Encoding: 379 379 355
Width: 300
Flags: W
LayerCount: 2
Fore
SplineSet
 50 400 m 1
 50 500 l 1
 300 500 l 1
 300 325 l 1
 237.5 200 l 1
 137.5 200 l 1
 100 125 l 1
 100 100 l 1
 300 100 l 1
 300 0 l 1
 50 0 l 1
 50 175 l 1
 112.5 300 l 1
 212.5 300 l 1
 250 375 l 1
 250 400 l 1
 50 400 l 1
 150 600 m 1
 150 700 l 1
 200 700 l 1
 200 600 l 1
 150 600 l 1
EndSplineSet
EndChar

StartChar: zdotaccent
Encoding: 380 380 356
Width: 300
Flags: W
LayerCount: 2
Fore
SplineSet
 50 400 m 1
 50 500 l 1
 300 500 l 1
 300 400 l 1
 250 400 l 1
 250 325 l 1
 150 125 l 1
 150 100 l 1
 300 100 l 1
 300 0 l 1
 50 0 l 1
 50 100 l 1
 100 100 l 1
 100 175 l 1
 200 375 l 1
 200 400 l 1
 50 400 l 1
 150 600 m 1
 150 700 l 1
 200 700 l 1
 200 600 l 1
 150 600 l 1
EndSplineSet
EndChar

StartChar: Zcaron
Encoding: 381 381 357
Width: 300
Flags: W
LayerCount: 2
Fore
SplineSet
 50 400 m 1
 50 500 l 1
 150 500 l 1
 150 525 l 1
 100 625 l 1
 100 700 l 1
 137.5 700 l 1
 175 625 l 1
 212.5 700 l 1
 250 700 l 1
 250 625 l 1
 200 525 l 1
 200 500 l 1
 300 500 l 1
 300 325 l 1
 237.5 200 l 1
 137.5 200 l 1
 100 125 l 1
 100 100 l 1
 300 100 l 1
 300 0 l 1
 50 0 l 1
 50 175 l 1
 112.5 300 l 1
 212.5 300 l 1
 250 375 l 1
 250 400 l 1
 50 400 l 1
EndSplineSet
EndChar

StartChar: zcaron
Encoding: 382 382 358
Width: 300
Flags: W
LayerCount: 2
Fore
SplineSet
 50 400 m 1
 50 500 l 1
 150 500 l 1
 150 525 l 1
 100 625 l 1
 100 700 l 1
 137.5 700 l 1
 175 625 l 1
 212.5 700 l 1
 250 700 l 1
 250 625 l 1
 200 525 l 1
 200 500 l 1
 300 500 l 1
 300 400 l 1
 250 400 l 1
 250 325 l 1
 150 125 l 1
 150 100 l 1
 300 100 l 1
 300 0 l 1
 50 0 l 1
 50 100 l 1
 100 100 l 1
 100 175 l 1
 200 375 l 1
 200 400 l 1
 50 400 l 1
EndSplineSet
EndChar

StartChar: uni0188
Encoding: 392 392 359
Width: 300
Flags: W
LayerCount: 2
Fore
SplineSet
 50 375 m 1
 112.5 500 l 1
 200 500 l 1
 200 700 l 1
 300 700 l 1
 300 600 l 1
 250 600 l 1
 250 500 l 1
 300 500 l 1
 300 400 l 1
 137.5 400 l 1
 100 325 l 1
 100 175 l 1
 137.5 100 l 1
 300 100 l 1
 300 0 l 1
 112.5 0 l 1
 50 125 l 1
 50 375 l 1
EndSplineSet
EndChar

StartChar: florin
Encoding: 402 402 360
Width: 300
Flags: W
LayerCount: 2
Position2: "palt" dx=-50 dy=0 dh=-100 dv=0
Fore
SplineSet
 100 300 m 1
 100 400 l 1
 150 400 l 1
 150 575 l 1
 212.5 700 l 1
 250 700 l 1
 250 625 l 1
 200 525 l 1
 200 400 l 1
 250 400 l 1
 250 300 l 1
 200 300 l 1
 200 -75 l 1
 137.5 -200 l 1
 100 -200 l 1
 100 -125 l 1
 150 -25 l 1
 150 300 l 1
 100 300 l 1
EndSplineSet
EndChar

StartChar: uni0199
Encoding: 409 409 361
Width: 300
Flags: W
LayerCount: 2
Position2: "palt" dx=-50 dy=0 dh=-50 dv=0
Fore
SplineSet
 100 575 m 1
 162.5 700 l 1
 250 700 l 1
 250 600 l 1
 187.5 600 l 1
 150 525 l 1
 150 300 l 1
 162.5 300 l 1
 262.5 500 l 1
 300 500 l 1
 300 425 l 1
 212.5 250 l 1
 300 75 l 1
 300 0 l 1
 262.5 0 l 1
 162.5 200 l 1
 150 200 l 1
 150 0 l 1
 100 0 l 1
 100 575 l 1
EndSplineSet
EndChar

StartChar: uni019B
Encoding: 411 411 362
Width: 300
Flags: W
LayerCount: 2
Fore
SplineSet
 50 600 m 1
 50 700 l 1
 137.5 700 l 1
 200 575 l 1
 200 500 l 1
 250 500 l 1
 250 400 l 1
 200 400 l 1
 200 375 l 1
 250 275 l 1
 250 175 l 1
 300 75 l 1
 300 0 l 1
 262.5 0 l 1
 200 125 l 1
 200 225 l 1
 175 275 l 1
 150 225 l 1
 150 125 l 1
 87.5 0 l 1
 50 0 l 1
 50 75 l 1
 100 175 l 1
 100 275 l 1
 150 375 l 1
 150 400 l 1
 100 400 l 1
 100 500 l 1
 150 500 l 1
 150 525 l 1
 112.5 600 l 1
 50 600 l 1
EndSplineSet
EndChar

StartChar: uni019E
Encoding: 414 414 363
Width: 300
Flags: W
LayerCount: 2
Fore
SplineSet
 50 500 m 1
 237.5 500 l 1
 300 375 l 1
 300 -200 l 1
 250 -200 l 1
 250 325 l 1
 212.5 400 l 1
 100 400 l 1
 100 0 l 1
 50 0 l 1
 50 500 l 1
EndSplineSet
EndChar

StartChar: uni01A5
Encoding: 421 421 364
Width: 300
Flags: W
LayerCount: 2
Fore
SplineSet
 50 575 m 1
 112.5 700 l 1
 200 700 l 1
 200 600 l 1
 137.5 600 l 1
 100 525 l 1
 100 500 l 1
 237.5 500 l 1
 300 375 l 1
 300 125 l 1
 237.5 0 l 1
 100 0 l 1
 100 -200 l 1
 50 -200 l 1
 50 575 l 1
 100 400 m 1
 100 100 l 1
 212.5 100 l 1
 250 175 l 1
 250 325 l 1
 212.5 400 l 1
 100 400 l 1
EndSplineSet
EndChar

StartChar: uni01AB
Encoding: 427 427 365
Width: 300
Flags: W
LayerCount: 2
Position2: "palt" dx=-50 dy=0 dh=-100 dv=0
Fore
SplineSet
 100 400 m 1
 100 500 l 1
 150 500 l 1
 150 700 l 1
 200 700 l 1
 200 500 l 1
 250 500 l 1
 250 400 l 1
 200 400 l 1
 200 175 l 1
 250 75 l 1
 250 25 l 1
 187.5 -100 l 1
 100 -100 l 1
 100 0 l 1
 162.5 0 l 1
 187.5 50 l 1
 150 125 l 1
 150 400 l 1
 100 400 l 1
EndSplineSet
EndChar

StartChar: uni01AD
Encoding: 429 429 366
Width: 300
Flags: W
LayerCount: 2
Position2: "palt" dx=-50 dy=0 dh=-100 dv=0
Fore
SplineSet
 100 400 m 1
 100 500 l 1
 150 500 l 1
 150 575 l 1
 212.5 700 l 1
 250 700 l 1
 250 625 l 1
 200 525 l 1
 200 500 l 1
 250 500 l 1
 250 400 l 1
 200 400 l 1
 200 175 l 1
 250 75 l 1
 250 0 l 1
 212.5 0 l 1
 150 125 l 1
 150 400 l 1
 100 400 l 1
EndSplineSet
EndChar

StartChar: uni01BB
Encoding: 443 443 367
Width: 300
Flags: W
LayerCount: 2
Fore
SplineSet
 50 500 m 1
 50 575 l 1
 112.5 700 l 1
 237.5 700 l 1
 300 575 l 1
 300 425 l 1
 262.5 350 l 1
 300 275 l 1
 300 200 l 1
 262.5 200 l 1
 225 275 l 1
 187.5 200 l 1
 137.5 200 l 1
 100 125 l 1
 100 100 l 1
 300 100 l 1
 300 0 l 1
 50 0 l 1
 50 175 l 1
 112.5 300 l 1
 162.5 300 l 1
 187.5 350 l 1
 150 425 l 1
 150 500 l 1
 187.5 500 l 1
 225 425 l 1
 250 475 l 1
 250 525 l 1
 212.5 600 l 1
 137.5 600 l 1
 87.5 500 l 1
 50 500 l 1
EndSplineSet
EndChar

StartChar: uni01C0
Encoding: 448 448 368
Width: 300
Flags: W
LayerCount: 2
Position2: "palt" dx=-100 dy=0 dh=-200 dv=0
Fore
SplineSet
 150 700 m 1
 200 700 l 1
 200 -200 l 1
 150 -200 l 1
 150 700 l 1
EndSplineSet
EndChar

StartChar: uni01C1
Encoding: 449 449 369
Width: 300
Flags: W
LayerCount: 2
Position2: "palt" dx=-50 dy=0 dh=-100 dv=0
Fore
SplineSet
 100 700 m 1
 150 700 l 1
 150 -200 l 1
 100 -200 l 1
 100 700 l 1
 200 700 m 1
 250 700 l 1
 250 -200 l 1
 200 -200 l 1
 200 700 l 1
EndSplineSet
EndChar

StartChar: uni01C2
Encoding: 450 450 370
Width: 300
Flags: W
LayerCount: 2
Fore
SplineSet
 50 300 m 1
 50 400 l 1
 150 400 l 1
 150 700 l 1
 200 700 l 1
 200 400 l 1
 300 400 l 1
 300 300 l 1
 200 300 l 1
 200 200 l 1
 300 200 l 1
 300 100 l 1
 200 100 l 1
 200 -200 l 1
 150 -200 l 1
 150 100 l 1
 50 100 l 1
 50 200 l 1
 150 200 l 1
 150 300 l 1
 50 300 l 1
EndSplineSet
EndChar

StartChar: uni01C3
Encoding: 451 451 371
Width: 300
Flags: W
LayerCount: 2
Position2: "palt" dx=-100 dy=0 dh=-200 dv=0
Fore
SplineSet
 150 700 m 1
 200 700 l 1
 200 200 l 1
 150 200 l 1
 150 700 l 1
 150 0 m 1
 150 100 l 1
 200 100 l 1
 200 0 l 1
 150 0 l 1
EndSplineSet
EndChar

StartChar: uni01F0
Encoding: 496 496 372
Width: 300
Flags: W
LayerCount: 2
Position2: "palt" dx=-50 dy=0 dh=-100 dv=0
Fore
SplineSet
 100 625 m 1
 100 700 l 1
 137.5 700 l 1
 175 625 l 1
 212.5 700 l 1
 250 700 l 1
 250 625 l 1
 187.5 500 l 1
 162.5 500 l 1
 100 625 l 1
 150 -25 m 1
 150 400 l 1
 200 400 l 1
 200 -75 l 1
 137.5 -200 l 1
 100 -200 l 1
 100 -125 l 1
 150 -25 l 1
EndSplineSet
EndChar

StartChar: uni0250
Encoding: 592 592 373
Width: 300
Flags: W
LayerCount: 2
Fore
SplineSet
 50 500 m 1
 237.5 500 l 1
 300 375 l 1
 300 325 l 1
 237.5 200 l 1
 100 200 l 1
 100 175 l 1
 137.5 100 l 1
 250 100 l 1
 250 0 l 1
 112.5 0 l 1
 50 125 l 1
 50 500 l 1
 100 400 m 1
 100 300 l 1
 212.5 300 l 1
 237.5 350 l 1
 212.5 400 l 1
 100 400 l 1
EndSplineSet
EndChar

StartChar: uni0251
Encoding: 593 593 374
Width: 300
Flags: W
LayerCount: 2
Fore
SplineSet
 50 375 m 1
 112.5 500 l 1
 300 500 l 1
 300 0 l 1
 250 0 l 1
 250 100 l 1
 237.5 100 l 1
 187.5 0 l 1
 112.5 0 l 1
 50 125 l 1
 50 375 l 1
 137.5 400 m 1
 100 325 l 1
 100 175 l 1
 137.5 100 l 1
 162.5 100 l 1
 212.5 200 l 1
 250 200 l 1
 250 400 l 1
 137.5 400 l 1
EndSplineSet
EndChar

StartChar: uni0252
Encoding: 594 594 375
Width: 300
Flags: W
LayerCount: 2
Fore
SplineSet
 50 500 m 1
 100 500 l 1
 100 400 l 1
 112.5 400 l 1
 162.5 500 l 1
 237.5 500 l 1
 300 375 l 1
 300 125 l 1
 237.5 0 l 1
 50 0 l 1
 50 500 l 1
 100 300 m 1
 100 100 l 1
 212.5 100 l 1
 250 175 l 1
 250 325 l 1
 212.5 400 l 1
 187.5 400 l 1
 137.5 300 l 1
 100 300 l 1
EndSplineSet
EndChar

StartChar: uni0253
Encoding: 595 595 376
Width: 300
Flags: W
LayerCount: 2
Fore
SplineSet
 50 575 m 1
 112.5 700 l 1
 200 700 l 1
 200 600 l 1
 137.5 600 l 1
 100 525 l 1
 100 500 l 1
 237.5 500 l 1
 300 375 l 1
 300 125 l 1
 237.5 0 l 1
 50 0 l 1
 50 575 l 1
 100 400 m 1
 100 100 l 1
 212.5 100 l 1
 250 175 l 1
 250 325 l 1
 212.5 400 l 1
 100 400 l 1
EndSplineSet
EndChar

StartChar: uni0254
Encoding: 596 596 377
Width: 300
Flags: W
LayerCount: 2
Fore
SplineSet
 50 400 m 1
 50 500 l 1
 237.5 500 l 1
 300 375 l 1
 300 125 l 1
 237.5 0 l 1
 50 0 l 1
 50 100 l 1
 212.5 100 l 1
 250 175 l 1
 250 325 l 1
 212.5 400 l 1
 50 400 l 1
EndSplineSet
EndChar

StartChar: uni0255
Encoding: 597 597 378
Width: 300
Flags: W
LayerCount: 2
Fore
SplineSet
 50 375 m 1
 112.5 500 l 1
 300 500 l 1
 300 400 l 1
 137.5 400 l 1
 100 325 l 1
 100 175 l 1
 137.5 100 l 1
 150 100 l 1
 150 175 l 1
 212.5 300 l 1
 237.5 300 l 1
 300 175 l 1
 300 125 l 1
 237.5 0 l 1
 200 0 l 1
 200 -100 l 1
 150 -100 l 1
 150 0 l 1
 112.5 0 l 1
 50 125 l 1
 50 375 l 1
 200 100 m 1
 212.5 100 l 1
 237.5 150 l 1
 225 175 l 1
 200 125 l 1
 200 100 l 1
EndSplineSet
EndChar

StartChar: uni0256
Encoding: 598 598 379
Width: 300
Flags: W
LayerCount: 2
Fore
SplineSet
 50 375 m 1
 112.5 500 l 1
 200 500 l 1
 200 700 l 1
 250 700 l 1
 250 -25 l 1
 300 -125 l 1
 300 -200 l 1
 262.5 -200 l 1
 200 -75 l 1
 200 0 l 1
 112.5 0 l 1
 50 125 l 1
 50 375 l 1
 137.5 400 m 1
 100 325 l 1
 100 175 l 1
 137.5 100 l 1
 200 100 l 1
 200 400 l 1
 137.5 400 l 1
EndSplineSet
EndChar

StartChar: uni0257
Encoding: 599 599 380
Width: 300
Flags: W
LayerCount: 2
Fore
SplineSet
 50 375 m 1
 112.5 500 l 1
 200 500 l 1
 200 575 l 1
 262.5 700 l 1
 300 700 l 1
 300 625 l 1
 250 525 l 1
 250 0 l 1
 112.5 0 l 1
 50 125 l 1
 50 375 l 1
 137.5 400 m 1
 100 325 l 1
 100 175 l 1
 137.5 100 l 1
 200 100 l 1
 200 400 l 1
 137.5 400 l 1
EndSplineSet
EndChar

StartChar: uni0258
Encoding: 600 600 381
Width: 300
Flags: W
LayerCount: 2
Fore
SplineSet
 50 375 m 1
 112.5 500 l 1
 237.5 500 l 1
 300 375 l 1
 300 125 l 1
 237.5 0 l 1
 100 0 l 1
 100 100 l 1
 212.5 100 l 1
 250 175 l 1
 250 200 l 1
 50 200 l 1
 50 375 l 1
 137.5 400 m 1
 100 325 l 1
 100 300 l 1
 250 300 l 1
 250 325 l 1
 212.5 400 l 1
 137.5 400 l 1
EndSplineSet
EndChar

StartChar: uni0259
Encoding: 601 601 382
Width: 300
Flags: W
LayerCount: 2
Fore
SplineSet
 50 300 m 1
 250 300 l 1
 250 325 l 1
 212.5 400 l 1
 100 400 l 1
 100 500 l 1
 237.5 500 l 1
 300 375 l 1
 300 125 l 1
 237.5 0 l 1
 112.5 0 l 1
 50 125 l 1
 50 300 l 1
 100 200 m 1
 100 175 l 1
 137.5 100 l 1
 212.5 100 l 1
 250 175 l 1
 250 200 l 1
 100 200 l 1
EndSplineSet
EndChar

StartChar: uni025A
Encoding: 602 602 383
Width: 300
Flags: W
LayerCount: 2
Fore
SplineSet
 50 400 m 1
 50 500 l 1
 137.5 500 l 1
 200 375 l 1
 200 200 l 1
 212.5 200 l 1
 262.5 300 l 1
 300 300 l 1
 300 225 l 1
 237.5 100 l 1
 187.5 100 l 1
 137.5 0 l 1
 112.5 0 l 1
 50 125 l 1
 50 300 l 1
 150 300 l 1
 150 325 l 1
 112.5 400 l 1
 50 400 l 1
 100 200 m 1
 100 175 l 1
 125 125 l 1
 150 175 l 1
 150 200 l 1
 100 200 l 1
EndSplineSet
EndChar

StartChar: uni025B
Encoding: 603 603 384
Width: 300
Flags: W
LayerCount: 2
Fore
SplineSet
 50 325 m 1
 50 375 l 1
 112.5 500 l 1
 300 500 l 1
 300 400 l 1
 137.5 400 l 1
 112.5 350 l 1
 137.5 300 l 1
 250 300 l 1
 250 200 l 1
 137.5 200 l 1
 112.5 150 l 1
 137.5 100 l 1
 300 100 l 1
 300 0 l 1
 112.5 0 l 1
 50 125 l 1
 50 175 l 1
 87.5 250 l 1
 50 325 l 1
EndSplineSet
EndChar

StartChar: uni025C
Encoding: 604 604 385
Width: 300
Flags: W
LayerCount: 2
Fore
SplineSet
 50 400 m 1
 50 500 l 1
 237.5 500 l 1
 300 375 l 1
 300 325 l 1
 262.5 250 l 1
 300 175 l 1
 300 125 l 1
 237.5 0 l 1
 50 0 l 1
 50 100 l 1
 212.5 100 l 1
 237.5 150 l 1
 212.5 200 l 1
 100 200 l 1
 100 300 l 1
 212.5 300 l 1
 237.5 350 l 1
 212.5 400 l 1
 50 400 l 1
EndSplineSet
EndChar

StartChar: uni025D
Encoding: 605 605 386
Width: 300
Flags: W
LayerCount: 2
Fore
SplineSet
 50 400 m 1
 50 500 l 1
 137.5 500 l 1
 200 375 l 1
 200 325 l 1
 162.5 250 l 1
 187.5 200 l 1
 212.5 200 l 1
 262.5 300 l 1
 300 300 l 1
 300 225 l 1
 237.5 100 l 1
 187.5 100 l 1
 137.5 0 l 1
 50 0 l 1
 50 100 l 1
 112.5 100 l 1
 137.5 150 l 1
 112.5 200 l 1
 50 200 l 1
 50 300 l 1
 112.5 300 l 1
 137.5 350 l 1
 112.5 400 l 1
 50 400 l 1
EndSplineSet
EndChar

StartChar: uni025E
Encoding: 606 606 387
Width: 300
Flags: W
LayerCount: 2
Fore
SplineSet
 50 375 m 1
 112.5 500 l 1
 237.5 500 l 1
 300 375 l 1
 300 325 l 1
 262.5 250 l 1
 300 175 l 1
 300 125 l 1
 237.5 0 l 1
 112.5 0 l 1
 50 125 l 1
 50 375 l 1
 137.5 400 m 1
 100 325 l 1
 100 175 l 1
 137.5 100 l 1
 212.5 100 l 1
 237.5 150 l 1
 212.5 200 l 1
 150 200 l 1
 150 300 l 1
 212.5 300 l 1
 237.5 350 l 1
 212.5 400 l 1
 137.5 400 l 1
EndSplineSet
EndChar

StartChar: uni025F
Encoding: 607 607 388
Width: 300
Flags: W
LayerCount: 2
Position2: "palt" dx=-50 dy=0 dh=-100 dv=0
Fore
SplineSet
 100 200 m 1
 100 300 l 1
 150 300 l 1
 150 500 l 1
 200 500 l 1
 200 300 l 1
 250 300 l 1
 250 200 l 1
 200 200 l 1
 200 -75 l 1
 137.5 -200 l 1
 100 -200 l 1
 100 -125 l 1
 150 -25 l 1
 150 200 l 1
 100 200 l 1
EndSplineSet
EndChar

StartChar: uni0260
Encoding: 608 608 389
Width: 300
Flags: W
LayerCount: 2
Fore
SplineSet
 50 375 m 1
 112.5 500 l 1
 200 500 l 1
 200 575 l 1
 262.5 700 l 1
 300 700 l 1
 300 625 l 1
 250 525 l 1
 250 -75 l 1
 187.5 -200 l 1
 100 -200 l 1
 100 -100 l 1
 162.5 -100 l 1
 200 -25 l 1
 200 0 l 1
 112.5 0 l 1
 50 125 l 1
 50 375 l 1
 137.5 400 m 1
 100 325 l 1
 100 175 l 1
 137.5 100 l 1
 200 100 l 1
 200 400 l 1
 137.5 400 l 1
EndSplineSet
EndChar

StartChar: uni0261
Encoding: 609 609 390
Width: 300
Flags: W
LayerCount: 2
Fore
SplineSet
 50 375 m 1
 112.5 500 l 1
 300 500 l 1
 300 -75 l 1
 237.5 -200 l 1
 100 -200 l 1
 100 -100 l 1
 212.5 -100 l 1
 250 -25 l 1
 250 0 l 1
 112.5 0 l 1
 50 125 l 1
 50 375 l 1
 137.5 400 m 1
 100 325 l 1
 100 175 l 1
 137.5 100 l 1
 250 100 l 1
 250 400 l 1
 137.5 400 l 1
EndSplineSet
EndChar

StartChar: uni0262
Encoding: 610 610 391
Width: 300
Flags: W
LayerCount: 2
Fore
SplineSet
 50 375 m 1
 112.5 500 l 1
 300 500 l 1
 300 400 l 1
 137.5 400 l 1
 100 325 l 1
 100 175 l 1
 137.5 100 l 1
 250 100 l 1
 250 200 l 1
 200 200 l 1
 200 300 l 1
 300 300 l 1
 300 0 l 1
 112.5 0 l 1
 50 125 l 1
 50 375 l 1
EndSplineSet
EndChar

StartChar: uni0263
Encoding: 611 611 392
Width: 300
Flags: W
LayerCount: 2
Fore
SplineSet
 50 425 m 1
 50 500 l 1
 87.5 500 l 1
 150 375 l 1
 150 275 l 1
 175 225 l 1
 200 275 l 1
 200 375 l 1
 262.5 500 l 1
 300 500 l 1
 300 425 l 1
 250 325 l 1
 250 225 l 1
 212.5 150 l 1
 250 75 l 1
 250 -75 l 1
 187.5 -200 l 1
 162.5 -200 l 1
 100 -75 l 1
 100 75 l 1
 137.5 150 l 1
 100 225 l 1
 100 325 l 1
 50 425 l 1
 150 25 m 1
 150 -25 l 1
 175 -75 l 1
 200 -25 l 1
 200 25 l 1
 175 75 l 1
 150 25 l 1
EndSplineSet
EndChar

StartChar: uni0264
Encoding: 612 612 393
Width: 300
Flags: W
LayerCount: 2
Fore
SplineSet
 50 400 m 1
 50 500 l 1
 137.5 500 l 1
 175 425 l 1
 212.5 500 l 1
 300 500 l 1
 300 400 l 1
 237.5 400 l 1
 212.5 350 l 1
 250 275 l 1
 250 125 l 1
 187.5 0 l 1
 162.5 0 l 1
 100 125 l 1
 100 275 l 1
 137.5 350 l 1
 112.5 400 l 1
 50 400 l 1
 150 225 m 1
 150 175 l 1
 175 125 l 1
 200 175 l 1
 200 225 l 1
 175 275 l 1
 150 225 l 1
EndSplineSet
EndChar

StartChar: uni0265
Encoding: 613 613 394
Width: 300
Flags: W
LayerCount: 2
Fore
SplineSet
 50 500 m 1
 100 500 l 1
 100 175 l 1
 137.5 100 l 1
 250 100 l 1
 250 500 l 1
 300 500 l 1
 300 -200 l 1
 250 -200 l 1
 250 0 l 1
 112.5 0 l 1
 50 125 l 1
 50 500 l 1
EndSplineSet
EndChar

StartChar: uni0266
Encoding: 614 614 395
Width: 300
Flags: W
LayerCount: 2
Fore
SplineSet
 50 575 m 1
 112.5 700 l 1
 200 700 l 1
 200 600 l 1
 137.5 600 l 1
 100 525 l 1
 100 500 l 1
 237.5 500 l 1
 300 375 l 1
 300 0 l 1
 250 0 l 1
 250 325 l 1
 212.5 400 l 1
 100 400 l 1
 100 0 l 1
 50 0 l 1
 50 575 l 1
EndSplineSet
EndChar

StartChar: uni0267
Encoding: 615 615 396
Width: 300
Flags: W
LayerCount: 2
Fore
SplineSet
 50 575 m 1
 112.5 700 l 1
 200 700 l 1
 200 600 l 1
 137.5 600 l 1
 100 525 l 1
 100 500 l 1
 237.5 500 l 1
 300 375 l 1
 300 -75 l 1
 237.5 -200 l 1
 150 -200 l 1
 150 -100 l 1
 212.5 -100 l 1
 250 -25 l 1
 250 325 l 1
 212.5 400 l 1
 100 400 l 1
 100 0 l 1
 50 0 l 1
 50 575 l 1
EndSplineSet
EndChar

StartChar: uni0268
Encoding: 616 616 397
Width: 300
Flags: W
LayerCount: 2
Position2: "palt" dx=-50 dy=0 dh=-100 dv=0
Fore
SplineSet
 100 400 m 1
 100 500 l 1
 200 500 l 1
 200 300 l 1
 250 300 l 1
 250 200 l 1
 200 200 l 1
 200 100 l 1
 250 100 l 1
 250 0 l 1
 100 0 l 1
 100 100 l 1
 150 100 l 1
 150 200 l 1
 100 200 l 1
 100 300 l 1
 150 300 l 1
 150 400 l 1
 100 400 l 1
 150 600 m 1
 150 700 l 1
 200 700 l 1
 200 600 l 1
 150 600 l 1
EndSplineSet
EndChar

StartChar: uni0269
Encoding: 617 617 398
Width: 300
Flags: W
LayerCount: 2
Position2: "palt" dx=-50 dy=0 dh=-100 dv=0
Fore
SplineSet
 100 400 m 1
 100 500 l 1
 200 500 l 1
 200 175 l 1
 250 75 l 1
 250 0 l 1
 212.5 0 l 1
 150 125 l 1
 150 400 l 1
 100 400 l 1
EndSplineSet
EndChar

StartChar: uni026A
Encoding: 618 618 399
Width: 300
Flags: W
LayerCount: 2
Position2: "palt" dx=-50 dy=0 dh=-100 dv=0
Fore
SplineSet
 100 400 m 1
 100 500 l 1
 250 500 l 1
 250 400 l 1
 200 400 l 1
 200 100 l 1
 250 100 l 1
 250 0 l 1
 100 0 l 1
 100 100 l 1
 150 100 l 1
 150 400 l 1
 100 400 l 1
EndSplineSet
EndChar

StartChar: uni026B
Encoding: 619 619 400
Width: 300
Flags: W
LayerCount: 2
Fore
SplineSet
 50 300 m 1
 50 375 l 1
 112.5 500 l 1
 150 500 l 1
 150 600 l 1
 100 600 l 1
 100 700 l 1
 200 700 l 1
 200 400 l 1
 212.5 400 l 1
 262.5 500 l 1
 300 500 l 1
 300 425 l 1
 237.5 300 l 1
 200 300 l 1
 200 100 l 1
 250 100 l 1
 250 0 l 1
 100 0 l 1
 100 100 l 1
 150 100 l 1
 150 400 l 1
 137.5 400 l 1
 87.5 300 l 1
 50 300 l 1
EndSplineSet
EndChar

StartChar: uni026C
Encoding: 620 620 401
Width: 300
Flags: W
LayerCount: 2
Fore
SplineSet
 50 325 m 1
 50 375 l 1
 112.5 500 l 1
 150 500 l 1
 150 600 l 1
 100 600 l 1
 100 700 l 1
 200 700 l 1
 200 300 l 1
 212.5 300 l 1
 262.5 400 l 1
 300 400 l 1
 300 325 l 1
 237.5 200 l 1
 200 200 l 1
 200 100 l 1
 250 100 l 1
 250 0 l 1
 100 0 l 1
 100 100 l 1
 150 100 l 1
 150 200 l 1
 112.5 200 l 1
 50 325 l 1
 137.5 300 m 1
 150 300 l 1
 150 400 l 1
 137.5 400 l 1
 112.5 350 l 1
 137.5 300 l 1
EndSplineSet
EndChar

StartChar: uni026D
Encoding: 621 621 402
Width: 300
Flags: W
LayerCount: 2
Position2: "palt" dx=-50 dy=0 dh=-100 dv=0
Fore
SplineSet
 100 600 m 1
 100 700 l 1
 200 700 l 1
 200 -25 l 1
 250 -125 l 1
 250 -200 l 1
 212.5 -200 l 1
 150 -75 l 1
 150 600 l 1
 100 600 l 1
EndSplineSet
EndChar

StartChar: uni026E
Encoding: 622 622 403
Width: 300
Flags: W
LayerCount: 2
Fore
SplineSet
 50 600 m 1
 50 700 l 1
 150 700 l 1
 150 500 l 1
 300 500 l 1
 300 325 l 1
 262.5 250 l 1
 300 175 l 1
 300 -75 l 1
 237.5 -200 l 1
 150 -200 l 1
 150 -100 l 1
 212.5 -100 l 1
 250 -25 l 1
 250 125 l 1
 200 225 l 1
 200 275 l 1
 250 375 l 1
 250 400 l 1
 150 400 l 1
 150 100 l 1
 200 100 l 1
 200 0 l 1
 50 0 l 1
 50 100 l 1
 100 100 l 1
 100 600 l 1
 50 600 l 1
EndSplineSet
EndChar

StartChar: uni026F
Encoding: 623 623 404
Width: 300
Flags: W
LayerCount: 2
Fore
SplineSet
 50 500 m 1
 100 500 l 1
 100 175 l 1
 125 125 l 1
 150 175 l 1
 150 500 l 1
 200 500 l 1
 200 175 l 1
 237.5 100 l 1
 250 100 l 1
 250 500 l 1
 300 500 l 1
 300 0 l 1
 212.5 0 l 1
 175 75 l 1
 137.5 0 l 1
 112.5 0 l 1
 50 125 l 1
 50 500 l 1
EndSplineSet
EndChar

StartChar: uni0270
Encoding: 624 624 405
Width: 300
Flags: W
LayerCount: 2
Fore
SplineSet
 50 500 m 1
 100 500 l 1
 100 175 l 1
 125 125 l 1
 150 175 l 1
 150 500 l 1
 200 500 l 1
 200 175 l 1
 237.5 100 l 1
 250 100 l 1
 250 500 l 1
 300 500 l 1
 300 -200 l 1
 250 -200 l 1
 250 0 l 1
 212.5 0 l 1
 175 75 l 1
 137.5 0 l 1
 112.5 0 l 1
 50 125 l 1
 50 500 l 1
EndSplineSet
EndChar

StartChar: uni0271
Encoding: 625 625 406
Width: 300
Flags: W
LayerCount: 2
Fore
SplineSet
 50 500 m 1
 137.5 500 l 1
 175 425 l 1
 212.5 500 l 1
 237.5 500 l 1
 300 375 l 1
 300 -75 l 1
 237.5 -200 l 1
 200 -200 l 1
 200 -125 l 1
 250 -25 l 1
 250 325 l 1
 225 375 l 1
 200 325 l 1
 200 0 l 1
 150 0 l 1
 150 325 l 1
 112.5 400 l 1
 100 400 l 1
 100 0 l 1
 50 0 l 1
 50 500 l 1
EndSplineSet
EndChar

StartChar: uni0272
Encoding: 626 626 407
Width: 300
Flags: W
LayerCount: 2
Fore
SplineSet
 100 -25 m 1
 100 500 l 1
 237.5 500 l 1
 300 375 l 1
 300 0 l 1
 250 0 l 1
 250 325 l 1
 212.5 400 l 1
 150 400 l 1
 150 -75 l 1
 87.5 -200 l 1
 50 -200 l 1
 50 -125 l 1
 100 -25 l 1
EndSplineSet
EndChar

StartChar: uni0273
Encoding: 627 627 408
Width: 300
Flags: W
LayerCount: 2
Fore
SplineSet
 50 500 m 1
 187.5 500 l 1
 250 375 l 1
 250 -25 l 1
 300 -125 l 1
 300 -200 l 1
 262.5 -200 l 1
 200 -75 l 1
 200 325 l 1
 162.5 400 l 1
 100 400 l 1
 100 0 l 1
 50 0 l 1
 50 500 l 1
EndSplineSet
EndChar

StartChar: uni0274
Encoding: 628 628 409
Width: 300
Flags: W
LayerCount: 2
Fore
SplineSet
 50 500 m 1
 100 500 l 1
 100 400 l 1
 137.5 400 l 1
 237.5 200 l 1
 250 200 l 1
 250 500 l 1
 300 500 l 1
 300 0 l 1
 250 0 l 1
 250 100 l 1
 212.5 100 l 1
 112.5 300 l 1
 100 300 l 1
 100 0 l 1
 50 0 l 1
 50 500 l 1
EndSplineSet
EndChar

StartChar: uni0275
Encoding: 629 629 410
Width: 300
Flags: W
LayerCount: 2
Fore
SplineSet
 50 375 m 1
 112.5 500 l 1
 237.5 500 l 1
 300 375 l 1
 300 125 l 1
 237.5 0 l 1
 112.5 0 l 1
 50 125 l 1
 50 375 l 1
 137.5 400 m 1
 100 325 l 1
 100 300 l 1
 250 300 l 1
 250 325 l 1
 212.5 400 l 1
 137.5 400 l 1
 100 200 m 1
 100 175 l 1
 137.5 100 l 1
 212.5 100 l 1
 250 175 l 1
 250 200 l 1
 100 200 l 1
EndSplineSet
EndChar

StartChar: uni0276
Encoding: 630 630 411
Width: 300
Flags: W
LayerCount: 2
Fore
SplineSet
 50 375 m 1
 112.5 500 l 1
 300 500 l 1
 300 400 l 1
 200 400 l 1
 200 300 l 1
 300 300 l 1
 300 200 l 1
 200 200 l 1
 200 100 l 1
 300 100 l 1
 300 0 l 1
 112.5 0 l 1
 50 125 l 1
 50 375 l 1
 137.5 400 m 1
 100 325 l 1
 100 175 l 1
 137.5 100 l 1
 150 100 l 1
 150 400 l 1
 137.5 400 l 1
EndSplineSet
EndChar

StartChar: uni0277
Encoding: 631 631 412
Width: 300
Flags: W
LayerCount: 2
Fore
SplineSet
 50 375 m 1
 112.5 500 l 1
 237.5 500 l 1
 300 375 l 1
 300 125 l 1
 237.5 0 l 1
 212.5 0 l 1
 175 75 l 1
 137.5 0 l 1
 112.5 0 l 1
 50 125 l 1
 50 375 l 1
 137.5 400 m 1
 100 325 l 1
 100 175 l 1
 125 125 l 1
 150 175 l 1
 150 300 l 1
 200 300 l 1
 200 175 l 1
 225 125 l 1
 250 175 l 1
 250 325 l 1
 212.5 400 l 1
 137.5 400 l 1
EndSplineSet
EndChar

StartChar: uni0278
Encoding: 632 632 413
Width: 300
Flags: W
LayerCount: 2
Fore
SplineSet
 50 375 m 1
 112.5 500 l 1
 150 500 l 1
 150 700 l 1
 200 700 l 1
 200 500 l 1
 237.5 500 l 1
 300 375 l 1
 300 125 l 1
 237.5 0 l 1
 200 0 l 1
 200 -200 l 1
 150 -200 l 1
 150 0 l 1
 112.5 0 l 1
 50 125 l 1
 50 375 l 1
 137.5 400 m 1
 100 325 l 1
 100 175 l 1
 137.5 100 l 1
 150 100 l 1
 150 400 l 1
 137.5 400 l 1
 200 400 m 1
 200 100 l 1
 212.5 100 l 1
 250 175 l 1
 250 325 l 1
 212.5 400 l 1
 200 400 l 1
EndSplineSet
EndChar

StartChar: uni0279
Encoding: 633 633 414
Width: 300
Flags: W
LayerCount: 2
Position2: "palt" dx=0 dy=0 dh=-50 dv=0
Fore
SplineSet
 50 0 m 1
 50 100 l 1
 112.5 100 l 1
 162.5 200 l 1
 200 200 l 1
 200 500 l 1
 250 500 l 1
 250 0 l 1
 200 0 l 1
 200 100 l 1
 187.5 100 l 1
 137.5 0 l 1
 50 0 l 1
EndSplineSet
EndChar

StartChar: uni027A
Encoding: 634 634 415
Width: 300
Flags: W
LayerCount: 2
Position2: "palt" dx=0 dy=0 dh=-50 dv=0
Fore
SplineSet
 50 0 m 1
 50 100 l 1
 112.5 100 l 1
 162.5 200 l 1
 200 200 l 1
 200 700 l 1
 250 700 l 1
 250 0 l 1
 200 0 l 1
 200 100 l 1
 187.5 100 l 1
 137.5 0 l 1
 50 0 l 1
EndSplineSet
EndChar

StartChar: uni027B
Encoding: 635 635 416
Width: 300
Flags: W
LayerCount: 2
Fore
SplineSet
 50 0 m 1
 50 100 l 1
 112.5 100 l 1
 162.5 200 l 1
 200 200 l 1
 200 500 l 1
 250 500 l 1
 250 -25 l 1
 300 -125 l 1
 300 -200 l 1
 262.5 -200 l 1
 200 -75 l 1
 200 100 l 1
 187.5 100 l 1
 137.5 0 l 1
 50 0 l 1
EndSplineSet
EndChar

StartChar: uni027C
Encoding: 636 636 417
Width: 300
Flags: W
LayerCount: 2
Position2: "palt" dx=-50 dy=0 dh=-50 dv=0
Fore
SplineSet
 100 500 m 1
 150 500 l 1
 150 400 l 1
 162.5 400 l 1
 212.5 500 l 1
 300 500 l 1
 300 400 l 1
 237.5 400 l 1
 187.5 300 l 1
 150 300 l 1
 150 -200 l 1
 100 -200 l 1
 100 500 l 1
EndSplineSet
EndChar

StartChar: uni027D
Encoding: 637 637 418
Width: 300
Flags: W
LayerCount: 2
Position2: "palt" dx=-50 dy=0 dh=-50 dv=0
Fore
SplineSet
 100 500 m 1
 150 500 l 1
 150 400 l 1
 162.5 400 l 1
 212.5 500 l 1
 300 500 l 1
 300 400 l 1
 237.5 400 l 1
 187.5 300 l 1
 150 300 l 1
 150 -25 l 1
 200 -125 l 1
 200 -200 l 1
 162.5 -200 l 1
 100 -75 l 1
 100 500 l 1
EndSplineSet
EndChar

StartChar: uni027E
Encoding: 638 638 419
Width: 300
Flags: W
LayerCount: 2
Position2: "palt" dx=-50 dy=0 dh=-50 dv=0
Fore
SplineSet
 100 375 m 1
 162.5 500 l 1
 237.5 500 l 1
 300 375 l 1
 300 300 l 1
 262.5 300 l 1
 212.5 400 l 1
 187.5 400 l 1
 150 325 l 1
 150 0 l 1
 100 0 l 1
 100 375 l 1
EndSplineSet
EndChar

StartChar: uni0280
Encoding: 640 640 420
Width: 300
Flags: W
LayerCount: 2
Fore
SplineSet
 50 500 m 1
 237.5 500 l 1
 300 375 l 1
 300 325 l 1
 250 225 l 1
 250 175 l 1
 300 75 l 1
 300 0 l 1
 262.5 0 l 1
 200 125 l 1
 200 200 l 1
 100 200 l 1
 100 0 l 1
 50 0 l 1
 50 500 l 1
 100 400 m 1
 100 300 l 1
 212.5 300 l 1
 237.5 350 l 1
 212.5 400 l 1
 100 400 l 1
EndSplineSet
EndChar

StartChar: uni0281
Encoding: 641 641 421
Width: 300
Flags: W
LayerCount: 2
Fore
SplineSet
 50 500 m 1
 100 500 l 1
 100 300 l 1
 200 300 l 1
 200 375 l 1
 262.5 500 l 1
 300 500 l 1
 300 425 l 1
 250 325 l 1
 250 275 l 1
 300 175 l 1
 300 125 l 1
 237.5 0 l 1
 50 0 l 1
 50 500 l 1
 100 200 m 1
 100 100 l 1
 212.5 100 l 1
 237.5 150 l 1
 212.5 200 l 1
 100 200 l 1
EndSplineSet
EndChar

StartChar: uni0282
Encoding: 642 642 422
Width: 300
Flags: W
LayerCount: 2
Fore
SplineSet
 50 325 m 1
 50 375 l 1
 112.5 500 l 1
 300 500 l 1
 300 400 l 1
 137.5 400 l 1
 112.5 350 l 1
 137.5 300 l 1
 237.5 300 l 1
 300 175 l 1
 300 125 l 1
 237.5 0 l 1
 100 0 l 1
 100 -25 l 1
 150 -125 l 1
 150 -200 l 1
 112.5 -200 l 1
 50 -75 l 1
 50 100 l 1
 212.5 100 l 1
 237.5 150 l 1
 212.5 200 l 1
 112.5 200 l 1
 50 325 l 1
EndSplineSet
EndChar

StartChar: uni0283
Encoding: 643 643 423
Width: 300
Flags: W
LayerCount: 2
Position2: "palt" dx=-50 dy=0 dh=-100 dv=0
Fore
SplineSet
 150 -25 m 1
 150 575 l 1
 212.5 700 l 1
 250 700 l 1
 250 625 l 1
 200 525 l 1
 200 -75 l 1
 137.5 -200 l 1
 100 -200 l 1
 100 -125 l 1
 150 -25 l 1
EndSplineSet
EndChar

StartChar: uni0284
Encoding: 644 644 424
Width: 300
Flags: W
LayerCount: 2
Position2: "palt" dx=-50 dy=0 dh=-100 dv=0
Fore
SplineSet
 100 200 m 1
 100 300 l 1
 150 300 l 1
 150 575 l 1
 212.5 700 l 1
 250 700 l 1
 250 625 l 1
 200 525 l 1
 200 300 l 1
 250 300 l 1
 250 200 l 1
 200 200 l 1
 200 -75 l 1
 137.5 -200 l 1
 100 -200 l 1
 100 -125 l 1
 150 -25 l 1
 150 200 l 1
 100 200 l 1
EndSplineSet
EndChar

StartChar: uni0286
Encoding: 646 646 425
Width: 300
Flags: W
LayerCount: 2
Position2: "palt" dx=0 dy=0 dh=-50 dv=0
Fore
SplineSet
 50 75 m 1
 112.5 200 l 1
 150 200 l 1
 150 575 l 1
 212.5 700 l 1
 250 700 l 1
 250 625 l 1
 200 525 l 1
 200 200 l 1
 250 200 l 1
 250 100 l 1
 200 100 l 1
 200 -75 l 1
 137.5 -200 l 1
 112.5 -200 l 1
 50 -75 l 1
 50 75 l 1
 137.5 100 m 1
 100 25 l 1
 100 -25 l 1
 125 -75 l 1
 150 -25 l 1
 150 100 l 1
 137.5 100 l 1
EndSplineSet
EndChar

StartChar: uni0287
Encoding: 647 647 426
Width: 300
Flags: W
LayerCount: 2
Position2: "palt" dx=-50 dy=0 dh=-100 dv=0
Fore
SplineSet
 100 425 m 1
 100 500 l 1
 137.5 500 l 1
 200 375 l 1
 200 100 l 1
 250 100 l 1
 250 0 l 1
 200 0 l 1
 200 -200 l 1
 150 -200 l 1
 150 0 l 1
 100 0 l 1
 100 100 l 1
 150 100 l 1
 150 325 l 1
 100 425 l 1
EndSplineSet
EndChar

StartChar: uni0288
Encoding: 648 648 427
Width: 300
Flags: W
LayerCount: 2
Position2: "palt" dx=-50 dy=0 dh=-100 dv=0
Fore
SplineSet
 100 400 m 1
 100 500 l 1
 150 500 l 1
 150 700 l 1
 200 700 l 1
 200 500 l 1
 250 500 l 1
 250 400 l 1
 200 400 l 1
 200 -25 l 1
 250 -125 l 1
 250 -200 l 1
 212.5 -200 l 1
 150 -75 l 1
 150 400 l 1
 100 400 l 1
EndSplineSet
EndChar

StartChar: uni0289
Encoding: 649 649 428
Width: 300
Flags: W
LayerCount: 2
Fore
SplineSet
 50 300 m 1
 50 400 l 1
 100 400 l 1
 100 500 l 1
 150 500 l 1
 150 400 l 1
 200 400 l 1
 200 500 l 1
 250 500 l 1
 250 400 l 1
 300 400 l 1
 300 300 l 1
 250 300 l 1
 250 0 l 1
 162.5 0 l 1
 100 125 l 1
 100 300 l 1
 50 300 l 1
 150 300 m 1
 150 175 l 1
 187.5 100 l 1
 200 100 l 1
 200 300 l 1
 150 300 l 1
EndSplineSet
EndChar

StartChar: uni028A
Encoding: 650 650 429
Width: 300
Flags: W
LayerCount: 2
Fore
SplineSet
 50 400 m 1
 50 500 l 1
 150 500 l 1
 150 325 l 1
 100 225 l 1
 100 175 l 1
 137.5 100 l 1
 212.5 100 l 1
 250 175 l 1
 250 225 l 1
 200 325 l 1
 200 500 l 1
 300 500 l 1
 300 400 l 1
 250 400 l 1
 250 375 l 1
 300 275 l 1
 300 125 l 1
 237.5 0 l 1
 112.5 0 l 1
 50 125 l 1
 50 275 l 1
 100 375 l 1
 100 400 l 1
 50 400 l 1
EndSplineSet
EndChar

StartChar: uni028B
Encoding: 651 651 430
Width: 300
Flags: W
LayerCount: 2
Fore
SplineSet
 50 400 m 1
 50 500 l 1
 150 500 l 1
 150 100 l 1
 162.5 100 l 1
 250 275 l 1
 250 325 l 1
 200 425 l 1
 200 500 l 1
 237.5 500 l 1
 300 375 l 1
 300 225 l 1
 187.5 0 l 1
 100 0 l 1
 100 400 l 1
 50 400 l 1
EndSplineSet
EndChar

StartChar: uni028C
Encoding: 652 652 431
Width: 300
Flags: W
LayerCount: 2
Fore
SplineSet
 100 275 m 1
 100 375 l 1
 162.5 500 l 1
 187.5 500 l 1
 250 375 l 1
 250 275 l 1
 300 175 l 1
 300 0 l 1
 250 0 l 1
 250 125 l 1
 200 225 l 1
 200 325 l 1
 175 375 l 1
 150 325 l 1
 150 225 l 1
 100 125 l 1
 100 0 l 1
 50 0 l 1
 50 175 l 1
 100 275 l 1
EndSplineSet
EndChar

StartChar: uni028D
Encoding: 653 653 432
Width: 300
Flags: W
LayerCount: 2
Fore
SplineSet
 50 375 m 1
 112.5 500 l 1
 137.5 500 l 1
 175 425 l 1
 212.5 500 l 1
 237.5 500 l 1
 300 375 l 1
 300 0 l 1
 250 0 l 1
 250 325 l 1
 225 375 l 1
 200 325 l 1
 200 200 l 1
 150 200 l 1
 150 325 l 1
 125 375 l 1
 100 325 l 1
 100 0 l 1
 50 0 l 1
 50 375 l 1
EndSplineSet
EndChar

StartChar: uni028E
Encoding: 654 654 433
Width: 300
Flags: W
LayerCount: 2
Fore
SplineSet
 50 575 m 1
 112.5 700 l 1
 250 700 l 1
 250 600 l 1
 137.5 600 l 1
 100 525 l 1
 100 500 l 1
 187.5 500 l 1
 300 275 l 1
 300 0 l 1
 250 0 l 1
 250 225 l 1
 162.5 400 l 1
 100 400 l 1
 100 0 l 1
 50 0 l 1
 50 575 l 1
EndSplineSet
EndChar

StartChar: uni028F
Encoding: 655 655 434
Width: 300
Flags: W
LayerCount: 2
Fore
SplineSet
 50 425 m 1
 50 500 l 1
 87.5 500 l 1
 175 325 l 1
 262.5 500 l 1
 300 500 l 1
 300 425 l 1
 200 225 l 1
 200 0 l 1
 150 0 l 1
 150 225 l 1
 50 425 l 1
EndSplineSet
EndChar

StartChar: uni0290
Encoding: 656 656 435
Width: 300
Flags: W
LayerCount: 2
Fore
SplineSet
 50 400 m 1
 50 500 l 1
 250 500 l 1
 250 400 l 1
 200 400 l 1
 200 325 l 1
 100 125 l 1
 100 100 l 1
 250 100 l 1
 250 -25 l 1
 300 -125 l 1
 300 -200 l 1
 262.5 -200 l 1
 200 -75 l 1
 200 0 l 1
 50 0 l 1
 50 175 l 1
 150 375 l 1
 150 400 l 1
 50 400 l 1
EndSplineSet
EndChar

StartChar: uni0291
Encoding: 657 657 436
Width: 300
Flags: W
LayerCount: 2
Fore
SplineSet
 50 400 m 1
 50 500 l 1
 300 500 l 1
 300 400 l 1
 250 400 l 1
 250 325 l 1
 150 125 l 1
 150 100 l 1
 237.5 100 l 1
 300 -25 l 1
 300 -75 l 1
 237.5 -200 l 1
 212.5 -200 l 1
 150 -75 l 1
 150 0 l 1
 50 0 l 1
 50 100 l 1
 100 100 l 1
 100 175 l 1
 200 375 l 1
 200 400 l 1
 50 400 l 1
 200 0 m 1
 200 -25 l 1
 225 -75 l 1
 237.5 -50 l 1
 212.5 0 l 1
 200 0 l 1
EndSplineSet
EndChar

StartChar: uni0292
Encoding: 658 658 437
Width: 300
Flags: W
LayerCount: 2
Fore
SplineSet
 50 400 m 1
 50 500 l 1
 300 500 l 1
 300 400 l 1
 250 400 l 1
 250 325 l 1
 200 225 l 1
 200 200 l 1
 237.5 200 l 1
 300 75 l 1
 300 -75 l 1
 237.5 -200 l 1
 112.5 -200 l 1
 50 -75 l 1
 50 0 l 1
 87.5 0 l 1
 137.5 -100 l 1
 212.5 -100 l 1
 250 -25 l 1
 250 25 l 1
 212.5 100 l 1
 100 100 l 1
 100 200 l 1
 150 200 l 1
 150 275 l 1
 200 375 l 1
 200 400 l 1
 50 400 l 1
EndSplineSet
EndChar

StartChar: uni0293
Encoding: 659 659 438
Width: 300
Flags: W
LayerCount: 2
Fore
SplineSet
 50 400 m 1
 50 500 l 1
 300 500 l 1
 300 400 l 1
 250 400 l 1
 250 325 l 1
 212.5 250 l 1
 300 75 l 1
 300 -75 l 1
 237.5 -200 l 1
 112.5 -200 l 1
 50 -75 l 1
 50 -25 l 1
 112.5 100 l 1
 137.5 100 l 1
 200 -25 l 1
 200 -100 l 1
 212.5 -100 l 1
 250 -25 l 1
 250 25 l 1
 150 225 l 1
 150 275 l 1
 200 375 l 1
 200 400 l 1
 50 400 l 1
 137.5 -100 m 1
 150 -100 l 1
 150 -75 l 1
 125 -25 l 1
 112.5 -50 l 1
 137.5 -100 l 1
EndSplineSet
EndChar

StartChar: uni0297
Encoding: 663 663 439
Width: 300
Flags: W
LayerCount: 2
Fore
SplineSet
 50 575 m 1
 112.5 700 l 1
 237.5 700 l 1
 300 575 l 1
 300 500 l 1
 262.5 500 l 1
 212.5 600 l 1
 137.5 600 l 1
 100 525 l 1
 100 -25 l 1
 137.5 -100 l 1
 212.5 -100 l 1
 262.5 0 l 1
 300 0 l 1
 300 -75 l 1
 237.5 -200 l 1
 112.5 -200 l 1
 50 -75 l 1
 50 575 l 1
EndSplineSet
EndChar

StartChar: uni0299
Encoding: 665 665 440
Width: 300
Flags: W
LayerCount: 2
Fore
SplineSet
 50 500 m 1
 237.5 500 l 1
 300 375 l 1
 300 325 l 1
 262.5 250 l 1
 300 175 l 1
 300 125 l 1
 237.5 0 l 1
 50 0 l 1
 50 500 l 1
 100 400 m 1
 100 300 l 1
 212.5 300 l 1
 237.5 350 l 1
 212.5 400 l 1
 100 400 l 1
 100 200 m 1
 100 100 l 1
 212.5 100 l 1
 237.5 150 l 1
 212.5 200 l 1
 100 200 l 1
EndSplineSet
EndChar

StartChar: uni0294
Encoding: 660 660 441
Width: 300
Flags: W
LayerCount: 2
Fore
SplineSet
 50 500 m 1
 50 575 l 1
 112.5 700 l 1
 237.5 700 l 1
 300 575 l 1
 300 525 l 1
 200 325 l 1
 200 0 l 1
 150 0 l 1
 150 375 l 1
 237.5 550 l 1
 212.5 600 l 1
 137.5 600 l 1
 87.5 500 l 1
 50 500 l 1
EndSplineSet
EndChar

StartChar: uni0295
Encoding: 661 661 442
Width: 300
Flags: W
LayerCount: 2
Fore
SplineSet
 50 525 m 1
 50 575 l 1
 112.5 700 l 1
 237.5 700 l 1
 300 575 l 1
 300 500 l 1
 262.5 500 l 1
 212.5 600 l 1
 137.5 600 l 1
 112.5 550 l 1
 200 375 l 1
 200 0 l 1
 150 0 l 1
 150 325 l 1
 50 525 l 1
EndSplineSet
EndChar

StartChar: uni0296
Encoding: 662 662 443
Width: 300
Flags: W
LayerCount: 2
Fore
SplineSet
 50 125 m 1
 50 200 l 1
 87.5 200 l 1
 137.5 100 l 1
 212.5 100 l 1
 237.5 150 l 1
 150 325 l 1
 150 700 l 1
 200 700 l 1
 200 375 l 1
 300 175 l 1
 300 125 l 1
 237.5 0 l 1
 112.5 0 l 1
 50 125 l 1
EndSplineSet
EndChar

StartChar: uni0298
Encoding: 664 664 444
Width: 300
Flags: W
LayerCount: 2
Fore
SplineSet
 50 575 m 1
 112.5 700 l 1
 237.5 700 l 1
 300 575 l 1
 300 125 l 1
 237.5 0 l 1
 112.5 0 l 1
 50 125 l 1
 50 575 l 1
 137.5 600 m 1
 100 525 l 1
 100 175 l 1
 137.5 100 l 1
 212.5 100 l 1
 250 175 l 1
 250 525 l 1
 212.5 600 l 1
 137.5 600 l 1
 150 300 m 1
 150 400 l 1
 200 400 l 1
 200 300 l 1
 150 300 l 1
EndSplineSet
EndChar

StartChar: uni029A
Encoding: 666 666 445
Width: 300
Flags: W
LayerCount: 2
Fore
SplineSet
 50 325 m 1
 50 375 l 1
 112.5 500 l 1
 237.5 500 l 1
 300 375 l 1
 300 125 l 1
 237.5 0 l 1
 112.5 0 l 1
 50 125 l 1
 50 175 l 1
 87.5 250 l 1
 50 325 l 1
 137.5 300 m 1
 200 300 l 1
 200 200 l 1
 137.5 200 l 1
 112.5 150 l 1
 137.5 100 l 1
 212.5 100 l 1
 250 175 l 1
 250 325 l 1
 212.5 400 l 1
 137.5 400 l 1
 112.5 350 l 1
 137.5 300 l 1
EndSplineSet
EndChar

StartChar: uni029B
Encoding: 667 667 446
Width: 300
Flags: W
LayerCount: 2
Fore
SplineSet
 50 375 m 1
 112.5 500 l 1
 200 500 l 1
 200 575 l 1
 262.5 700 l 1
 300 700 l 1
 300 625 l 1
 250 525 l 1
 250 400 l 1
 137.5 400 l 1
 100 325 l 1
 100 175 l 1
 137.5 100 l 1
 200 100 l 1
 200 200 l 1
 150 200 l 1
 150 300 l 1
 250 300 l 1
 250 0 l 1
 112.5 0 l 1
 50 125 l 1
 50 375 l 1
EndSplineSet
EndChar

StartChar: uni029C
Encoding: 668 668 447
Width: 300
Flags: W
LayerCount: 2
Fore
SplineSet
 50 500 m 1
 100 500 l 1
 100 300 l 1
 250 300 l 1
 250 500 l 1
 300 500 l 1
 300 0 l 1
 250 0 l 1
 250 200 l 1
 100 200 l 1
 100 0 l 1
 50 0 l 1
 50 500 l 1
EndSplineSet
EndChar

StartChar: uni029D
Encoding: 669 669 448
Width: 300
Flags: W
LayerCount: 2
Position2: "palt" dx=0 dy=0 dh=-50 dv=0
Fore
SplineSet
 50 75 m 1
 112.5 200 l 1
 150 200 l 1
 150 500 l 1
 200 500 l 1
 200 200 l 1
 250 200 l 1
 250 100 l 1
 200 100 l 1
 200 -75 l 1
 137.5 -200 l 1
 112.5 -200 l 1
 50 -75 l 1
 50 75 l 1
 137.5 100 m 1
 100 25 l 1
 100 -25 l 1
 125 -75 l 1
 150 -25 l 1
 150 100 l 1
 137.5 100 l 1
 150 600 m 1
 150 700 l 1
 200 700 l 1
 200 600 l 1
 150 600 l 1
EndSplineSet
EndChar

StartChar: uni029E
Encoding: 670 670 449
Width: 300
Flags: W
LayerCount: 2
Position2: "palt" dx=0 dy=0 dh=-50 dv=0
Fore
SplineSet
 50 425 m 1
 50 500 l 1
 87.5 500 l 1
 187.5 300 l 1
 200 300 l 1
 200 500 l 1
 250 500 l 1
 250 -200 l 1
 200 -200 l 1
 200 200 l 1
 187.5 200 l 1
 87.5 0 l 1
 50 0 l 1
 50 75 l 1
 137.5 250 l 1
 50 425 l 1
EndSplineSet
EndChar

StartChar: uni029F
Encoding: 671 671 450
Width: 300
Flags: W
LayerCount: 2
Fore
SplineSet
 50 500 m 1
 100 500 l 1
 100 100 l 1
 300 100 l 1
 300 0 l 1
 50 0 l 1
 50 500 l 1
EndSplineSet
EndChar

StartChar: uni02A0
Encoding: 672 672 451
Width: 300
Flags: W
LayerCount: 2
Fore
SplineSet
 50 375 m 1
 112.5 500 l 1
 250 500 l 1
 250 525 l 1
 212.5 600 l 1
 150 600 l 1
 150 700 l 1
 237.5 700 l 1
 300 575 l 1
 300 -200 l 1
 250 -200 l 1
 250 0 l 1
 112.5 0 l 1
 50 125 l 1
 50 375 l 1
 137.5 400 m 1
 100 325 l 1
 100 175 l 1
 137.5 100 l 1
 250 100 l 1
 250 400 l 1
 137.5 400 l 1
EndSplineSet
EndChar

StartChar: uni02A1
Encoding: 673 673 452
Width: 300
Flags: W
LayerCount: 2
Fore
SplineSet
 50 500 m 1
 50 575 l 1
 112.5 700 l 1
 237.5 700 l 1
 300 575 l 1
 300 525 l 1
 200 325 l 1
 200 300 l 1
 300 300 l 1
 300 200 l 1
 200 200 l 1
 200 0 l 1
 150 0 l 1
 150 200 l 1
 50 200 l 1
 50 300 l 1
 150 300 l 1
 150 375 l 1
 237.5 550 l 1
 212.5 600 l 1
 137.5 600 l 1
 87.5 500 l 1
 50 500 l 1
EndSplineSet
EndChar

StartChar: uni02A2
Encoding: 674 674 453
Width: 300
Flags: W
LayerCount: 2
Fore
SplineSet
 50 525 m 1
 50 575 l 1
 112.5 700 l 1
 237.5 700 l 1
 300 575 l 1
 300 500 l 1
 262.5 500 l 1
 212.5 600 l 1
 137.5 600 l 1
 112.5 550 l 1
 200 375 l 1
 200 300 l 1
 300 300 l 1
 300 200 l 1
 200 200 l 1
 200 0 l 1
 150 0 l 1
 150 200 l 1
 50 200 l 1
 50 300 l 1
 150 300 l 1
 150 325 l 1
 50 525 l 1
EndSplineSet
EndChar

StartChar: uni02A3
Encoding: 675 675 454
Width: 300
Flags: W
LayerCount: 2
Fore
SplineSet
 50 375 m 1
 112.5 500 l 1
 150 500 l 1
 150 700 l 1
 200 700 l 1
 200 500 l 1
 300 500 l 1
 300 325 l 1
 250 225 l 1
 250 100 l 1
 300 100 l 1
 300 0 l 1
 112.5 0 l 1
 50 125 l 1
 50 375 l 1
 137.5 400 m 1
 100 325 l 1
 100 175 l 1
 137.5 100 l 1
 150 100 l 1
 150 400 l 1
 137.5 400 l 1
 200 400 m 1
 200 300 l 1
 212.5 300 l 1
 250 375 l 1
 250 400 l 1
 200 400 l 1
EndSplineSet
EndChar

StartChar: uni02A4
Encoding: 676 676 455
Width: 300
Flags: W
LayerCount: 2
Fore
SplineSet
 50 375 m 1
 112.5 500 l 1
 150 500 l 1
 150 700 l 1
 200 700 l 1
 200 500 l 1
 300 500 l 1
 300 325 l 1
 262.5 250 l 1
 300 175 l 1
 300 -75 l 1
 237.5 -200 l 1
 150 -200 l 1
 150 -100 l 1
 212.5 -100 l 1
 250 -25 l 1
 250 125 l 1
 212.5 200 l 1
 200 200 l 1
 200 0 l 1
 112.5 0 l 1
 50 125 l 1
 50 375 l 1
 137.5 400 m 1
 100 325 l 1
 100 175 l 1
 137.5 100 l 1
 150 100 l 1
 150 400 l 1
 137.5 400 l 1
 200 400 m 1
 200 300 l 1
 212.5 300 l 1
 250 375 l 1
 250 400 l 1
 200 400 l 1
EndSplineSet
EndChar

StartChar: uni02A5
Encoding: 677 677 456
Width: 300
Flags: W
LayerCount: 2
Fore
SplineSet
 50 375 m 1
 112.5 500 l 1
 150 500 l 1
 150 700 l 1
 200 700 l 1
 200 500 l 1
 300 500 l 1
 300 325 l 1
 250 225 l 1
 250 100 l 1
 300 100 l 1
 300 -75 l 1
 237.5 -200 l 1
 212.5 -200 l 1
 150 -75 l 1
 150 0 l 1
 112.5 0 l 1
 50 125 l 1
 50 375 l 1
 137.5 400 m 1
 100 325 l 1
 100 175 l 1
 137.5 100 l 1
 150 100 l 1
 150 400 l 1
 137.5 400 l 1
 200 400 m 1
 200 300 l 1
 212.5 300 l 1
 250 375 l 1
 250 400 l 1
 200 400 l 1
 200 0 m 1
 200 -25 l 1
 225 -75 l 1
 250 -25 l 1
 250 0 l 1
 200 0 l 1
EndSplineSet
EndChar

StartChar: uni02A6
Encoding: 678 678 457
Width: 300
Flags: W
LayerCount: 2
Fore
SplineSet
 50 700 m 1
 100 700 l 1
 100 500 l 1
 300 500 l 1
 300 400 l 1
 200 400 l 1
 200 375 l 1
 300 175 l 1
 300 125 l 1
 237.5 0 l 1
 112.5 0 l 1
 50 125 l 1
 50 700 l 1
 100 400 m 1
 100 175 l 1
 137.5 100 l 1
 212.5 100 l 1
 237.5 150 l 1
 150 325 l 1
 150 400 l 1
 100 400 l 1
EndSplineSet
EndChar

StartChar: uni02A7
Encoding: 679 679 458
Width: 300
Flags: W
LayerCount: 2
Fore
SplineSet
 50 400 m 1
 50 500 l 1
 100 500 l 1
 100 700 l 1
 150 700 l 1
 150 500 l 1
 200 500 l 1
 200 575 l 1
 262.5 700 l 1
 300 700 l 1
 300 625 l 1
 250 525 l 1
 250 -75 l 1
 187.5 -200 l 1
 150 -200 l 1
 150 -125 l 1
 200 -25 l 1
 200 0 l 1
 162.5 0 l 1
 100 125 l 1
 100 400 l 1
 50 400 l 1
 150 400 m 1
 150 175 l 1
 187.5 100 l 1
 200 100 l 1
 200 400 l 1
 150 400 l 1
EndSplineSet
EndChar

StartChar: uni02A8
Encoding: 680 680 459
Width: 300
Flags: W
LayerCount: 2
Fore
SplineSet
 50 700 m 1
 100 700 l 1
 100 600 l 1
 150 600 l 1
 150 500 l 1
 100 500 l 1
 100 175 l 1
 137.5 100 l 1
 150 100 l 1
 150 375 l 1
 212.5 500 l 1
 300 500 l 1
 300 400 l 1
 237.5 400 l 1
 200 325 l 1
 200 100 l 1
 237.5 100 l 1
 300 -25 l 1
 300 -75 l 1
 237.5 -200 l 1
 212.5 -200 l 1
 150 -75 l 1
 150 0 l 1
 112.5 0 l 1
 50 125 l 1
 50 700 l 1
 200 0 m 1
 200 -25 l 1
 225 -75 l 1
 237.5 -50 l 1
 212.5 0 l 1
 200 0 l 1
EndSplineSet
EndChar

StartChar: uni02A9
Encoding: 681 681 460
Width: 300
Flags: W
LayerCount: 2
Fore
SplineSet
 50 575 m 1
 112.5 700 l 1
 150 700 l 1
 150 625 l 1
 100 525 l 1
 100 400 l 1
 237.5 400 l 1
 300 275 l 1
 300 -75 l 1
 237.5 -200 l 1
 150 -200 l 1
 150 -100 l 1
 212.5 -100 l 1
 250 -25 l 1
 250 225 l 1
 212.5 300 l 1
 200 300 l 1
 200 0 l 1
 150 0 l 1
 150 300 l 1
 100 300 l 1
 100 0 l 1
 50 0 l 1
 50 575 l 1
EndSplineSet
EndChar

StartChar: uni02AA
Encoding: 682 682 461
Width: 300
Flags: W
LayerCount: 2
Fore
SplineSet
 50 600 m 1
 50 700 l 1
 150 700 l 1
 150 400 l 1
 162.5 400 l 1
 212.5 500 l 1
 300 500 l 1
 300 400 l 1
 237.5 400 l 1
 212.5 350 l 1
 300 175 l 1
 300 125 l 1
 237.5 0 l 1
 50 0 l 1
 50 100 l 1
 100 100 l 1
 100 600 l 1
 50 600 l 1
 150 100 m 1
 212.5 100 l 1
 237.5 150 l 1
 162.5 300 l 1
 150 300 l 1
 150 100 l 1
EndSplineSet
EndChar

StartChar: uni02AB
Encoding: 683 683 462
Width: 300
Flags: W
LayerCount: 2
Fore
SplineSet
 50 600 m 1
 50 700 l 1
 150 700 l 1
 150 500 l 1
 300 500 l 1
 300 325 l 1
 200 125 l 1
 200 100 l 1
 300 100 l 1
 300 0 l 1
 50 0 l 1
 50 100 l 1
 100 100 l 1
 100 600 l 1
 50 600 l 1
 150 400 m 1
 150 200 l 1
 162.5 200 l 1
 250 375 l 1
 250 400 l 1
 150 400 l 1
EndSplineSet
EndChar

StartChar: uni02AC
Encoding: 684 684 463
Width: 300
Flags: W
LayerCount: 2
Fore
SplineSet
 50 425 m 1
 50 500 l 1
 87.5 500 l 1
 125 425 l 1
 162.5 500 l 1
 187.5 500 l 1
 225 425 l 1
 262.5 500 l 1
 300 500 l 1
 300 425 l 1
 237.5 300 l 1
 212.5 300 l 1
 175 375 l 1
 137.5 300 l 1
 112.5 300 l 1
 50 425 l 1
 50 125 m 1
 50 200 l 1
 87.5 200 l 1
 125 125 l 1
 162.5 200 l 1
 187.5 200 l 1
 225 125 l 1
 262.5 200 l 1
 300 200 l 1
 300 125 l 1
 237.5 0 l 1
 212.5 0 l 1
 175 75 l 1
 137.5 0 l 1
 112.5 0 l 1
 50 125 l 1
EndSplineSet
EndChar

StartChar: uni02AD
Encoding: 685 685 464
Width: 300
Flags: W
LayerCount: 2
Position2: "palt" dx=-50 dy=0 dh=-100 dv=0
Fore
SplineSet
 100 500 m 1
 250 500 l 1
 250 300 l 1
 200 300 l 1
 200 400 l 1
 150 400 l 1
 150 300 l 1
 100 300 l 1
 100 500 l 1
 100 200 m 1
 250 200 l 1
 250 0 l 1
 200 0 l 1
 200 100 l 1
 150 100 l 1
 150 0 l 1
 100 0 l 1
 100 200 l 1
EndSplineSet
EndChar

StartChar: uni02B0
Encoding: 688 688 465
Width: 300
Flags: W
LayerCount: 2
Position2: "palt" dx=0 dy=0 dh=-100 dv=0
Fore
SplineSet
 50 700 m 1
 100 700 l 1
 100 500 l 1
 137.5 500 l 1
 200 375 l 1
 200 200 l 1
 150 200 l 1
 150 325 l 1
 112.5 400 l 1
 100 400 l 1
 100 200 l 1
 50 200 l 1
 50 700 l 1
EndSplineSet
EndChar

StartChar: uni02B2
Encoding: 690 690 466
Width: 300
Flags: W
LayerCount: 2
Position2: "palt" dx=0 dy=0 dh=-150 dv=0
Fore
SplineSet
 100 275 m 1
 100 500 l 1
 150 500 l 1
 150 225 l 1
 87.5 100 l 1
 50 100 l 1
 50 175 l 1
 100 275 l 1
 100 600 m 1
 100 700 l 1
 150 700 l 1
 150 600 l 1
 100 600 l 1
EndSplineSet
EndChar

StartChar: uni02BC
Encoding: 700 700 467
Width: 300
Flags: W
LayerCount: 2
Position2: "palt" dx=-50 dy=0 dh=-150 dv=0
Fore
SplineSet
 150 575 m 1
 150 700 l 1
 200 700 l 1
 200 525 l 1
 137.5 400 l 1
 100 400 l 1
 100 475 l 1
 150 575 l 1
EndSplineSet
EndChar

StartChar: uni02C8
Encoding: 712 712 468
Width: 300
Flags: W
LayerCount: 2
Position2: "palt" dx=-100 dy=0 dh=-200 dv=0
Fore
SplineSet
 150 700 m 1
 200 700 l 1
 200 400 l 1
 150 400 l 1
 150 700 l 1
EndSplineSet
EndChar

StartChar: uni02CC
Encoding: 716 716 469
Width: 300
Flags: W
LayerCount: 2
Position2: "palt" dx=-100 dy=0 dh=-200 dv=0
Fore
SplineSet
 150 100 m 1
 200 100 l 1
 200 -200 l 1
 150 -200 l 1
 150 100 l 1
EndSplineSet
EndChar

StartChar: uni02D0
Encoding: 720 720 470
Width: 300
Flags: W
LayerCount: 2
Position2: "palt" dx=-50 dy=0 dh=-100 dv=0
Fore
SplineSet
 100 425 m 1
 100 500 l 1
 137.5 500 l 1
 175 425 l 1
 212.5 500 l 1
 250 500 l 1
 250 425 l 1
 187.5 300 l 1
 162.5 300 l 1
 100 425 l 1
 100 0 m 1
 100 75 l 1
 162.5 200 l 1
 187.5 200 l 1
 250 75 l 1
 250 0 l 1
 212.5 0 l 1
 175 75 l 1
 137.5 0 l 1
 100 0 l 1
EndSplineSet
EndChar

StartChar: uni02D1
Encoding: 721 721 471
Width: 300
Flags: W
LayerCount: 2
Position2: "palt" dx=-50 dy=0 dh=-100 dv=0
Fore
SplineSet
 100 425 m 1
 100 500 l 1
 137.5 500 l 1
 175 425 l 1
 212.5 500 l 1
 250 500 l 1
 250 425 l 1
 187.5 300 l 1
 162.5 300 l 1
 100 425 l 1
EndSplineSet
EndChar

StartChar: uni02E0
Encoding: 736 736 472
Width: 300
Flags: W
LayerCount: 2
Position2: "palt" dx=0 dy=0 dh=-100 dv=0
Fore
SplineSet
 50 625 m 1
 50 700 l 1
 87.5 700 l 1
 125 625 l 1
 162.5 700 l 1
 200 700 l 1
 200 625 l 1
 162.5 550 l 1
 200 475 l 1
 200 325 l 1
 137.5 200 l 1
 112.5 200 l 1
 50 325 l 1
 50 475 l 1
 87.5 550 l 1
 50 625 l 1
 100 425 m 1
 100 375 l 1
 125 325 l 1
 150 375 l 1
 150 425 l 1
 125 475 l 1
 100 425 l 1
EndSplineSet
EndChar

StartChar: uni02E1
Encoding: 737 737 473
Width: 300
Flags: W
LayerCount: 2
Position2: "palt" dx=0 dy=0 dh=-100 dv=0
Fore
SplineSet
 50 600 m 1
 50 700 l 1
 150 700 l 1
 150 300 l 1
 200 300 l 1
 200 200 l 1
 50 200 l 1
 50 300 l 1
 100 300 l 1
 100 600 l 1
 50 600 l 1
EndSplineSet
EndChar

StartChar: uni02E2
Encoding: 738 738 474
Width: 300
Flags: W
LayerCount: 2
Position2: "palt" dx=0 dy=0 dh=-100 dv=0
Fore
SplineSet
 50 200 m 1
 50 300 l 1
 100 300 l 1
 100 500 l 1
 200 500 l 1
 200 400 l 1
 150 400 l 1
 150 200 l 1
 50 200 l 1
EndSplineSet
EndChar

StartChar: uni02E3
Encoding: 739 739 475
Width: 300
Flags: W
LayerCount: 2
Position2: "palt" dx=0 dy=0 dh=-100 dv=0
Fore
SplineSet
 50 425 m 1
 50 500 l 1
 87.5 500 l 1
 125 425 l 1
 162.5 500 l 1
 200 500 l 1
 200 425 l 1
 162.5 350 l 1
 200 275 l 1
 200 200 l 1
 162.5 200 l 1
 125 275 l 1
 87.5 200 l 1
 50 200 l 1
 50 275 l 1
 87.5 350 l 1
 50 425 l 1
EndSplineSet
EndChar

StartChar: uni02E4
Encoding: 740 740 476
Width: 300
Flags: W
LayerCount: 2
Position2: "palt" dx=0 dy=0 dh=-100 dv=0
Fore
SplineSet
 50 575 m 1
 112.5 700 l 1
 137.5 700 l 1
 200 575 l 1
 200 500 l 1
 162.5 500 l 1
 125 575 l 1
 100 525 l 1
 100 475 l 1
 150 375 l 1
 150 200 l 1
 100 200 l 1
 100 325 l 1
 50 425 l 1
 50 575 l 1
EndSplineSet
EndChar

StartChar: uni02E5
Encoding: 741 741 477
Width: 300
Flags: W
LayerCount: 2
Fore
SplineSet
 50 600 m 1
 50 700 l 1
 300 700 l 1
 300 0 l 1
 250 0 l 1
 250 600 l 1
 50 600 l 1
EndSplineSet
EndChar

StartChar: uni02E6
Encoding: 742 742 478
Width: 300
Flags: W
LayerCount: 2
Fore
SplineSet
 50 500 m 1
 50 600 l 1
 250 600 l 1
 250 700 l 1
 300 700 l 1
 300 0 l 1
 250 0 l 1
 250 500 l 1
 50 500 l 1
EndSplineSet
EndChar

StartChar: uni02E7
Encoding: 743 743 479
Width: 300
Flags: W
LayerCount: 2
Fore
SplineSet
 50 300 m 1
 50 400 l 1
 250 400 l 1
 250 700 l 1
 300 700 l 1
 300 0 l 1
 250 0 l 1
 250 300 l 1
 50 300 l 1
EndSplineSet
EndChar

StartChar: uni02E8
Encoding: 744 744 480
Width: 300
Flags: W
LayerCount: 2
Fore
SplineSet
 50 100 m 1
 50 200 l 1
 250 200 l 1
 250 700 l 1
 300 700 l 1
 300 0 l 1
 250 0 l 1
 250 100 l 1
 50 100 l 1
EndSplineSet
EndChar

StartChar: uni02E9
Encoding: 745 745 481
Width: 300
Flags: W
LayerCount: 2
Fore
SplineSet
 50 0 m 1
 50 100 l 1
 250 100 l 1
 250 700 l 1
 300 700 l 1
 300 0 l 1
 50 0 l 1
EndSplineSet
EndChar

StartChar: Alpha
Encoding: 913 913 482
Width: 300
Flags: W
LayerCount: 2
Fore
SplineSet
 50 475 m 1
 162.5 700 l 1
 187.5 700 l 1
 300 475 l 1
 300 0 l 1
 250 0 l 1
 250 200 l 1
 100 200 l 1
 100 0 l 1
 50 0 l 1
 50 475 l 1
 100 425 m 1
 100 300 l 1
 250 300 l 1
 250 425 l 1
 175 575 l 1
 100 425 l 1
EndSplineSet
EndChar

StartChar: Beta
Encoding: 914 914 483
Width: 300
Flags: W
LayerCount: 2
Fore
SplineSet
 50 700 m 1
 237.5 700 l 1
 300 575 l 1
 300 425 l 1
 262.5 350 l 1
 300 275 l 1
 300 125 l 1
 237.5 0 l 1
 50 0 l 1
 50 700 l 1
 100 600 m 1
 100 400 l 1
 212.5 400 l 1
 250 475 l 1
 250 525 l 1
 212.5 600 l 1
 100 600 l 1
 100 300 m 1
 100 100 l 1
 212.5 100 l 1
 250 175 l 1
 250 225 l 1
 212.5 300 l 1
 100 300 l 1
EndSplineSet
EndChar

StartChar: Gamma
Encoding: 915 915 484
Width: 300
Flags: W
LayerCount: 2
Fore
SplineSet
 50 700 m 1
 300 700 l 1
 300 600 l 1
 100 600 l 1
 100 0 l 1
 50 0 l 1
 50 700 l 1
EndSplineSet
EndChar

StartChar: uni0394
Encoding: 916 916 485
Width: 300
Flags: W
LayerCount: 2
Fore
SplineSet
 100 375 m 1
 100 475 l 1
 150 575 l 1
 150 700 l 1
 200 700 l 1
 200 575 l 1
 250 475 l 1
 250 375 l 1
 300 275 l 1
 300 0 l 1
 50 0 l 1
 50 275 l 1
 100 375 l 1
 150 325 m 1
 100 225 l 1
 100 100 l 1
 250 100 l 1
 250 225 l 1
 200 325 l 1
 200 425 l 1
 175 475 l 1
 150 425 l 1
 150 325 l 1
EndSplineSet
EndChar

StartChar: Epsilon
Encoding: 917 917 486
Width: 300
Flags: W
LayerCount: 2
Fore
SplineSet
 50 700 m 1
 300 700 l 1
 300 600 l 1
 100 600 l 1
 100 400 l 1
 250 400 l 1
 250 300 l 1
 100 300 l 1
 100 100 l 1
 300 100 l 1
 300 0 l 1
 50 0 l 1
 50 700 l 1
EndSplineSet
EndChar

StartChar: Zeta
Encoding: 918 918 487
Width: 300
Flags: W
LayerCount: 2
Fore
SplineSet
 50 600 m 1
 50 700 l 1
 300 700 l 1
 300 525 l 1
 100 125 l 1
 100 100 l 1
 300 100 l 1
 300 0 l 1
 50 0 l 1
 50 175 l 1
 250 575 l 1
 250 600 l 1
 50 600 l 1
EndSplineSet
EndChar

StartChar: Eta
Encoding: 919 919 488
Width: 300
Flags: W
LayerCount: 2
Fore
SplineSet
 50 700 m 1
 100 700 l 1
 100 400 l 1
 250 400 l 1
 250 700 l 1
 300 700 l 1
 300 0 l 1
 250 0 l 1
 250 300 l 1
 100 300 l 1
 100 0 l 1
 50 0 l 1
 50 700 l 1
EndSplineSet
EndChar

StartChar: Theta
Encoding: 920 920 489
Width: 300
Flags: W
LayerCount: 2
Fore
SplineSet
 50 575 m 1
 112.5 700 l 1
 237.5 700 l 1
 300 575 l 1
 300 125 l 1
 237.5 0 l 1
 112.5 0 l 1
 50 125 l 1
 50 575 l 1
 137.5 600 m 1
 100 525 l 1
 100 400 l 1
 250 400 l 1
 250 525 l 1
 212.5 600 l 1
 137.5 600 l 1
 100 300 m 1
 100 175 l 1
 137.5 100 l 1
 212.5 100 l 1
 250 175 l 1
 250 300 l 1
 100 300 l 1
EndSplineSet
EndChar

StartChar: Iota
Encoding: 921 921 490
Width: 300
Flags: W
LayerCount: 2
Position2: "palt" dx=-50 dy=0 dh=-100 dv=0
Fore
SplineSet
 100 600 m 1
 100 700 l 1
 250 700 l 1
 250 600 l 1
 200 600 l 1
 200 100 l 1
 250 100 l 1
 250 0 l 1
 100 0 l 1
 100 100 l 1
 150 100 l 1
 150 600 l 1
 100 600 l 1
EndSplineSet
EndChar

StartChar: Kappa
Encoding: 922 922 491
Width: 300
Flags: W
LayerCount: 2
Fore
SplineSet
 50 700 m 1
 100 700 l 1
 100 400 l 1
 112.5 400 l 1
 262.5 700 l 1
 300 700 l 1
 300 625 l 1
 162.5 350 l 1
 300 75 l 1
 300 0 l 1
 262.5 0 l 1
 112.5 300 l 1
 100 300 l 1
 100 0 l 1
 50 0 l 1
 50 700 l 1
EndSplineSet
EndChar

StartChar: Lambda
Encoding: 923 923 492
Width: 300
Flags: W
LayerCount: 2
Fore
SplineSet
 100 375 m 1
 100 475 l 1
 150 575 l 1
 150 700 l 1
 200 700 l 1
 200 575 l 1
 250 475 l 1
 250 375 l 1
 300 275 l 1
 300 0 l 1
 250 0 l 1
 250 225 l 1
 200 325 l 1
 200 425 l 1
 175 475 l 1
 150 425 l 1
 150 325 l 1
 100 225 l 1
 100 0 l 1
 50 0 l 1
 50 275 l 1
 100 375 l 1
EndSplineSet
EndChar

StartChar: Mu
Encoding: 924 924 493
Width: 300
Flags: W
LayerCount: 2
Fore
SplineSet
 50 700 m 1
 100 700 l 1
 100 600 l 1
 137.5 600 l 1
 175 525 l 1
 212.5 600 l 1
 250 600 l 1
 250 700 l 1
 300 700 l 1
 300 0 l 1
 250 0 l 1
 250 500 l 1
 237.5 500 l 1
 200 425 l 1
 200 300 l 1
 150 300 l 1
 150 425 l 1
 112.5 500 l 1
 100 500 l 1
 100 0 l 1
 50 0 l 1
 50 700 l 1
EndSplineSet
EndChar

StartChar: Nu
Encoding: 925 925 494
Width: 300
Flags: W
LayerCount: 2
Fore
SplineSet
 50 700 m 1
 100 700 l 1
 100 500 l 1
 137.5 500 l 1
 237.5 300 l 1
 250 300 l 1
 250 700 l 1
 300 700 l 1
 300 0 l 1
 250 0 l 1
 250 200 l 1
 212.5 200 l 1
 112.5 400 l 1
 100 400 l 1
 100 0 l 1
 50 0 l 1
 50 700 l 1
EndSplineSet
EndChar

StartChar: Xi
Encoding: 926 926 495
Width: 300
Flags: W
LayerCount: 2
Fore
SplineSet
 50 600 m 1
 50 700 l 1
 300 700 l 1
 300 600 l 1
 50 600 l 1
 50 0 m 1
 50 100 l 1
 300 100 l 1
 300 0 l 1
 50 0 l 1
 100 300 m 1
 100 400 l 1
 250 400 l 1
 250 300 l 1
 100 300 l 1
EndSplineSet
EndChar

StartChar: Omicron
Encoding: 927 927 496
Width: 300
Flags: W
LayerCount: 2
Fore
SplineSet
 50 575 m 1
 112.5 700 l 1
 237.5 700 l 1
 300 575 l 1
 300 125 l 1
 237.5 0 l 1
 112.5 0 l 1
 50 125 l 1
 50 575 l 1
 137.5 600 m 1
 100 525 l 1
 100 175 l 1
 137.5 100 l 1
 212.5 100 l 1
 250 175 l 1
 250 525 l 1
 212.5 600 l 1
 137.5 600 l 1
EndSplineSet
EndChar

StartChar: Pi
Encoding: 928 928 497
Width: 300
Flags: W
LayerCount: 2
Fore
SplineSet
 50 700 m 1
 300 700 l 1
 300 0 l 1
 250 0 l 1
 250 600 l 1
 100 600 l 1
 100 0 l 1
 50 0 l 1
 50 700 l 1
EndSplineSet
EndChar

StartChar: Rho
Encoding: 929 929 498
Width: 300
Flags: W
LayerCount: 2
Fore
SplineSet
 50 700 m 1
 237.5 700 l 1
 300 575 l 1
 300 425 l 1
 237.5 300 l 1
 100 300 l 1
 100 0 l 1
 50 0 l 1
 50 700 l 1
 100 600 m 1
 100 400 l 1
 212.5 400 l 1
 250 475 l 1
 250 525 l 1
 212.5 600 l 1
 100 600 l 1
EndSplineSet
EndChar

StartChar: Sigma
Encoding: 931 931 499
Width: 300
Flags: W
LayerCount: 2
Fore
SplineSet
 50 700 m 1
 300 700 l 1
 300 600 l 1
 100 600 l 1
 100 575 l 1
 200 375 l 1
 200 325 l 1
 100 125 l 1
 100 100 l 1
 300 100 l 1
 300 0 l 1
 50 0 l 1
 50 175 l 1
 137.5 350 l 1
 50 525 l 1
 50 700 l 1
EndSplineSet
EndChar

StartChar: Tau
Encoding: 932 932 500
Width: 300
Flags: W
LayerCount: 2
Fore
SplineSet
 50 600 m 1
 50 700 l 1
 300 700 l 1
 300 600 l 1
 200 600 l 1
 200 0 l 1
 150 0 l 1
 150 600 l 1
 50 600 l 1
EndSplineSet
EndChar

StartChar: Upsilon
Encoding: 933 933 501
Width: 300
Flags: W
LayerCount: 2
Fore
SplineSet
 50 700 m 1
 100 700 l 1
 100 575 l 1
 175 425 l 1
 250 575 l 1
 250 700 l 1
 300 700 l 1
 300 525 l 1
 200 325 l 1
 200 0 l 1
 150 0 l 1
 150 325 l 1
 50 525 l 1
 50 700 l 1
EndSplineSet
EndChar

StartChar: Phi
Encoding: 934 934 502
Width: 300
Flags: W
LayerCount: 2
Fore
SplineSet
 50 475 m 1
 112.5 600 l 1
 150 600 l 1
 150 700 l 1
 200 700 l 1
 200 600 l 1
 237.5 600 l 1
 300 475 l 1
 300 225 l 1
 237.5 100 l 1
 200 100 l 1
 200 0 l 1
 150 0 l 1
 150 100 l 1
 112.5 100 l 1
 50 225 l 1
 50 475 l 1
 137.5 500 m 1
 100 425 l 1
 100 275 l 1
 137.5 200 l 1
 150 200 l 1
 150 500 l 1
 137.5 500 l 1
 200 500 m 1
 200 200 l 1
 212.5 200 l 1
 250 275 l 1
 250 425 l 1
 212.5 500 l 1
 200 500 l 1
EndSplineSet
EndChar

StartChar: Chi
Encoding: 935 935 503
Width: 300
Flags: W
LayerCount: 2
Fore
SplineSet
 50 700 m 1
 100 700 l 1
 100 575 l 1
 175 425 l 1
 250 575 l 1
 250 700 l 1
 300 700 l 1
 300 525 l 1
 212.5 350 l 1
 300 175 l 1
 300 0 l 1
 250 0 l 1
 250 125 l 1
 175 275 l 1
 100 125 l 1
 100 0 l 1
 50 0 l 1
 50 175 l 1
 137.5 350 l 1
 50 525 l 1
 50 700 l 1
EndSplineSet
EndChar

StartChar: Psi
Encoding: 936 936 504
Width: 300
Flags: W
LayerCount: 2
Fore
SplineSet
 50 700 m 1
 100 700 l 1
 100 275 l 1
 137.5 200 l 1
 150 200 l 1
 150 700 l 1
 200 700 l 1
 200 200 l 1
 212.5 200 l 1
 250 275 l 1
 250 700 l 1
 300 700 l 1
 300 225 l 1
 237.5 100 l 1
 200 100 l 1
 200 0 l 1
 150 0 l 1
 150 100 l 1
 112.5 100 l 1
 50 225 l 1
 50 700 l 1
EndSplineSet
EndChar

StartChar: uni03A9
Encoding: 937 937 505
Width: 300
Flags: W
LayerCount: 2
Fore
SplineSet
 50 575 m 1
 112.5 700 l 1
 237.5 700 l 1
 300 575 l 1
 300 225 l 1
 250 125 l 1
 250 100 l 1
 300 100 l 1
 300 0 l 1
 200 0 l 1
 200 175 l 1
 250 275 l 1
 250 525 l 1
 212.5 600 l 1
 137.5 600 l 1
 100 525 l 1
 100 275 l 1
 150 175 l 1
 150 0 l 1
 50 0 l 1
 50 100 l 1
 100 100 l 1
 100 125 l 1
 50 225 l 1
 50 575 l 1
EndSplineSet
EndChar

StartChar: alpha
Encoding: 945 945 506
Width: 300
Flags: W
LayerCount: 2
Fore
SplineSet
 50 375 m 1
 112.5 500 l 1
 187.5 500 l 1
 225 425 l 1
 262.5 500 l 1
 300 500 l 1
 300 425 l 1
 250 325 l 1
 250 175 l 1
 300 75 l 1
 300 0 l 1
 262.5 0 l 1
 225 75 l 1
 187.5 0 l 1
 112.5 0 l 1
 50 125 l 1
 50 375 l 1
 137.5 400 m 1
 100 325 l 1
 100 175 l 1
 137.5 100 l 1
 162.5 100 l 1
 200 175 l 1
 200 325 l 1
 162.5 400 l 1
 137.5 400 l 1
EndSplineSet
EndChar

StartChar: beta
Encoding: 946 946 507
Width: 300
Flags: W
LayerCount: 2
Fore
SplineSet
 50 575 m 1
 112.5 700 l 1
 237.5 700 l 1
 300 575 l 1
 300 425 l 1
 262.5 350 l 1
 300 275 l 1
 300 125 l 1
 237.5 0 l 1
 100 0 l 1
 100 -200 l 1
 50 -200 l 1
 50 575 l 1
 137.5 600 m 1
 100 525 l 1
 100 400 l 1
 212.5 400 l 1
 250 475 l 1
 250 525 l 1
 212.5 600 l 1
 137.5 600 l 1
 100 300 m 1
 100 100 l 1
 212.5 100 l 1
 250 175 l 1
 250 225 l 1
 212.5 300 l 1
 100 300 l 1
EndSplineSet
EndChar

StartChar: gamma
Encoding: 947 947 508
Width: 300
Flags: W
LayerCount: 2
Fore
SplineSet
 50 500 m 1
 100 500 l 1
 100 375 l 1
 150 275 l 1
 150 175 l 1
 175 125 l 1
 200 175 l 1
 200 275 l 1
 250 375 l 1
 250 500 l 1
 300 500 l 1
 300 325 l 1
 250 225 l 1
 250 125 l 1
 200 25 l 1
 200 -200 l 1
 150 -200 l 1
 150 25 l 1
 100 125 l 1
 100 225 l 1
 50 325 l 1
 50 500 l 1
EndSplineSet
EndChar

StartChar: delta
Encoding: 948 948 509
Width: 300
Flags: W
LayerCount: 2
Fore
SplineSet
 50 525 m 1
 50 575 l 1
 112.5 700 l 1
 300 700 l 1
 300 600 l 1
 137.5 600 l 1
 112.5 550 l 1
 137.5 500 l 1
 237.5 500 l 1
 300 375 l 1
 300 125 l 1
 237.5 0 l 1
 112.5 0 l 1
 50 125 l 1
 50 375 l 1
 87.5 450 l 1
 50 525 l 1
 137.5 400 m 1
 100 325 l 1
 100 175 l 1
 137.5 100 l 1
 212.5 100 l 1
 250 175 l 1
 250 325 l 1
 212.5 400 l 1
 137.5 400 l 1
EndSplineSet
EndChar

StartChar: epsilon
Encoding: 949 949 510
Width: 300
Flags: W
LayerCount: 2
Fore
SplineSet
 50 325 m 1
 50 375 l 1
 112.5 500 l 1
 300 500 l 1
 300 400 l 1
 137.5 400 l 1
 112.5 350 l 1
 137.5 300 l 1
 250 300 l 1
 250 200 l 1
 137.5 200 l 1
 112.5 150 l 1
 137.5 100 l 1
 300 100 l 1
 300 0 l 1
 112.5 0 l 1
 50 125 l 1
 50 175 l 1
 87.5 250 l 1
 50 325 l 1
EndSplineSet
EndChar

StartChar: zeta
Encoding: 950 950 511
Width: 300
Flags: W
LayerCount: 2
Position2: "palt" dx=0 dy=0 dh=-50 dv=0
Fore
SplineSet
 50 600 m 1
 50 700 l 1
 250 700 l 1
 250 525 l 1
 100 225 l 1
 100 175 l 1
 137.5 100 l 1
 187.5 100 l 1
 250 -25 l 1
 250 -75 l 1
 187.5 -200 l 1
 150 -200 l 1
 150 -125 l 1
 187.5 -50 l 1
 162.5 0 l 1
 112.5 0 l 1
 50 125 l 1
 50 275 l 1
 200 575 l 1
 200 600 l 1
 50 600 l 1
EndSplineSet
EndChar

StartChar: eta
Encoding: 951 951 512
Width: 300
Flags: W
LayerCount: 2
Fore
SplineSet
 50 500 m 1
 237.5 500 l 1
 300 375 l 1
 300 -200 l 1
 250 -200 l 1
 250 325 l 1
 212.5 400 l 1
 100 400 l 1
 100 0 l 1
 50 0 l 1
 50 500 l 1
EndSplineSet
EndChar

StartChar: theta
Encoding: 952 952 513
Width: 300
Flags: W
LayerCount: 2
Position2: "palt" dx=0 dy=0 dh=-50 dv=0
Fore
SplineSet
 50 575 m 1
 112.5 700 l 1
 187.5 700 l 1
 250 575 l 1
 250 125 l 1
 187.5 0 l 1
 112.5 0 l 1
 50 125 l 1
 50 575 l 1
 137.5 600 m 1
 100 525 l 1
 100 400 l 1
 200 400 l 1
 200 525 l 1
 162.5 600 l 1
 137.5 600 l 1
 100 300 m 1
 100 175 l 1
 137.5 100 l 1
 162.5 100 l 1
 200 175 l 1
 200 300 l 1
 100 300 l 1
EndSplineSet
EndChar

StartChar: iota
Encoding: 953 953 514
Width: 300
Flags: W
LayerCount: 2
Position2: "palt" dx=-50 dy=0 dh=-100 dv=0
Fore
SplineSet
 100 400 m 1
 100 500 l 1
 200 500 l 1
 200 175 l 1
 250 75 l 1
 250 0 l 1
 212.5 0 l 1
 150 125 l 1
 150 400 l 1
 100 400 l 1
EndSplineSet
EndChar

StartChar: kappa
Encoding: 954 954 515
Width: 300
Flags: W
LayerCount: 2
Position2: "palt" dx=-50 dy=0 dh=-50 dv=0
Fore
SplineSet
 100 500 m 1
 150 500 l 1
 150 300 l 1
 162.5 300 l 1
 262.5 500 l 1
 300 500 l 1
 300 425 l 1
 212.5 250 l 1
 300 75 l 1
 300 0 l 1
 262.5 0 l 1
 162.5 200 l 1
 150 200 l 1
 150 0 l 1
 100 0 l 1
 100 500 l 1
EndSplineSet
EndChar

StartChar: lambda
Encoding: 955 955 516
Width: 300
Flags: W
LayerCount: 2
Fore
SplineSet
 50 600 m 1
 50 700 l 1
 137.5 700 l 1
 200 575 l 1
 200 475 l 1
 250 375 l 1
 250 275 l 1
 300 175 l 1
 300 0 l 1
 250 0 l 1
 250 125 l 1
 200 225 l 1
 200 325 l 1
 175 375 l 1
 150 325 l 1
 150 225 l 1
 100 125 l 1
 100 0 l 1
 50 0 l 1
 50 175 l 1
 100 275 l 1
 100 375 l 1
 150 475 l 1
 150 525 l 1
 112.5 600 l 1
 50 600 l 1
EndSplineSet
EndChar

StartChar: uni03BC
Encoding: 956 956 517
Width: 300
Flags: W
LayerCount: 2
Fore
SplineSet
 50 500 m 1
 100 500 l 1
 100 100 l 1
 162.5 100 l 1
 200 175 l 1
 200 500 l 1
 250 500 l 1
 250 175 l 1
 300 75 l 1
 300 0 l 1
 262.5 0 l 1
 225 75 l 1
 187.5 0 l 1
 100 0 l 1
 100 -200 l 1
 50 -200 l 1
 50 500 l 1
EndSplineSet
EndChar

StartChar: nu
Encoding: 957 957 518
Width: 300
Flags: W
LayerCount: 2
Fore
SplineSet
 50 500 m 1
 100 500 l 1
 100 375 l 1
 150 275 l 1
 150 175 l 1
 175 125 l 1
 250 275 l 1
 250 500 l 1
 300 500 l 1
 300 225 l 1
 187.5 0 l 1
 162.5 0 l 1
 100 125 l 1
 100 225 l 1
 50 325 l 1
 50 500 l 1
EndSplineSet
EndChar

StartChar: xi
Encoding: 958 958 519
Width: 300
Flags: W
LayerCount: 2
Fore
SplineSet
 50 575 m 1
 112.5 700 l 1
 250 700 l 1
 250 600 l 1
 137.5 600 l 1
 100 525 l 1
 100 475 l 1
 137.5 400 l 1
 250 400 l 1
 250 300 l 1
 137.5 300 l 1
 100 225 l 1
 100 175 l 1
 137.5 100 l 1
 237.5 100 l 1
 300 -25 l 1
 300 -75 l 1
 237.5 -200 l 1
 200 -200 l 1
 200 -125 l 1
 237.5 -50 l 1
 212.5 0 l 1
 112.5 0 l 1
 50 125 l 1
 50 275 l 1
 87.5 350 l 1
 50 425 l 1
 50 575 l 1
EndSplineSet
EndChar

StartChar: omicron
Encoding: 959 959 520
Width: 300
Flags: W
LayerCount: 2
Fore
SplineSet
 50 375 m 1
 112.5 500 l 1
 237.5 500 l 1
 300 375 l 1
 300 125 l 1
 237.5 0 l 1
 112.5 0 l 1
 50 125 l 1
 50 375 l 1
 137.5 400 m 1
 100 325 l 1
 100 175 l 1
 137.5 100 l 1
 212.5 100 l 1
 250 175 l 1
 250 325 l 1
 212.5 400 l 1
 137.5 400 l 1
EndSplineSet
EndChar

StartChar: pi
Encoding: 960 960 521
Width: 300
Flags: W
LayerCount: 2
Fore
SplineSet
 50 400 m 1
 50 500 l 1
 300 500 l 1
 300 400 l 1
 250 400 l 1
 250 175 l 1
 300 75 l 1
 300 0 l 1
 262.5 0 l 1
 200 125 l 1
 200 400 l 1
 150 400 l 1
 150 0 l 1
 100 0 l 1
 100 400 l 1
 50 400 l 1
EndSplineSet
EndChar

StartChar: rho
Encoding: 961 961 522
Width: 300
Flags: W
LayerCount: 2
Fore
SplineSet
 50 375 m 1
 112.5 500 l 1
 237.5 500 l 1
 300 375 l 1
 300 125 l 1
 237.5 0 l 1
 100 0 l 1
 100 -200 l 1
 50 -200 l 1
 50 375 l 1
 137.5 400 m 1
 100 325 l 1
 100 100 l 1
 212.5 100 l 1
 250 175 l 1
 250 325 l 1
 212.5 400 l 1
 137.5 400 l 1
EndSplineSet
EndChar

StartChar: sigma1
Encoding: 962 962 523
Width: 300
Flags: W
LayerCount: 2
Fore
SplineSet
 50 375 m 1
 112.5 500 l 1
 300 500 l 1
 300 400 l 1
 137.5 400 l 1
 100 325 l 1
 100 175 l 1
 137.5 100 l 1
 237.5 100 l 1
 300 -25 l 1
 300 -75 l 1
 237.5 -200 l 1
 200 -200 l 1
 200 -125 l 1
 237.5 -50 l 1
 212.5 0 l 1
 112.5 0 l 1
 50 125 l 1
 50 375 l 1
EndSplineSet
EndChar

StartChar: sigma
Encoding: 963 963 524
Width: 300
Flags: W
LayerCount: 2
Fore
SplineSet
 50 375 m 1
 112.5 500 l 1
 300 500 l 1
 300 400 l 1
 250 400 l 1
 250 375 l 1
 300 275 l 1
 300 125 l 1
 237.5 0 l 1
 112.5 0 l 1
 50 125 l 1
 50 375 l 1
 137.5 400 m 1
 100 325 l 1
 100 175 l 1
 137.5 100 l 1
 212.5 100 l 1
 250 175 l 1
 250 225 l 1
 200 325 l 1
 200 400 l 1
 137.5 400 l 1
EndSplineSet
EndChar

StartChar: tau
Encoding: 964 964 525
Width: 300
Flags: W
LayerCount: 2
Fore
SplineSet
 50 400 m 1
 50 500 l 1
 300 500 l 1
 300 400 l 1
 200 400 l 1
 200 175 l 1
 250 75 l 1
 250 0 l 1
 212.5 0 l 1
 150 125 l 1
 150 400 l 1
 50 400 l 1
EndSplineSet
EndChar

StartChar: upsilon
Encoding: 965 965 526
Width: 300
Flags: W
LayerCount: 2
Fore
SplineSet
 50 500 m 1
 100 500 l 1
 100 175 l 1
 137.5 100 l 1
 212.5 100 l 1
 250 175 l 1
 250 325 l 1
 200 425 l 1
 200 500 l 1
 237.5 500 l 1
 300 375 l 1
 300 125 l 1
 237.5 0 l 1
 112.5 0 l 1
 50 125 l 1
 50 500 l 1
EndSplineSet
EndChar

StartChar: phi
Encoding: 966 966 527
Width: 300
Flags: W
LayerCount: 2
Fore
SplineSet
 50 500 m 1
 100 500 l 1
 100 175 l 1
 137.5 100 l 1
 150 100 l 1
 150 500 l 1
 237.5 500 l 1
 300 375 l 1
 300 125 l 1
 237.5 0 l 1
 200 0 l 1
 200 -200 l 1
 150 -200 l 1
 150 0 l 1
 112.5 0 l 1
 50 125 l 1
 50 500 l 1
 200 400 m 1
 200 100 l 1
 212.5 100 l 1
 250 175 l 1
 250 325 l 1
 212.5 400 l 1
 200 400 l 1
EndSplineSet
EndChar

StartChar: chi
Encoding: 967 967 528
Width: 300
Flags: W
LayerCount: 2
Fore
SplineSet
 50 425 m 1
 50 500 l 1
 87.5 500 l 1
 150 375 l 1
 150 275 l 1
 175 225 l 1
 250 375 l 1
 250 500 l 1
 300 500 l 1
 300 325 l 1
 212.5 150 l 1
 250 75 l 1
 250 -25 l 1
 300 -125 l 1
 300 -200 l 1
 262.5 -200 l 1
 200 -75 l 1
 200 25 l 1
 175 75 l 1
 100 -75 l 1
 100 -200 l 1
 50 -200 l 1
 50 -25 l 1
 137.5 150 l 1
 100 225 l 1
 100 325 l 1
 50 425 l 1
EndSplineSet
EndChar

StartChar: psi
Encoding: 968 968 529
Width: 300
Flags: W
LayerCount: 2
Fore
SplineSet
 50 500 m 1
 100 500 l 1
 100 175 l 1
 137.5 100 l 1
 150 100 l 1
 150 500 l 1
 200 500 l 1
 200 100 l 1
 212.5 100 l 1
 250 175 l 1
 250 500 l 1
 300 500 l 1
 300 125 l 1
 237.5 0 l 1
 200 0 l 1
 200 -200 l 1
 150 -200 l 1
 150 0 l 1
 112.5 0 l 1
 50 125 l 1
 50 500 l 1
EndSplineSet
EndChar

StartChar: omega
Encoding: 969 969 530
Width: 300
Flags: W
LayerCount: 2
Fore
SplineSet
 50 375 m 1
 112.5 500 l 1
 150 500 l 1
 150 425 l 1
 100 325 l 1
 100 175 l 1
 125 125 l 1
 150 175 l 1
 150 300 l 1
 200 300 l 1
 200 175 l 1
 225 125 l 1
 250 175 l 1
 250 325 l 1
 200 425 l 1
 200 500 l 1
 237.5 500 l 1
 300 375 l 1
 300 125 l 1
 237.5 0 l 1
 212.5 0 l 1
 175 75 l 1
 137.5 0 l 1
 112.5 0 l 1
 50 125 l 1
 50 375 l 1
EndSplineSet
EndChar

